<svg width="38" height="39" viewBox="0 0 38 39" fill="none" xmlns="http://www.w3.org/2000/svg">
<path d="M11.2651 0.809082C5.23293 0.809082 0.326172 5.72039 0.326172 11.7541V27.3855C0.326172 33.4176 5.23748 38.3244 11.2712 38.3244H26.9026C32.9347 38.3244 37.8415 33.4131 37.8415 27.3794V11.748C37.8415 5.71584 32.9302 0.809082 26.8965 0.809082H11.2651ZM30.0258 7.06163C30.8886 7.06163 31.5889 7.76192 31.5889 8.62477C31.5889 9.48762 30.8886 10.1879 30.0258 10.1879C29.1629 10.1879 28.4626 9.48762 28.4626 8.62477C28.4626 7.76192 29.1629 7.06163 30.0258 7.06163ZM19.0838 10.1879C24.2562 10.1879 28.4626 14.3943 28.4626 19.5667C28.4626 24.7392 24.2562 28.9456 19.0838 28.9456C13.9114 28.9456 9.705 24.7392 9.705 19.5667C9.705 14.3943 13.9114 10.1879 19.0838 10.1879ZM19.0838 13.3142C17.4255 13.3142 15.8352 13.9729 14.6626 15.1455C13.49 16.3181 12.8313 17.9085 12.8313 19.5667C12.8313 21.225 13.49 22.8154 14.6626 23.988C15.8352 25.1605 17.4255 25.8193 19.0838 25.8193C20.7421 25.8193 22.3325 25.1605 23.505 23.988C24.6776 22.8154 25.3364 21.225 25.3364 19.5667C25.3364 17.9085 24.6776 16.3181 23.505 15.1455C22.3325 13.9729 20.7421 13.3142 19.0838 13.3142Z" fill="#F4F1EB"/>
</svg>
