<svg width="1440" height="1730" viewBox="0 0 1440 1730" fill="none" xmlns="http://www.w3.org/2000/svg">
<path d="M1449 1615H667.5H-9V910.965V206.93C154.555 81.5441 420.154 0 720 0C1019.85 0 1285.44 81.5441 1449 206.93V1615Z" fill="#9FAED9"/>
<path d="M1411.34 1317.83C1396.35 1317.8 1381.53 1320.91 1367.82 1326.98C1371.45 1317.42 1373.31 1307.28 1373.3 1297.06C1373.3 1246.62 1328.69 1205.72 1273.65 1205.72C1218.62 1205.72 1174 1246.62 1174 1297.06C1173.99 1306.04 1175.42 1314.96 1178.23 1323.48C1167.09 1319.72 1155.42 1317.81 1143.66 1317.83C1088.63 1317.83 1044.01 1358.72 1044.01 1409.16C1044.01 1459.61 1088.63 1500.49 1143.66 1500.49C1155.03 1500.51 1166.34 1498.72 1177.16 1495.2C1176.97 1497.42 1176.88 1499.67 1176.88 1501.94C1176.88 1552.38 1221.5 1593.27 1276.54 1593.27C1331.57 1593.27 1376.19 1552.38 1376.19 1501.94C1376.19 1499.44 1376.07 1496.97 1375.86 1494.53C1387.27 1498.49 1399.26 1500.51 1411.34 1500.49C1466.37 1500.49 1510.99 1459.61 1510.99 1409.16C1510.99 1358.72 1466.37 1317.83 1411.34 1317.83Z" fill="#E8CCF7"/>
<path d="M33.2712 1721.36C20.3828 1714.86 6.09643 1711.57 -8.35746 1711.77C-22.8113 1711.97 -36.9995 1715.65 -49.6998 1722.51V1722.51C-114.636 1757.54 -191.841 1703.46 -180.36 1630.99C-178.117 1616.81 -179.379 1602.3 -184.039 1588.72C-188.698 1575.13 -196.614 1562.87 -207.105 1553C-260.733 1502.52 -232.785 1412.89 -159.805 1401.35C-145.527 1399.09 -132.015 1393.43 -120.432 1384.84C-108.85 1376.25 -99.5452 1364.99 -93.3195 1352.03V1352.03C-61.5441 1285.8 32.9422 1284.5 66.5704 1349.83C73.1488 1362.61 82.7574 1373.61 94.5688 1381.88C106.38 1390.16 120.04 1395.46 134.372 1397.32V1397.32C207.646 1406.86 238.097 1495.68 185.897 1547.61C175.692 1557.76 168.124 1570.22 163.842 1583.91C159.56 1597.61 158.694 1612.13 161.317 1626.24C174.823 1698.44 99.1511 1754.6 33.2712 1721.36Z" fill="#BCEF9E"/>
</svg>
