<svg width="318" height="251" viewBox="0 0 318 251" fill="none" xmlns="http://www.w3.org/2000/svg">
<path d="M185.658 212.314C212.761 204.795 229.382 179.418 222.784 155.634C216.185 131.849 188.864 118.663 161.762 126.183C134.659 133.702 118.037 159.079 124.636 182.864C131.234 206.648 158.555 219.834 185.658 212.314Z" fill="#9A9FDB"/>
<path fill-rule="evenodd" clip-rule="evenodd" d="M83.3452 219.21C83.3534 219.198 83.3618 219.185 56.8683 201.665C30.3747 184.145 30.3838 184.132 30.3933 184.117L30.4138 184.086L30.461 184.016L30.5795 183.839C30.6693 183.706 30.7805 183.542 30.9132 183.348C31.1784 182.961 31.5296 182.456 31.9662 181.843C32.8388 180.617 34.0551 178.954 35.6104 176.937C38.7159 172.908 43.2021 167.425 49.033 161.152C60.6283 148.678 77.9189 132.671 100.65 118.839C147.131 90.5562 215.465 72.2176 299.266 108.847L273.805 167.046C212.171 140.105 165.672 153.626 133.678 173.095C117.172 183.139 104.314 194.981 95.5712 204.387C91.2328 209.054 88.0021 213.019 85.9331 215.703C84.901 217.042 84.1656 218.052 83.7333 218.659C83.5174 218.963 83.3779 219.165 83.3155 219.256C83.2844 219.301 83.2726 219.319 83.2803 219.307L83.3064 219.268L83.3304 219.232L83.3452 219.21Z" fill="#9A9FDB"/>
<path d="M154.653 115.952C157.735 115.097 157.799 105.633 154.798 94.8136C151.796 83.9942 146.864 75.9164 143.783 76.7714C140.701 77.6264 140.636 87.0904 143.638 97.9098C146.639 108.729 151.571 116.807 154.653 115.952Z" fill="#9A9FDB"/>
<path d="M127.554 125.362C130.483 124.078 129.211 114.698 124.712 104.411C120.213 94.1247 114.191 86.8266 111.262 88.1106C108.332 89.3946 109.605 98.7744 114.104 109.061C118.603 119.348 124.625 126.646 127.554 125.362Z" fill="#9A9FDB"/>
<path d="M103.386 137.553C106.071 135.813 103.311 126.758 97.2226 117.328C91.1338 107.898 84.0216 101.663 81.337 103.403C78.6524 105.142 81.412 114.197 87.5008 123.628C93.5896 133.058 100.702 139.293 103.386 137.553Z" fill="#9A9FDB"/>
<path d="M82.3628 154.496C84.6936 152.303 80.3655 143.885 72.6959 135.695C65.0263 127.504 56.9194 122.642 54.5887 124.834C52.2579 127.027 56.586 135.445 64.2556 143.636C71.9252 151.827 80.0321 156.689 82.3628 154.496Z" fill="#9A9FDB"/>
<path d="M63.824 174.721C65.5291 172.01 59.2308 164.951 49.7563 158.953C40.2819 152.955 31.219 150.29 29.5139 153.001C27.8088 155.711 34.1071 162.771 43.5816 168.769C53.056 174.767 62.1189 177.432 63.824 174.721Z" fill="#9A9FDB"/>
<path d="M182.987 88.7285C181.543 77.5943 177.801 68.8997 174.629 69.3084C171.457 69.7172 170.056 79.0746 171.5 90.2088C172.944 101.343 176.686 110.038 179.858 109.629C183.03 109.22 184.431 99.8627 182.987 88.7285Z" fill="#9A9FDB"/>
<path d="M213.334 87.5395C213.694 76.3201 211.394 67.1376 208.197 67.0298C205 66.922 202.116 75.9297 201.756 87.1491C201.397 98.3685 203.697 107.551 206.894 107.659C210.091 107.767 212.975 98.759 213.334 87.5395Z" fill="#9A9FDB"/>
<path d="M243.562 92.7097C245.916 81.7382 245.288 72.2939 242.161 71.6153C239.033 70.9367 234.59 79.2808 232.237 90.2524C229.884 101.224 230.511 110.668 233.639 111.347C236.766 112.025 241.209 103.681 243.562 92.7097Z" fill="#9A9FDB"/>
<path d="M274.199 103.567C279.229 93.5454 280.99 84.2498 278.132 82.8051C275.274 81.3604 268.879 88.3137 263.849 98.3358C258.819 108.358 257.059 117.653 259.917 119.098C262.775 120.543 269.169 113.589 274.199 103.567Z" fill="#9A9FDB"/>
</svg>
