<svg width="90" height="87" viewBox="0 0 90 87" fill="none" xmlns="http://www.w3.org/2000/svg">
<path d="M88.5795 31.7074C85.1591 23.5521 74.6051 20.2299 65.0085 24.2863C62.5963 25.299 60.3859 26.7402 58.4834 28.5407C59.9497 25.5509 60.7034 22.2599 60.6853 18.9276C60.6853 8.47522 53.5395 0 44.7245 0C35.9094 0 28.7697 8.47522 28.7697 18.9276C28.756 22.1362 29.4559 25.3075 30.8183 28.2101C28.9957 26.5629 26.9092 25.2364 24.6467 24.2863C15.0502 20.2299 4.49617 23.5521 1.07578 31.7074C-2.34461 39.8628 2.66154 49.7622 12.2596 53.8186C14.6586 54.8388 17.221 55.4172 19.8242 55.5261C19.0412 55.969 18.2852 56.4583 17.5601 56.9915C9.16696 63.1803 6.59484 73.9769 11.8134 81.1087C17.032 88.2404 28.0595 89.0035 36.4588 82.8162C41.0764 79.4103 43.9308 74.6106 44.6971 69.7926C45.468 74.603 48.3209 79.389 52.9325 82.7934C61.3241 88.9822 72.3562 88.2176 77.5778 81.0873C82.7994 73.9571 80.2228 63.1575 71.8296 56.9701C71.1206 56.4478 70.3813 55.9681 69.6156 55.5337C72.2922 55.4491 74.9301 54.8676 77.3957 53.8186C86.9937 49.7622 92.0014 39.8628 88.5795 31.7074ZM44.6334 63.9206H44.8322C44.7806 64.1582 44.7336 64.3958 44.6941 64.635C44.6531 64.3958 44.6061 64.1582 44.5545 63.9221L44.6334 63.9206Z" fill="#F7A65C"/>
</svg>
