<svg width="217" height="218" viewBox="0 0 217 218" fill="none" xmlns="http://www.w3.org/2000/svg">
<path d="M216.953 107.061C216.953 93.5056 198.127 82.4957 174.905 82.4957C172.375 82.4963 169.847 82.6321 167.331 82.9023C168.57 81.9836 169.809 81.0134 171.048 79.9917C188.915 64.9603 196.462 44.3147 187.911 33.8771C179.36 23.4395 157.941 27.1634 140.074 42.1948C136.319 45.3395 132.899 48.873 129.869 52.7379C130.333 49.3808 130.565 45.9951 130.564 42.6053C130.564 19.0754 119.709 0 106.32 0C92.9312 0 82.0764 19.0754 82.0764 42.6053C82.0768 45.2002 82.2145 47.7932 82.4889 50.3732C79.9571 47.4297 77.1944 44.6984 74.228 42.2061C56.3461 27.1634 34.9265 23.4395 26.3757 33.8771C17.8249 44.3147 25.3686 64.9603 43.2357 79.9917C44.1127 80.7448 45.0045 81.4338 45.8964 82.1191C44.8633 82.0401 43.8191 81.9798 42.7637 81.9459C19.5529 81.238 0.400089 91.6568 0.00618188 105.216C-0.387726 118.775 18.0925 130.346 41.3033 131.054C43.7955 131.13 46.2899 131.075 48.7764 130.888C46.3513 132.477 44.0221 134.211 41.8013 136.081C23.9342 151.112 16.3868 171.758 24.9376 182.195C33.4883 192.633 54.908 188.909 72.775 173.878C76.3895 170.854 79.6971 167.472 82.6487 163.783C82.1123 167.382 81.844 171.017 81.846 174.657C81.8349 198.176 92.6822 217.251 106.079 217.251C119.475 217.251 130.323 198.176 130.323 174.646C130.323 171.39 130.108 168.139 129.68 164.912C132.391 168.164 135.384 171.164 138.621 173.878C156.484 188.909 177.904 192.633 186.455 182.195C195.005 171.758 187.462 151.112 169.595 136.081C167.149 134.027 164.572 132.14 161.88 130.433C166.169 131.241 170.523 131.645 174.886 131.641C198.127 131.626 216.953 120.628 216.953 107.061Z" fill="#B8D8D5"/>
<path d="M105.63 128.03C117.815 128.03 127.693 118.022 127.693 105.675C127.693 93.3289 117.815 83.3202 105.63 83.3202C93.4454 83.3202 83.5677 93.3289 83.5677 105.675C83.5677 118.022 93.4454 128.03 105.63 128.03Z" fill="#ECF29E"/>
</svg>
