<svg width="213" height="429" viewBox="0 0 213 429" fill="none" xmlns="http://www.w3.org/2000/svg">
<path d="M33.2712 420.356C20.3828 413.858 6.09643 410.567 -8.35746 410.768C-22.8113 410.968 -36.9995 414.654 -49.6998 421.508V421.508C-114.636 456.544 -191.841 402.46 -180.36 329.989C-178.117 315.811 -179.379 301.304 -184.039 287.718C-188.698 274.132 -196.614 261.875 -207.105 252.001C-260.733 201.518 -232.785 111.891 -159.805 100.347C-145.527 98.0931 -132.015 92.4268 -120.432 83.8361C-108.85 75.2453 -99.5452 63.9877 -93.3195 51.0331V51.0331C-61.5441 -15.1968 32.9422 -16.5033 66.5704 48.8326C73.1488 61.6113 82.7574 72.611 94.5688 80.8841C106.38 89.1573 120.04 94.456 134.372 96.3239V96.3239C207.646 105.857 238.097 194.676 185.897 246.611C175.692 256.76 168.124 269.219 163.842 282.915C159.56 296.611 158.694 311.134 161.317 325.236C174.823 397.44 99.1511 453.596 33.2712 420.356Z" fill="#BCEF9E"/>
</svg>
