<svg width="217" height="213" viewBox="0 0 217 213" fill="none" xmlns="http://www.w3.org/2000/svg">
<path d="M176.685 5.30407C143.849 -8.24279 106.407 7.46139 93.0588 40.379C92.5322 41.6774 92.0754 42.9465 91.6449 44.2441L91.3167 44.1088L91.297 44.1638C90.6124 43.8511 89.9308 43.5371 89.2232 43.2377C56.3947 29.7091 18.9525 45.4133 5.59687 78.3126C-7.75629 111.243 8.03986 148.905 40.8609 162.458C41.5603 162.746 42.2678 163.003 42.9838 163.263L42.9627 163.315L161.872 212.363L209.899 93.944C210.629 92.4742 211.326 90.9785 211.955 89.429C225.302 56.5188 209.505 18.8542 176.685 5.30407Z" fill="#F4A39D"/>
</svg>
