<svg width="598" height="440" viewBox="0 0 598 440" fill="none" xmlns="http://www.w3.org/2000/svg">
<path d="M123.268 382.874C123.464 367.95 121.937 354.423 119.308 344.589C128.918 347.167 141.728 348.801 155.819 348.931C185.763 349.204 210.132 342.572 210.237 334.115C210.342 325.658 186.16 318.584 156.217 318.311C142.248 318.184 129.496 319.559 119.853 321.923C122.586 312.225 124.357 299.1 124.545 284.633C124.935 254.688 118.399 230.345 109.943 230.273C101.486 230.201 94.3168 254.411 93.9263 284.356C93.7311 299.337 95.2689 312.916 97.9266 322.744C88.0572 319.597 73.8241 317.554 57.9942 317.405C28.0505 317.132 3.68165 323.763 3.57641 332.221C3.47118 340.678 27.653 347.752 57.5967 348.025C73.5781 348.171 87.9675 346.347 97.9291 343.333C94.8696 353.186 92.8632 367.118 92.6584 382.582C92.268 412.527 98.804 436.87 107.261 436.943C115.718 437.015 122.881 412.822 123.268 382.874Z" fill="#F7A65C"/>
<path d="M506.621 157.857C506.816 142.933 505.29 129.405 502.661 119.572C512.271 122.15 525.081 123.784 539.172 123.914C569.115 124.187 593.484 117.555 593.589 109.098C593.695 100.641 569.513 93.5667 539.569 93.2936C525.601 93.1666 512.848 94.5415 503.206 96.9056C505.939 87.2077 507.709 74.0825 507.898 59.6162C508.288 29.6712 501.752 5.32818 493.295 5.2561C484.838 5.18401 477.669 29.3937 477.279 59.3388C477.084 74.3199 478.621 87.899 481.279 97.7265C471.41 94.5798 457.177 92.5371 441.347 92.3879C411.403 92.1149 387.034 98.7464 386.929 107.204C386.824 115.661 411.006 122.735 440.949 123.008C456.931 123.154 471.32 121.33 481.282 118.316C478.222 128.169 476.216 142.101 476.011 157.565C475.621 187.51 482.157 211.853 490.613 211.925C499.07 211.998 506.233 187.805 506.621 157.857Z" fill="#F7A65C"/>
<path d="M456.203 12.321H145.77V437.951H456.203V12.321Z" fill="#F5E7C4"/>
<path d="M444.414 24.2922H156.247V316.913H444.414V24.2922Z" fill="#EAB88B"/>
<path d="M414.861 100.569C387.833 71.9366 343.061 70.9796 314.858 98.433C313.76 99.504 312.714 100.607 311.699 101.728L311.428 101.443L311.383 101.488C310.834 100.854 310.285 100.22 309.71 99.6181C282.708 70.986 237.91 70.0354 209.714 97.4824C181.504 124.936 180.555 170.406 207.575 199.039C208.157 199.672 208.751 200.23 209.345 200.813L209.3 200.857L307.165 304.543L408.634 205.781C410.029 204.615 411.398 203.411 412.729 202.118C440.932 174.665 441.888 129.201 414.861 100.569Z" fill="#E5AF83"/>
<path d="M399.242 102.096C372.214 73.4637 327.436 72.5067 299.233 99.9602C298.134 101.031 297.094 102.134 296.08 103.256L295.809 102.97L295.764 103.015C295.215 102.381 294.666 101.747 294.091 101.152C267.063 72.5194 222.291 71.5624 194.082 99.0412C165.878 126.469 164.922 171.921 191.95 200.566C192.525 201.199 193.126 201.757 193.713 202.346L193.668 202.385L291.539 306.076L393.008 207.315C394.403 206.149 395.779 204.938 397.103 203.646C425.313 176.192 426.269 130.728 399.242 102.096Z" fill="#F4F1EB"/>
<path d="M207.059 350.083L399.764 349.417" stroke="#D1976F" stroke-width="2" stroke-miterlimit="10" stroke-linecap="round"/>
<path d="M207.13 372.061L399.842 371.396" stroke="#D1976F" stroke-width="2" stroke-miterlimit="10" stroke-linecap="round"/>
</svg>
