<svg width="507" height="622" viewBox="0 0 507 622" fill="none" xmlns="http://www.w3.org/2000/svg">
<path d="M29.8691 248.906C29.8691 248.906 28.8198 244.334 36.7192 240.605C44.6186 236.876 93.7735 219.75 170.725 229.162C247.676 238.574 305.467 270.664 297.879 278.732C290.291 286.8 267.705 311.656 209.921 312.638C152.137 313.621 65.4281 299.882 49.6656 288.158C33.9032 276.434 29.8691 248.906 29.8691 248.906Z" fill="#CC793B"/>
<path d="M159.324 180.574C159.324 180.574 153.139 150.981 139.883 139.56C126.627 128.14 114.722 111.727 114.722 111.727C114.722 111.727 105.678 117.599 104.674 127.636C103.671 137.673 91.0919 144.909 71.8062 151.454C52.5205 157.998 48.4404 169.466 48.4404 169.466C48.4404 169.466 69.3259 163.098 79.201 172.542C89.076 181.986 86.1336 195.714 100.355 196.893" fill="#B2721F"/>
<path d="M91.5977 204.554C91.5977 204.554 79.1989 213.742 67.6142 210.613C56.0295 207.483 27.6496 207.399 22.4688 206.352C17.2879 205.306 14.8064 205.332 14.8064 205.332C14.8064 205.332 21.484 214.193 26.0102 219.724C30.5365 225.256 25.7807 238.407 24.2187 245.835C22.6567 253.264 32.6097 257.066 34.5168 262.626C36.4238 268.187 28.2341 284.07 31.146 296.338C34.0579 308.606 35.8764 310.506 35.8764 310.506C35.8764 310.506 35.3969 295.215 50.8271 276.43C66.2574 257.644 83.6326 264.762 91.1259 260.284C95.2137 257.899 99.1252 255.224 102.83 252.279" fill="#B2721F"/>
<path d="M207.679 190.489C207.679 190.489 219.602 162.69 234.854 154.141C250.107 145.592 265.034 131.836 265.034 131.836C265.034 131.836 272.737 139.382 271.733 149.419C270.729 159.456 281.626 169.04 299.235 179.267C316.844 189.495 318.572 201.55 318.572 201.55C318.572 201.55 299.361 191.172 287.811 198.474C276.262 205.776 276.434 219.863 262.268 218.183" fill="#B2721F"/>
<path d="M243.486 214.661C243.486 214.661 253.825 226.128 265.801 225.349C277.776 224.57 305.606 230.106 310.896 230.106C316.187 230.107 318.609 230.629 318.609 230.629C318.609 230.629 310.32 237.988 304.777 242.518C299.234 247.048 301.303 260.876 301.363 268.467C301.423 276.057 290.915 277.808 287.944 282.886C284.974 287.965 289.857 305.15 284.574 316.593C279.292 328.037 277.135 329.518 277.135 329.518C277.135 329.518 280.633 314.624 269.227 293.161C257.821 271.698 239.376 275.223 232.923 269.351C229.389 266.204 226.085 262.809 223.035 259.192" fill="#B2721F"/>
<path d="M168.048 205.131C165.416 209.657 163.759 214.684 163.184 219.888C162.347 228.261 161.961 232.128 163.414 234.562C164.867 236.996 179.716 240.68 182.693 236.49C185.67 232.3 187.839 210.498 184.652 208.488C181.465 206.478 170.063 201.944 168.048 205.131Z" fill="#D89845"/>
<path d="M168.047 205.131C168.047 205.131 162.357 177.463 148.26 165.89C134.164 154.316 124.446 149.962 110.027 158.684C95.6081 167.407 103.822 186.854 103.487 190.208C103.152 193.563 99.1263 199.936 93.7723 202.789C88.4182 205.642 82.5186 220.929 85.5476 229.382C88.5767 237.836 92.4044 250.089 105.666 253.096C118.928 256.103 137.358 257.956 146.585 250.412C155.812 242.867 154.735 236.512 162.732 232.813" fill="#D89845"/>
<path d="M183.571 207.878C183.571 207.878 205.781 183.502 220.012 176.452C234.242 169.402 247.012 160.52 259.586 170.25C272.16 179.98 272.331 195.235 266.631 201.441C260.931 207.647 255.215 210.95 258.578 212.735C261.941 214.519 276.189 224.416 267.971 238.838C259.753 253.26 245.62 264.886 223.087 258.663C200.553 252.441 182.67 236.498 182.67 236.498" fill="#D89845"/>
<path d="M289.627 320.608C289.627 320.608 267.611 326.863 234.833 333.761C213.416 338.258 183.881 336.88 165.96 335.384L165.964 335.342C165.964 335.342 162.998 335.14 158.104 334.662C153.21 334.183 150.264 333.772 150.264 333.772L150.26 333.814C132.418 331.734 103.19 327.237 83.0715 318.586C52.3123 305.347 31.972 294.846 31.972 294.846C31.972 294.846 19.7691 401.613 20.4229 410.352C21.0766 419.091 20.4058 425.8 35.8684 439.201C51.331 452.603 97.2296 467.356 125.803 471.904C130.933 472.719 135.048 473.326 138.375 473.774C139.538 473.986 141.342 474.23 144.118 474.481C146.894 474.732 148.711 474.903 149.888 474.926C153.238 475.144 157.397 475.365 162.587 475.582C191.495 476.781 239.395 471.407 257.21 461.333C275.025 451.259 275.696 444.55 278.067 436.113C280.438 427.677 289.627 320.608 289.627 320.608Z" fill="#A35F31"/>
<path d="M29.8685 248.906C29.8685 248.906 21.0223 288.429 31.146 296.338C41.2696 304.248 84.5356 328.892 131.325 335.266C131.325 335.266 181.296 343.651 227.412 339.789C273.528 335.928 291.825 322.519 293.986 317.656C296.148 312.793 297.878 278.732 297.878 278.732C297.878 278.732 246.446 306.798 190.641 303.422C134.836 300.046 103.317 293.507 29.8685 248.906Z" fill="#C77430"/>
<path d="M168.627 228.831C168.627 228.831 132.165 276.068 127.972 284.117C123.78 292.165 119.989 330.074 120.46 359.249C120.931 388.424 111.939 460.756 114.59 468.442C117.241 476.128 143.348 478.537 154.187 475.488C165.026 472.438 168.385 438.899 169.56 410.227C170.736 381.554 178.919 316.309 180.442 309.691C181.966 303.072 185.446 301.935 183.785 276.256C182.125 250.577 186.321 230.6 186.321 230.6" fill="#D89845"/>
<path d="M-115.356 329.212L-114.511 439.388C-114.511 439.388 -42.4045 497.407 -34.021 498.245C-25.6375 499.083 -32.8445 503.447 -4.50451 491.032C23.8355 478.617 76.6614 458.502 76.6614 458.502L102.317 354.364L-13.5599 378.344L-115.356 329.212Z" fill="#EA8460"/>
<path d="M-115.358 329.233L-7.02598 296.026L102.315 354.385L-13.5622 378.365L-115.358 329.233Z" fill="#ED8B6E"/>
<path d="M-90.8905 458.097C-90.8905 458.097 -84.5629 351.519 -76.9822 347.753C-69.4015 343.986 -12.2265 314.153 -12.2265 314.153L9.23947 319.687C9.23947 319.687 -44.4345 353.729 -48.8559 361.527C-53.2773 369.325 -58.5723 482.65 -58.5723 482.65" fill="#C1674C"/>
<path d="M-7.92007 330.821C-7.92007 330.821 33.4327 357.683 38.7801 367.531C44.1275 377.378 27.7694 477.652 27.7694 477.652L57.4842 465.919C57.4842 465.919 73.6476 368.966 71.1251 360.839C68.6026 352.711 9.24142 319.672 9.24142 319.672" fill="#C1674C"/>
<path d="M17.1207 291.664C17.1207 291.664 25.1707 278.922 41.2693 270.368C57.368 261.814 60.8899 260.475 68.2677 271.371C75.6456 282.267 74.8097 307.596 70.449 317.324C66.0883 327.052 63.741 350.528 45.2941 348.684C26.8472 346.839 21.3182 334.421 16.6188 330.568C11.9194 326.715 11.1339 324.898 6.58415 324.464C6.58153 324.49 -5.34627 296.194 17.1207 291.664Z" fill="#B74C34"/>
<path d="M-0.818137 284.791C-0.818137 284.791 -8.7007 295.859 -9.53894 304.242C-10.3772 312.626 -12.8932 320.82 -4.67237 323.339C3.54843 325.857 6.58417 324.464 6.58417 324.464C6.58417 324.464 4.88271 312.46 9.24337 302.732C13.604 293.004 17.1207 291.664 17.1207 291.664C17.1207 291.664 8.06876 280.595 -0.818137 284.791Z" fill="#B74C34"/>
<path d="M73.8174 300.029C73.8174 300.029 83.1966 291.49 95.27 289.309C107.343 287.128 112.042 290.986 119.081 288.307L126.125 285.623C126.125 285.623 120.759 305.409 108.518 309.265C96.2772 313.12 99.4529 325.076 108.011 327.713C116.568 330.35 118.817 341.796 119.369 353.194C119.921 364.592 117.985 367.036 117.985 367.036C117.985 367.036 108.493 356.668 98.7792 354.016C89.0654 351.364 87.2244 352.86 79.171 348.667C71.1176 344.474 65.1831 332.675 65.1831 332.675" fill="#993726"/>
<path d="M-0.817873 284.791C-0.817873 284.791 -6.84364 260.478 -17.9265 252.594C-29.0094 244.71 -33.8355 242.546 -42.579 245.044C-51.3225 247.542 -52.6291 260.979 -56.4968 265.672C-60.3646 270.365 -68.064 279.759 -65.5502 305.418C-63.0364 331.076 -59.1465 334.832 -46.5043 331.033C-33.8621 327.233 -22.8977 316.479 -10.8484 315.966" fill="#B74C34"/>
<path d="M327.193 378.074C325.635 376.272 303.996 352.046 274.646 365.964C264.239 370.894 258.551 378.667 255.714 387.207C254.58 390.685 253.848 394.3 253.536 397.97C252.685 407.233 254.152 416.394 255.774 423.047L255.796 423.121C256.11 424.118 259.545 434.902 264.796 442.893C274.213 456.983 291.785 477.276 312.939 491.373C309.861 484.621 307.309 477.607 305.307 470.402C295.455 434.691 307.957 412.93 317.196 398.871C322.172 390.277 330.153 383.338 342.851 381.731C374.698 377.691 388.787 407.653 389.793 409.889C391.841 409.176 393.933 408.622 396.054 408.231C396.056 397.184 392.366 385.786 380.856 377.15C354.824 357.609 329.519 376.274 327.193 378.074ZM256.917 402.726C261.04 361.207 301.096 366.724 301.096 366.724C267.373 367.118 256.917 402.726 256.917 402.726Z" fill="#42210B"/>
<path d="M248.658 419.105C249.239 409.638 253.532 397.968 253.532 397.968C253.844 394.298 254.575 390.682 255.709 387.204C253.198 394.963 248.211 411.485 248.658 419.105Z" fill="#754C24"/>
<path d="M253.532 397.968C253.532 397.968 249.24 409.638 248.659 419.105C248.56 420.514 248.57 421.93 248.689 423.337C249.588 433.096 252.598 473.901 310.626 512.575C310.626 512.575 310.726 512.55 310.915 512.493L310.901 512.435L315.869 497.499C314.87 495.532 313.885 493.495 312.936 491.385C291.788 477.269 274.214 456.995 264.8 442.895C261.232 437.564 258.839 433.124 257.863 430.232C257.268 428.491 256.519 426.048 255.804 423.114L255.782 423.04C254.156 416.385 252.689 407.224 253.544 397.963L253.532 397.968Z" fill="#754C24"/>
<path d="M301.098 366.725C301.098 366.725 261.046 361.215 256.918 402.727C256.916 402.726 267.372 367.118 301.098 366.725Z" fill="#42210B"/>
<path d="M264.799 442.895C259.549 434.904 256.115 424.121 255.8 423.123C256.514 426.057 257.263 428.5 257.858 430.241C258.835 433.131 261.228 437.573 264.799 442.895Z" fill="#754C24"/>
<path d="M309.272 430.39C309.595 421.649 311.271 409.086 317.197 398.869C307.96 412.929 295.456 434.689 305.307 470.402C307.305 477.611 309.855 484.63 312.93 491.385C314.191 492.227 315.465 493.046 316.752 493.843C320.771 492.372 324.723 490.684 328.59 488.828C321.098 475.461 315.654 462.229 312.494 452.18C312.494 452.18 312.487 452.16 312.485 452.151C310.536 445.942 309.457 440.948 309.303 437.888C309.212 436.043 309.161 433.481 309.272 430.464L309.272 430.39Z" fill="#754C24"/>
<path d="M389.794 409.884C388.788 407.648 374.699 377.687 342.852 381.726C330.153 383.336 322.172 390.275 317.197 398.867C311.272 409.083 309.596 421.647 309.273 430.388L309.273 430.46C309.306 431.66 309.661 442.922 312.487 452.147C312.487 452.147 312.5 452.153 312.495 452.176C315.655 462.225 321.099 475.457 328.592 488.823C330.015 488.144 331.424 487.441 332.821 486.716C325.678 474.033 320.552 461.464 317.691 452.123C317.348 451.15 317.059 450.155 316.825 449.145C315.757 445.256 315.159 442.099 315.062 439.975C314.877 435.971 314.985 431.957 315.385 427.971L315.386 427.928C316.128 420.435 318.054 411.37 322.622 403.824C327.19 396.278 334.34 390.308 345.575 388.876C374.525 385.206 387.355 412.418 388.27 414.489C390.742 413.637 393.281 413.025 395.855 412.662C395.977 411.194 396.046 409.714 396.044 408.221C393.927 408.615 391.838 409.171 389.794 409.884Z" fill="#8C6239"/>
<path d="M312.486 452.149C309.671 442.929 309.305 431.662 309.273 430.462C309.162 433.479 309.213 436.04 309.304 437.885C309.46 440.939 310.536 445.94 312.486 452.149Z" fill="#754C24"/>
<path d="M322.611 403.821C318.045 411.368 316.117 420.432 315.374 427.927L315.373 427.971C315.333 428.772 314.776 440.509 316.824 449.15C317.084 450.097 317.373 451.096 317.69 452.128C320.552 461.466 325.682 474.037 332.817 486.727C349.234 478.236 363.702 467.096 373.508 457.832C385.407 446.391 390.794 433.146 391.565 431.149C391.636 430.979 391.661 430.889 391.661 430.889C392.071 429.761 392.471 428.585 392.859 427.364C388.76 427.906 384.697 428.726 380.694 429.821C380.694 429.821 366.97 382.58 322.614 403.825L322.611 403.821Z" fill="#42210B"/>
<path d="M388.279 414.498C387.35 412.407 374.523 385.21 345.584 388.886C334.35 390.313 327.175 396.315 322.619 403.831C366.975 382.586 380.699 429.826 380.699 429.826C384.702 428.732 388.765 427.911 392.864 427.369C394.395 422.615 395.403 417.684 395.869 412.677C393.293 413.038 390.753 413.648 388.279 414.498Z" fill="#512710"/>
<path d="M315.374 427.969C314.974 431.954 314.866 435.968 315.051 439.972C315.158 442.101 315.756 445.259 316.814 449.142C314.774 440.5 315.332 428.775 315.374 427.969Z" fill="#8C6239"/>
<path d="M315.865 497.497C317.721 501.148 319.637 504.552 321.549 507.694C331.65 524.316 341.586 533.666 341.586 533.666L342.725 533.716L348.446 517.451C348.397 517.391 348.346 517.339 348.299 517.275C340.681 508.522 334.087 498.628 328.59 488.83C324.723 490.686 320.771 492.375 316.752 493.845C315.464 493.052 314.19 492.233 312.93 491.388C313.881 493.493 314.866 495.53 315.865 497.497Z" fill="#754C24"/>
<path d="M315.865 497.497L310.897 512.432L310.91 512.491C312.142 512.124 317.087 510.554 321.544 507.692C319.637 504.552 317.721 501.148 315.865 497.497Z" fill="#633E20"/>
<path d="M350.524 512.197C343.701 504.349 337.776 495.507 332.82 486.718C331.424 487.443 330.013 488.15 328.591 488.826C334.084 498.635 340.683 508.518 348.3 517.271C372.446 516.475 396.698 508.341 412.366 500.74C427.351 493.313 436.202 481.849 436.999 480.793C437.01 480.777 437.022 480.761 437.034 480.746L437.05 480.708C440.707 475.745 444.408 469.564 446.732 462.656L446.737 462.643C450.452 451.577 450.615 438.648 441.352 425.922C426.58 405.635 406.287 406.265 396.049 408.223C396.051 409.716 395.98 411.2 395.859 412.664C405.619 411.211 422.607 411.794 435.191 429.089C444.528 441.912 443.338 454.96 438.891 465.687C436.697 470.986 433.708 475.721 430.797 479.583C430.788 479.597 430.778 479.609 430.767 479.621C428.404 482.764 425.817 485.702 423.027 488.409C420.811 490.539 416.29 493.455 410.16 496.509C409.26 496.99 408.349 497.436 407.433 497.833C407.35 497.874 407.267 497.908 407.185 497.945C392.909 504.616 371.668 511.503 350.524 512.197Z" fill="#8C6239"/>
<path d="M373.511 457.823C363.705 467.087 349.227 478.222 332.82 486.718C337.775 495.507 343.7 504.349 350.523 512.197C371.663 511.501 392.909 504.616 407.181 497.943C407.262 497.906 407.345 497.872 407.429 497.831C408.371 497.388 409.28 496.946 410.156 496.507C420.799 490.84 430.135 480.328 430.77 479.623C430.782 479.611 430.792 479.599 430.801 479.586C433.713 475.724 436.703 470.989 438.894 465.689C438.834 461.232 437.056 421.708 392.866 427.365C392.48 428.579 392.081 429.755 391.668 430.89C391.668 430.89 391.632 430.974 391.572 431.15C389.977 435.499 388.053 439.699 385.817 443.708C384.003 446.913 379.675 452.002 373.511 457.823Z" fill="#42210B"/>
<path d="M348.448 517.446L342.726 533.711C370.531 534.711 402.654 522.212 421.326 508.378C439.824 494.675 446.457 464.042 446.741 462.658C444.417 469.566 440.716 475.747 437.059 480.71L437.043 480.748C437.03 480.763 437.019 480.778 437.008 480.794C434.274 484.501 431.257 487.956 427.99 491.123C425.377 493.63 419.857 497.124 412.375 500.742C396.697 508.341 372.446 516.475 348.302 517.272C348.347 517.334 348.399 517.387 348.448 517.446Z" fill="#633E20"/>
<path d="M391.567 431.143C390.797 433.14 385.411 446.385 373.51 457.826C379.674 452.005 383.999 446.922 385.815 443.701C388.05 439.692 389.974 435.492 391.567 431.143Z" fill="#42210B"/>
<path d="M395.865 412.667C395.4 417.674 394.391 422.605 392.86 427.359C437.059 421.706 438.837 461.23 438.889 465.683C443.337 454.957 444.526 441.908 435.189 429.086C422.617 411.799 405.617 411.209 395.865 412.667Z" fill="#512710"/>
<path d="M430.771 479.623C430.144 480.332 420.799 490.84 410.156 496.507C416.285 493.453 420.806 490.537 423.023 488.407C425.815 485.702 428.405 482.765 430.771 479.623Z" fill="#8C6239"/>
<path d="M427.981 491.122C431.248 487.954 434.265 484.499 436.999 480.793C436.202 481.849 427.35 493.313 412.366 500.741C419.847 497.123 425.367 493.628 427.981 491.122Z" fill="#633E20"/>
<path d="M257.391 373.774C249.276 375.355 248.699 377.777 248.699 377.777C248.699 377.777 250.856 381.243 261.281 380.755L261.368 380.852C265.943 376.298 272.704 376.308 272.966 376.314C268.983 374.942 263.755 372.532 257.391 373.774Z" fill="#D3695B"/>
<path d="M258.516 385.14C254.768 394.114 253.342 400.424 250.331 400.839C250.331 400.839 256.256 406.608 261.257 408.276C266.258 409.944 267.388 408.378 267.388 408.378C267.388 408.378 266.125 397.73 270.79 392.856C275.455 387.982 277.406 379.616 277.406 379.616C277.174 379.395 276.967 379.146 276.788 378.873C266.845 384.417 264.863 390.27 264.824 390.388C266.616 383.663 276.149 378.438 276.44 378.283C276.361 378.119 276.288 377.953 276.217 377.776L275.959 377.128C274.944 376.958 273.946 376.689 272.976 376.325C272.723 376.323 265.953 376.309 261.379 380.863C260.166 382.065 259.192 383.52 258.516 385.14Z" fill="#D87764"/>
<path d="M276.438 378.282C276.147 378.437 266.615 383.654 264.822 390.386C264.869 390.273 266.847 384.418 276.786 378.872C276.662 378.683 276.547 378.486 276.442 378.284C276.442 378.284 276.44 378.278 276.438 378.282Z" fill="#C4625B"/>
<path d="M274.468 371.266C274.282 371.655 274.32 372.289 274.495 373.026C274.596 373.449 274.739 373.915 274.903 374.405C275.2 375.271 275.58 376.217 275.945 377.115L276.212 377.773C276.283 377.95 276.356 378.116 276.434 378.28C276.54 378.482 276.655 378.679 276.779 378.868C276.957 379.141 277.164 379.39 277.397 379.611C278.711 380.865 280.388 380.714 281.269 379.897C281.416 379.746 281.536 379.565 281.621 379.365C281.858 378.771 282.013 378.143 282.079 377.501C282.113 377.244 282.143 376.965 282.165 376.686C282.188 376.407 282.197 376.05 282.197 375.733C282.198 375.415 282.191 375.073 282.167 374.746C282.155 374.563 282.137 374.379 282.119 374.198C282.058 373.525 281.905 372.866 281.664 372.243C281.592 372.066 281.503 371.899 281.397 371.744C281.325 371.635 281.238 371.538 281.138 371.457C280.987 371.323 280.81 371.227 280.621 371.174C279.857 370.952 279.126 371.545 278.56 371.89C278.56 371.89 279.482 375.915 278.731 376.959C278.731 376.959 278.672 373.131 277.831 372.065C277.777 372.031 277.732 371.983 277.701 371.925C277.16 371.059 275.384 370.837 275.384 370.837C274.908 370.795 274.616 370.96 274.468 371.266Z" fill="#D3695B"/>
<path d="M274.497 373.027C267.866 367.926 261.789 369.596 261.505 369.678C266.564 368.998 274.583 374.204 274.906 374.404C274.741 373.916 274.598 373.45 274.497 373.027Z" fill="#C4625B"/>
<path d="M278.738 376.957C279.485 375.912 278.567 371.888 278.567 371.888C278.275 372.064 278.026 372.173 277.842 372.065C278.679 373.13 278.738 376.957 278.738 376.957Z" fill="#BF5552"/>
<path d="M290.769 369.892C290.505 369.879 290.241 369.88 289.977 369.895C288.641 370.02 285.763 370.805 282.162 374.739C282.186 375.065 282.195 375.395 282.192 375.725C282.225 375.712 282.259 375.702 282.294 375.695C283.944 374.939 290.958 375.039 294.347 374.103C297.735 373.168 302.229 366.908 303.347 365.339C304.465 363.77 305.927 364.867 305.927 364.867C305.642 362.504 304.371 360.265 301.908 358.718C301.315 358.449 300.782 358.048 300.345 357.539C299.908 357.031 299.578 356.428 299.376 355.771C298.671 353.514 295.388 351.621 292.114 353.477C288.84 355.332 282.079 360.968 280.651 371.038L280.616 371.161C280.805 371.213 280.982 371.31 281.133 371.444C281.232 371.525 281.32 371.621 281.392 371.731C286.172 364.11 290.021 363.416 290.021 363.416C283.473 367.138 281.669 372.237 281.669 372.237C281.909 372.861 282.063 373.52 282.123 374.192C282.123 374.192 285.539 370.123 289.986 369.897C290.246 369.865 290.509 369.864 290.769 369.892Z" fill="#DD816A"/>
<path d="M281.668 372.239C281.668 372.239 283.473 367.138 290.021 363.419C290.021 363.419 286.171 364.112 281.4 371.743C281.506 371.897 281.596 372.064 281.668 372.239Z" fill="#C4625B"/>
<path d="M293.667 383.137C288.296 381.996 282.161 376.684 282.161 376.684C282.147 376.967 282.12 377.239 282.074 377.499C289.768 383.336 293.667 383.137 293.667 383.137Z" fill="#C4625B"/>
<path d="M282.161 376.684C282.161 376.684 288.29 381.993 293.668 383.137C293.668 383.137 289.771 383.337 282.083 377.503C282.017 378.145 281.863 378.773 281.625 379.367L281.644 379.376C281.644 379.376 284.283 379.487 285.312 384.515C286.342 389.543 291.098 400.178 304.335 404.943C304.539 403.559 304.972 402.226 305.615 401.008C306.687 398.977 310.216 391.91 309.934 385.835C309.934 385.835 308.139 387.26 303.997 385.477C301.174 384.261 295.646 379.053 289.875 376.646C287.327 375.588 284.731 375.073 282.296 375.696C282.262 375.703 282.228 375.713 282.195 375.726C282.201 376.052 282.182 376.371 282.161 376.684Z" fill="#D87764"/>
<path d="M282.162 374.739C285.763 370.805 288.641 370.02 289.978 369.895C285.53 370.121 282.114 374.19 282.114 374.19C282.139 374.374 282.15 374.555 282.162 374.739Z" fill="#C4625B"/>
<path d="M294.347 374.109C290.958 375.058 283.935 374.943 282.294 375.7C284.728 375.078 287.325 375.593 289.873 376.651C289.873 376.651 295.453 377.954 301.147 374.354C304.55 372.197 306.358 368.392 305.935 364.876C305.935 364.876 304.48 363.783 303.355 365.349C302.231 366.915 297.729 373.171 294.347 374.109Z" fill="#D3695B"/>
</svg>
