<svg width="390" height="321" viewBox="0 0 390 321" fill="none" xmlns="http://www.w3.org/2000/svg">
<path d="M369.021 254.83C369.021 254.83 327.361 336.275 221.398 317.515C115.436 298.754 78.2995 314.77 29.3898 269.016C-19.5198 223.262 -1.40067 78.6697 48.8644 46.1864C99.1295 13.7031 193.319 -21.9927 272.567 18.2775C351.816 58.5476 426.078 117.105 369.021 254.83Z" fill="#C77430"/>
<path d="M247.96 236.616C248.086 239.636 238.703 238.695 240.416 235.28C242.129 231.865 245.065 232.052 245.065 232.052C246.238 233.434 247.212 234.97 247.96 236.616V236.616Z" fill="#F3F0EA"/>
<path d="M240.968 259.576C240.963 259.807 240.877 260.029 240.726 260.205V260.205C239.344 260.834 235.835 256.753 236.975 255.059C238.115 253.364 240.726 254.419 240.726 254.419C240.868 256.951 240.968 259.072 240.968 259.576Z" fill="#F3F0EA"/>
<path d="M223.279 196.294C236.413 187.815 234.133 189.536 232.42 194.032C230.776 198.368 229.126 215.184 230.513 218.536C217.752 209.783 200.348 202.422 200.348 202.422C205.491 199.496 213.954 202.313 223.279 196.294Z" fill="#D89C73"/>
<path d="M235.667 262.721C235.399 265.393 234.722 268.839 232.988 269.182C232.741 269.23 232.489 269.255 232.237 269.255H232.195C231.417 269.203 229.568 265.2 230.703 263.537C231.837 261.873 235.667 262.721 235.667 262.721Z" fill="#F3F0EA"/>
<path d="M229.72 268.74C230.655 271.339 231.822 275.898 228.99 277.094C228.801 277.172 228.606 277.232 228.407 277.276C225.559 276.881 223.852 272.571 224.425 270.877C224.997 269.182 229.72 268.74 229.72 268.74Z" fill="#F3F0EA"/>
<path d="M216.308 269.104C217.926 270.757 216.96 271.63 215.026 271.5C213.093 271.371 210.724 269.562 210.514 268.719C210.303 267.877 211.155 267.519 213.083 267.643C214.293 267.757 215.43 268.271 216.308 269.104V269.104Z" fill="#F7E4C1"/>
<path d="M213.676 254.601C215.962 256.862 215.048 258.666 212.762 259.118C210.477 259.571 207.288 257.31 206.831 255.958C206.374 254.607 207.288 253.697 209.568 253.245C211.848 252.792 213.676 254.601 213.676 254.601Z" fill="#F7E4C1"/>
<path d="M213.083 267.628C211.157 267.503 210.3 267.862 210.514 268.704C210.724 269.546 213.093 271.36 215.027 271.485C216.96 271.61 217.927 270.742 216.309 269.089C215.43 268.256 214.294 267.741 213.083 267.628V267.628ZM219.282 272.01C212.978 274.833 208.434 268.054 208.434 268.054C211.843 266.755 213.571 262.404 213.571 262.404C214.455 262.624 215.311 262.939 216.125 263.345C217.701 264.109 219.524 265.424 220.427 267.503C222.14 271.443 219.282 272.01 219.282 272.01V272.01Z" fill="#E0A379"/>
<path d="M208.433 249.97C208.433 249.97 215.856 249.97 217.001 254.492C218.146 259.014 216.124 263.329 216.124 263.329C215.31 262.923 214.454 262.608 213.57 262.388C213.57 262.388 217.001 258.999 215.856 255.043C214.71 251.087 206.72 251.087 206.72 251.087C206.72 251.087 206.688 250.962 206.61 250.744C206.21 249.554 204.55 245.666 200.059 245.328C200.248 245.328 205.076 244.99 208.433 249.97Z" fill="#E5AE80"/>
<path d="M206.72 251.103C206.72 251.103 214.716 251.103 215.856 255.059C216.996 259.015 213.571 262.404 213.571 262.404C213.571 262.404 211.843 266.755 208.433 268.054C201.01 270.877 195.299 264.098 195.299 264.098L195.263 263.906L195.599 263.818C195.599 263.818 197.317 262.684 201.903 258.729C206.489 254.773 206.474 250.822 206.474 250.822L206.647 250.76C206.689 250.978 206.72 251.103 206.72 251.103ZM213.676 254.601C213.676 254.601 211.848 252.792 209.568 253.245C207.288 253.697 206.374 254.601 206.831 255.958C207.288 257.315 210.508 259.571 212.762 259.119C215.016 258.666 215.961 256.863 213.676 254.601Z" fill="#E0A379"/>
<path d="M206.436 250.822C206.436 250.822 206.436 254.773 201.866 258.729C197.295 262.684 195.562 263.818 195.562 263.818L195.262 263.906C194.753 264.03 194.238 264.125 193.718 264.192C185.79 265.231 183.321 257.881 183.321 257.881C183.903 257.396 184.291 256.722 184.414 255.979C184.839 254.776 185.047 253.51 185.029 252.236C186.167 252.194 187.28 251.897 188.286 251.368C189.468 250.791 190.434 250.016 190.739 249.414C191.312 248.28 194.17 246.586 194.17 246.586C196.534 245.546 198.472 245.224 200.059 245.349C204.55 245.686 206.211 249.575 206.61 250.765L206.436 250.822ZM202.439 254.773C205.291 254.211 206.436 251.95 203.579 249.122C203.579 249.122 201.293 246.866 198.441 247.428C195.588 247.989 194.443 249.122 195.015 250.822C195.588 252.522 199.581 255.339 202.439 254.773V254.773Z" fill="#E0A379"/>
<path d="M203.579 249.122C206.437 251.95 205.292 254.211 202.439 254.773C199.587 255.334 195.61 252.517 195.016 250.822C194.423 249.128 195.584 247.994 198.441 247.428C201.299 246.861 203.579 249.122 203.579 249.122Z" fill="#F7E4C1"/>
<path d="M197.617 205.078C197.932 221.484 194.464 231.043 189.873 233.304C185.281 235.566 180.601 232.052 180.601 232.052C181.912 231.986 183.208 231.741 184.451 231.324C191.874 229.068 193.014 223.979 195.872 209.856C196.163 208.174 196.754 206.556 197.617 205.078Z" fill="#E5AE80"/>
<path d="M188.16 267.773C191.59 267.207 198.141 268.896 194.874 274.531C191.89 275.685 187.487 273.554 186.163 273.117C185.948 273.044 185.507 272.894 184.897 272.675C184.897 272.696 184.755 268.335 188.16 267.773Z" fill="#F3F0EA"/>
<path d="M177.847 222.321C177.847 222.321 187.02 218.604 187.02 222.56C187.02 226.516 185.06 230.877 177.469 229.837C177.324 228.641 177.366 227.429 177.595 226.245C177.766 224.949 177.848 223.643 177.842 222.336L177.847 222.321Z" fill="#F7E4C1"/>
<path d="M183.311 257.876C183.795 257.318 184.166 256.672 184.403 255.974C184.28 256.716 183.892 257.391 183.311 257.876V257.876Z" fill="#E0A379"/>
<path d="M188.276 251.363C187.27 251.892 186.157 252.189 185.019 252.231C185.019 252.231 182.917 247.615 178.289 246.341C178.977 246.456 186.479 247.849 188.276 251.363Z" fill="#E5AE80"/>
<path d="M247.272 239.802C245.559 240.369 242.701 240.369 238.703 237.541C239.739 240.058 240.319 242.736 240.416 245.452C240.416 247.62 240.589 251.326 240.742 254.419C240.742 254.419 238.115 253.38 236.991 255.059C235.867 256.738 239.36 260.834 240.742 260.205C240.085 261.021 238.152 261.4 235.846 259.576C235.846 259.576 235.846 260.985 235.667 262.721C235.667 262.721 231.848 261.837 230.702 263.532C229.557 265.226 231.417 269.203 232.194 269.25C230.429 269.25 229.478 267.841 229.137 267.217C229.12 267.175 229.099 267.135 229.074 267.098C229.2 267.373 229.457 267.966 229.731 268.745C229.731 268.745 225.002 269.187 224.435 270.882C223.868 272.576 225.57 276.886 228.417 277.281C224.472 278.159 219.292 272.015 219.292 272.015C219.292 272.015 222.15 271.448 220.437 267.493C219.534 265.413 217.69 264.114 216.135 263.334C216.135 263.334 218.152 259.004 217.012 254.497C215.872 249.991 208.444 249.975 208.444 249.975C205.087 244.995 200.259 245.333 200.07 245.349C198.494 245.224 196.545 245.546 194.18 246.586C194.18 246.586 191.323 248.28 190.75 249.413C190.445 250.016 189.479 250.791 188.297 251.368C186.5 247.854 179.003 246.461 178.315 246.347H178.262C177.496 246.14 176.704 246.037 175.909 246.04C169.631 246.04 170.198 252.252 172.484 254.513C174.769 256.774 180.774 259.591 183.332 257.902C183.332 257.902 185.801 265.232 193.729 264.213C193.729 264.213 199.324 268.075 197.038 272.592C196.611 273.5 195.844 274.208 194.9 274.567C198.173 268.917 191.617 267.228 188.186 267.81C184.756 268.392 184.924 272.732 184.924 272.732C180.721 271.251 168.407 266.817 163.91 265.829C158.767 264.701 153.056 260.179 151.916 242.661C150.776 225.143 149.059 218.931 141.068 211.586C133.078 204.241 77.6798 147.171 68.5703 142.087L87.4145 67.4988C92.5103 79.3298 173.03 188.382 174.743 190.092C176.455 191.802 181.33 193.84 181.33 193.84L181.021 194.615C181.021 194.615 177.59 209.305 177.59 213.26C177.59 216 177.868 219.28 177.837 222.347C177.843 223.654 177.761 224.96 177.59 226.256C177.361 227.439 177.319 228.651 177.464 229.848C177.727 231.194 178.562 232.088 180.616 232.067C180.616 232.067 185.344 235.581 189.888 233.32C194.433 231.059 197.947 221.499 197.632 205.094C198.299 203.993 199.239 203.078 200.364 202.438C200.364 202.438 217.768 209.804 230.529 218.552C233.445 220.505 236.184 222.705 238.714 225.128C239.625 226.022 240.455 226.866 241.204 227.659C242.806 229.349 244.078 230.778 245.076 232.067C245.076 232.067 242.139 231.906 240.427 235.295C238.714 238.685 248.097 239.651 247.971 236.631C248.806 238.705 248.107 239.527 247.272 239.802Z" fill="#EAB88B"/>
<path d="M179.834 254.487C181.494 256.696 180.154 257.221 177.832 256.431C175.51 255.641 172.967 253.011 172.857 252.096C172.747 251.181 173.86 251.124 176.188 251.919C177.617 252.43 178.878 253.318 179.834 254.487Z" fill="#F7E4C1"/>
<path d="M177.842 222.321C177.874 219.254 177.595 215.974 177.595 213.234C177.595 209.279 181.026 194.589 181.026 194.589L181.336 193.814C181.63 193.092 182.197 191.678 183.306 188.938C185.591 183.288 201.583 177.071 210.146 171.987C218.709 166.903 295.52 67.1818 295.52 67.1818L310.082 136.4C304.372 143.158 255.83 186.687 252.405 190.643C249.305 194.225 242.46 222.352 241.188 227.644C240.439 226.85 239.609 226.006 238.698 225.112C236.168 222.689 233.429 220.489 230.513 218.537C229.126 215.184 230.776 198.368 232.42 194.032C234.133 189.515 236.413 187.795 223.279 196.294C213.955 202.313 205.491 199.496 200.348 202.417C199.223 203.057 198.283 203.972 197.616 205.073V205.073C196.754 206.551 196.163 208.168 195.872 209.85C193.014 223.974 191.874 229.084 184.451 231.319C183.208 231.736 181.912 231.981 180.6 232.047C178.567 232.047 177.732 231.173 177.448 229.827C185.039 230.867 186.999 226.516 186.999 222.549C186.999 218.583 177.826 222.31 177.826 222.31L177.842 222.321Z" fill="#E0A379"/>
<path d="M172.457 254.492C170.172 252.231 169.605 246.019 175.883 246.019C176.678 246.016 177.469 246.119 178.236 246.326H178.289C182.896 247.599 185.018 252.215 185.018 252.215C185.037 253.489 184.829 254.756 184.404 255.958C184.167 256.656 183.796 257.302 183.311 257.861V257.861C180.747 259.571 174.743 256.753 172.457 254.492ZM172.857 252.096C172.967 253.011 175.483 255.636 177.832 256.431C180.18 257.226 181.509 256.696 179.833 254.487C178.878 253.318 177.617 252.43 176.187 251.919C173.86 251.124 172.757 251.181 172.857 252.096V252.096Z" fill="#E0A379"/>
<path d="M206.437 250.822C206.437 250.822 206.437 254.773 201.866 258.729C197.295 262.684 195.562 263.818 195.562 263.818L195.262 263.906C194.753 264.03 194.238 264.125 193.718 264.192C185.79 265.232 183.321 257.881 183.321 257.881C183.806 257.323 184.177 256.677 184.414 255.979C184.839 254.777 185.047 253.51 185.029 252.236" stroke="#D1976F" stroke-miterlimit="10"/>
<path d="M213.571 262.404C213.571 262.404 211.843 266.755 208.433 268.054C201.01 270.877 195.3 264.098 195.3 264.098" stroke="#D1976F" stroke-miterlimit="10" stroke-linecap="round"/>
<path d="M224.708 224.826C227.74 225.844 230.524 227.475 232.884 229.615C235.244 231.756 237.127 234.36 238.414 237.26" stroke="#E0A070" stroke-miterlimit="10"/>
<path d="M221.005 234.718C231.281 234.718 234.706 244.319 234.706 250.536C234.706 256.753 235.851 259.576 235.851 259.576" stroke="#E0A070" stroke-miterlimit="10"/>
<path d="M214.144 242.625C220.973 244.886 223.279 248.275 223.852 251.669C224.425 255.064 228.985 266.843 229.105 267.212" stroke="#E0A070" stroke-miterlimit="10"/>
<path d="M87.6563 67.7483L68.5232 34.6152C68.5232 34.6152 48.2081 44.9648 42.2559 51.2493C36.3038 57.5339 27.0524 64.2083 15.6787 93.3544L68.8122 142.331" fill="#EAB88B"/>
<path d="M295.262 67.5664L313.003 41.9447C341.524 58.5788 361.335 84.0498 361.335 84.0498L310.355 136.333C310.355 136.333 287.582 82.6411 295.262 67.5664Z" fill="#E0A379"/>
<path d="M185.727 109.188C184.108 108.809 182.429 108.75 180.787 109.013C179.144 109.277 177.57 109.858 176.155 110.725C174.74 111.591 173.512 112.725 172.54 114.061C171.568 115.398 170.872 116.911 170.492 118.514V118.514C170.429 118.773 170.377 119.033 170.329 119.298H170.266L169.836 119.184C166.566 118.423 163.124 118.977 160.267 120.726C157.41 122.475 155.372 125.274 154.601 128.51V128.51C153.831 131.745 154.392 135.151 156.159 137.977C157.926 140.804 160.756 142.821 164.025 143.584V143.584L164.461 143.673L189.121 149.427L194.9 125.188C195 124.881 195.089 124.575 195.163 124.257C195.544 122.655 195.603 120.994 195.335 119.369C195.067 117.744 194.478 116.187 193.602 114.788C192.725 113.388 191.579 112.173 190.228 111.212C188.877 110.252 187.347 109.564 185.727 109.188Z" fill="white"/>
<path d="M225.56 90.1628C225.044 89.3456 224.371 88.637 223.579 88.0773C222.787 87.5177 221.891 87.1181 220.942 86.9013C219.994 86.6845 219.011 86.6549 218.051 86.814C217.091 86.9732 216.172 87.318 215.347 87.8289V87.8289L214.958 88.0888V88.0576C214.916 87.9796 214.874 87.9068 214.827 87.8341C214.312 87.0169 213.639 86.3082 212.846 85.7486C212.054 85.1889 211.158 84.7893 210.209 84.5725C209.261 84.3558 208.279 84.3261 207.319 84.4853C206.358 84.6444 205.439 84.9893 204.614 85.5001V85.5001C203.788 86.01 203.072 86.6759 202.506 87.4599C201.941 88.2438 201.537 89.1304 201.318 90.0689C201.099 91.0074 201.069 91.9794 201.23 92.9294C201.391 93.8794 201.739 94.7887 202.255 95.6053L202.397 95.8184L210.277 108.258L222.77 100.538C222.933 100.45 223.101 100.362 223.264 100.258C224.919 99.2179 226.089 97.5717 226.52 95.6795C226.95 93.7874 226.605 91.8036 225.56 90.1628V90.1628Z" fill="white"/>
</svg>
