<svg width="396" height="389" viewBox="0 0 396 389" fill="none" xmlns="http://www.w3.org/2000/svg">
<path d="M367.338 112.833C352.355 112.796 337.531 115.912 323.821 121.979C327.45 112.424 329.308 102.283 329.303 92.0562C329.303 41.6155 284.686 0.724854 229.65 0.724854C174.615 0.724854 129.997 41.6155 129.997 92.0562C129.992 101.035 131.423 109.957 134.234 118.481C123.094 114.721 111.416 112.814 99.6627 112.833C44.6273 112.833 0.00976562 153.724 0.00976562 204.164C0.00976562 254.605 44.6273 295.488 99.6627 295.488C111.035 295.505 122.339 293.72 133.156 290.199C132.974 292.424 132.883 294.67 132.883 296.936C132.883 347.377 177.5 388.268 232.536 388.268C287.571 388.268 332.189 347.377 332.189 296.936C332.189 294.444 332.075 291.975 331.862 289.528C343.272 293.494 355.264 295.508 367.338 295.488C422.373 295.488 466.991 254.605 466.991 204.164C466.991 153.724 422.373 112.833 367.338 112.833Z" fill="#E8CCF7"/>
</svg>
