<svg width="443" height="622" viewBox="0 0 443 622" fill="none" xmlns="http://www.w3.org/2000/svg">
<path d="M421.978 248.906C421.978 248.906 423.027 244.334 415.127 240.605C407.228 236.876 358.073 219.75 281.122 229.162C204.171 238.574 146.38 270.664 153.968 278.732C161.556 286.8 184.142 311.656 241.926 312.638C299.71 313.621 386.419 299.882 402.181 288.158C417.943 276.434 421.978 248.906 421.978 248.906Z" fill="#CC793B"/>
<path d="M292.522 180.574C292.522 180.574 298.707 150.981 311.963 139.56C325.218 128.14 337.124 111.727 337.124 111.727C337.124 111.727 346.168 117.599 347.171 127.636C348.175 137.673 360.754 144.909 380.039 151.454C399.325 157.998 403.405 169.466 403.405 169.466C403.405 169.466 382.52 163.098 372.645 172.542C362.77 181.986 365.712 195.714 351.49 196.893" fill="#B2721F"/>
<path d="M360.248 204.554C360.248 204.554 372.647 213.742 384.231 210.613C395.816 207.483 424.196 207.399 429.377 206.352C434.558 205.306 437.039 205.332 437.039 205.332C437.039 205.332 430.362 214.193 425.835 219.724C421.309 225.256 426.065 238.407 427.627 245.835C429.189 253.264 419.236 257.066 417.329 262.626C415.422 268.187 423.612 284.07 420.7 296.338C417.788 308.606 415.969 310.506 415.969 310.506C415.969 310.506 416.449 295.215 401.019 276.43C385.588 257.644 368.213 264.762 360.72 260.284C356.632 257.899 352.721 255.224 349.015 252.279" fill="#B2721F"/>
<path d="M244.168 190.489C244.168 190.489 232.245 162.69 216.992 154.141C201.74 145.592 186.812 131.836 186.812 131.836C186.812 131.836 179.11 139.382 180.114 149.419C181.117 159.456 170.22 169.04 152.612 179.267C135.003 189.495 133.275 201.55 133.275 201.55C133.275 201.55 152.486 191.172 164.035 198.474C175.585 205.776 175.413 219.863 189.579 218.183" fill="#B2721F"/>
<path d="M208.36 214.661C208.36 214.661 198.022 226.128 186.046 225.349C174.07 224.57 146.241 230.106 140.95 230.106C135.66 230.107 133.238 230.629 133.238 230.629C133.238 230.629 141.527 237.988 147.07 242.518C152.613 247.048 150.544 260.876 150.484 268.467C150.423 276.057 160.931 277.808 163.902 282.886C166.873 287.965 161.99 305.15 167.272 316.593C172.555 328.037 174.712 329.518 174.712 329.518C174.712 329.518 171.214 314.624 182.62 293.161C194.026 271.698 212.471 275.223 218.924 269.351C222.457 266.204 225.762 262.809 228.812 259.192" fill="#B2721F"/>
<path d="M283.799 205.131C286.431 209.657 288.087 214.684 288.662 219.888C289.499 228.261 289.886 232.128 288.433 234.562C286.98 236.996 272.131 240.68 269.154 236.49C266.177 232.3 264.007 210.498 267.194 208.488C270.381 206.478 281.783 201.944 283.799 205.131Z" fill="#D89845"/>
<path d="M283.798 205.131C283.798 205.131 289.489 177.463 303.585 165.89C317.682 154.316 327.4 149.962 341.819 158.684C356.238 167.407 348.023 186.854 348.359 190.208C348.694 193.563 352.719 199.936 358.073 202.789C363.427 205.642 369.327 220.929 366.298 229.382C363.269 237.836 359.441 250.089 346.179 253.096C332.918 256.103 314.487 257.956 305.26 250.412C296.033 242.867 297.11 236.512 289.114 232.813" fill="#D89845"/>
<path d="M268.275 207.878C268.275 207.878 246.064 183.502 231.834 176.452C217.603 169.402 204.834 160.52 192.26 170.25C179.686 179.98 179.515 195.235 185.214 201.441C190.914 207.647 196.63 210.95 193.268 212.735C189.905 214.519 175.656 224.416 183.874 238.838C192.092 253.26 206.225 264.886 228.759 258.663C251.292 252.441 269.175 236.498 269.175 236.498" fill="#D89845"/>
<path d="M162.219 320.608C162.219 320.608 184.235 326.863 217.012 333.761C238.43 338.258 267.965 336.88 285.886 335.384L285.882 335.342C285.882 335.342 288.848 335.14 293.742 334.662C298.636 334.183 301.581 333.772 301.581 333.772L301.586 333.814C319.427 331.734 348.656 327.237 368.774 318.586C399.533 305.347 419.874 294.846 419.874 294.846C419.874 294.846 432.077 401.613 431.423 410.352C430.769 419.091 431.44 425.8 415.977 439.201C400.515 452.603 354.616 467.356 326.043 471.904C320.913 472.719 316.798 473.326 313.471 473.774C312.308 473.986 310.504 474.23 307.727 474.481C304.951 474.732 303.134 474.903 301.958 474.926C298.608 475.144 294.449 475.365 289.259 475.582C260.351 476.781 212.45 471.407 194.635 461.333C176.82 451.259 176.149 444.55 173.778 436.113C171.407 427.677 162.219 320.608 162.219 320.608Z" fill="#A35F31"/>
<path d="M421.977 248.906C421.977 248.906 430.823 288.429 420.7 296.338C410.576 304.248 367.31 328.892 320.521 335.266C320.521 335.266 270.55 343.651 224.434 339.789C178.318 335.928 160.021 322.519 157.859 317.656C155.698 312.793 153.967 278.732 153.967 278.732C153.967 278.732 205.4 306.798 261.205 303.422C317.01 300.046 348.529 293.507 421.977 248.906Z" fill="#C77430"/>
<path d="M283.219 228.831C283.219 228.831 319.682 276.068 323.874 284.117C328.067 292.165 331.857 330.074 331.387 359.249C330.916 388.424 339.908 460.756 337.257 468.442C334.606 476.128 308.498 478.537 297.659 475.488C286.821 472.438 283.462 438.899 282.286 410.227C281.111 381.554 272.928 316.309 271.404 309.691C269.881 303.072 266.4 301.935 268.061 276.256C269.722 250.577 265.526 230.6 265.526 230.6" fill="#D89845"/>
<path d="M567.202 329.212L566.358 439.388C566.358 439.388 494.251 497.407 485.867 498.245C477.484 499.083 484.691 503.447 456.351 491.032C428.011 478.617 375.185 458.502 375.185 458.502L349.529 354.364L465.406 378.344L567.202 329.212Z" fill="#EA8460"/>
<path d="M567.204 329.233L458.872 296.026L349.531 354.385L465.408 378.365L567.204 329.233Z" fill="#ED8B6E"/>
<path d="M542.736 458.097C542.736 458.097 536.409 351.519 528.828 347.753C521.247 343.986 464.072 314.153 464.072 314.153L442.606 319.687C442.606 319.687 496.28 353.729 500.702 361.527C505.123 369.325 510.418 482.65 510.418 482.65" fill="#C1674C"/>
<path d="M459.767 330.821C459.767 330.821 418.414 357.683 413.067 367.531C407.719 377.378 424.077 477.652 424.077 477.652L394.363 465.919C394.363 465.919 378.199 368.966 380.722 360.839C383.244 352.711 442.605 319.672 442.605 319.672" fill="#C1674C"/>
<path d="M434.725 291.664C434.725 291.664 426.675 278.922 410.576 270.368C394.478 261.814 390.956 260.475 383.578 271.371C376.2 282.267 377.036 307.596 381.397 317.324C385.757 327.052 388.105 350.528 406.552 348.684C424.998 346.839 430.527 334.421 435.227 330.568C439.926 326.715 440.712 324.898 445.262 324.464C445.264 324.49 457.192 296.194 434.725 291.664Z" fill="#B74C34"/>
<path d="M452.664 284.791C452.664 284.791 460.546 295.859 461.385 304.242C462.223 312.626 464.739 320.82 456.518 323.339C448.297 325.857 445.262 324.464 445.262 324.464C445.262 324.464 446.963 312.46 442.602 302.732C438.242 293.004 434.725 291.664 434.725 291.664C434.725 291.664 443.777 280.595 452.664 284.791Z" fill="#B74C34"/>
<path d="M378.029 300.029C378.029 300.029 368.65 291.49 356.577 289.309C344.503 287.128 339.804 290.986 332.766 288.307L325.721 285.623C325.721 285.623 331.088 305.409 343.329 309.265C355.569 313.12 352.394 325.076 343.836 327.713C335.278 330.35 333.029 341.796 332.478 353.194C331.926 364.592 333.862 367.036 333.862 367.036C333.862 367.036 343.354 356.668 353.068 354.016C362.781 351.364 364.622 352.86 372.676 348.667C380.729 344.474 386.664 332.675 386.664 332.675" fill="#993726"/>
<path d="M204.071 392.502C206.27 392.386 236.311 391.292 247.97 419.886C252.107 430.021 251.211 438.826 247.865 446.216C246.487 449.211 244.745 452.025 242.679 454.594C237.509 461.12 230.797 466.029 225.538 469.221L225.476 469.253C224.639 469.685 215.556 474.32 206.953 475.943C191.674 478.7 166.894 479.986 143.488 474.892C149.816 472.611 155.944 469.809 161.809 466.516C190.833 450.148 195.711 427.789 198.059 412.565C199.959 403.709 198.749 393.905 190.961 384.373C171.43 360.46 143.049 370.295 140.962 371.059C139.988 369.231 138.885 367.474 137.66 365.803C144.527 358.698 154.169 353.839 167.505 355.99C197.673 360.85 203.581 389.788 204.071 392.502ZM237.382 455.39C260.346 425.934 229.191 402.671 229.191 402.671C252.287 425.496 237.382 455.39 237.382 455.39Z" fill="#42210B"/>
<path d="M232.913 471.448C238.398 464.972 242.683 454.596 242.683 454.596C244.75 452.027 246.491 449.213 247.869 446.217C244.783 452.887 237.961 466.849 232.913 471.448Z" fill="#754C24"/>
<path d="M242.684 454.596C242.684 454.596 238.399 464.972 232.914 471.448C232.106 472.42 231.219 473.324 230.262 474.149C223.571 479.823 196.115 504.045 131.905 490.073C131.905 490.073 131.852 489.989 131.756 489.827L131.802 489.798L137.651 476.87C139.565 476.273 141.514 475.623 143.482 474.902C166.897 479.98 191.667 478.706 206.95 475.941C212.734 474.901 217.151 473.649 219.625 472.443C221.119 471.721 223.157 470.652 225.476 469.243L225.537 469.211C230.801 466.02 237.512 461.111 242.679 454.584L242.684 454.596Z" fill="#754C24"/>
<path d="M229.189 402.67C229.189 402.67 260.336 425.935 237.38 455.389C237.382 455.39 252.287 425.496 229.189 402.67Z" fill="#42210B"/>
<path d="M206.95 475.941C215.552 474.318 224.634 469.682 225.473 469.252C223.154 470.66 221.116 471.73 219.622 472.451C217.149 473.655 212.731 474.91 206.95 475.941Z" fill="#754C24"/>
<path d="M183.945 438.135C189.156 432.298 195.808 423.098 198.06 412.563C195.711 427.786 190.835 450.146 161.81 466.516C155.944 469.814 149.815 472.62 143.486 474.906C142.09 474.603 140.699 474.277 139.313 473.927C137.446 470.292 135.76 466.561 134.238 462.78C147.735 459.2 159.73 454.336 168.166 449.989C168.166 449.989 168.183 449.981 168.19 449.976C173.4 447.289 177.253 444.8 179.261 442.935C180.472 441.81 182.1 440.197 183.899 438.182L183.945 438.135Z" fill="#754C24"/>
<path d="M140.964 371.055C143.05 370.291 171.432 360.456 190.962 384.369C198.75 393.903 199.959 403.707 198.06 412.561C195.808 423.096 189.156 432.296 183.945 438.133L183.9 438.178C183.131 438.929 175.882 445.932 168.191 449.972C168.191 449.972 168.178 449.968 168.167 449.985C159.731 454.331 147.736 459.196 134.239 462.775C133.676 461.386 133.138 459.991 132.622 458.59C145.452 455.215 156.815 450.565 164.603 446.474C165.446 446.077 166.264 445.631 167.055 445.139C170.212 443.353 172.589 441.723 173.977 440.422C176.595 437.971 179.015 435.318 181.217 432.488L181.244 432.459C185.389 427.145 189.693 420.027 191.223 412.118C192.753 404.208 191.518 395.584 184.631 387.143C166.877 365.407 141.077 374.316 139.156 375.036C137.974 372.833 136.598 370.741 135.042 368.784C135.87 367.759 136.743 366.761 137.672 365.802C138.893 367.473 139.993 369.228 140.964 371.055Z" fill="#8C6239"/>
<path d="M168.19 449.974C175.872 445.93 183.131 438.931 183.9 438.18C182.101 440.195 180.472 441.808 179.262 442.933C177.256 444.791 173.401 447.287 168.19 449.974Z" fill="#754C24"/>
<path d="M191.233 412.124C189.701 420.032 185.399 427.151 181.253 432.467L181.226 432.496C180.755 433.038 173.843 440.958 167.053 445.143C166.284 445.577 165.463 446.026 164.602 446.478C156.814 450.567 145.447 455.216 132.619 458.6C126.536 442.152 123.449 425.306 122.422 412.786C121.301 397.465 125.808 385.343 126.516 383.543C126.573 383.386 126.611 383.312 126.611 383.312C127.029 382.312 127.483 381.289 127.974 380.243C130.474 383.335 132.776 386.582 134.866 389.965C134.866 389.965 173.739 368.776 191.228 412.124L191.233 412.124Z" fill="#42210B"/>
<path d="M139.144 375.036C141.088 374.313 166.876 365.411 184.619 387.144C191.507 395.58 192.742 404.242 191.221 412.124C173.732 368.776 134.86 389.965 134.86 389.965C132.77 386.582 130.468 383.335 127.967 380.243C129.864 376.161 132.232 372.316 135.023 368.785C136.581 370.741 137.96 372.833 139.144 375.036Z" fill="#512710"/>
<path d="M181.227 432.494C179.025 435.324 176.605 437.977 173.987 440.428C172.589 441.725 170.212 443.355 167.065 445.144C173.85 440.953 180.755 433.04 181.227 432.494Z" fill="#8C6239"/>
<path d="M137.655 476.871C134.1 477.977 130.656 478.883 127.38 479.624C110.053 483.55 97.3622 482.912 97.3622 482.912L96.5431 482.182L102.697 467.894C102.768 467.889 102.836 467.89 102.908 467.88C113.623 467.351 124.339 465.402 134.236 462.782C135.759 466.563 137.444 470.294 139.311 473.93C140.695 474.282 142.086 474.608 143.485 474.908C141.517 475.625 139.569 476.275 137.655 476.871Z" fill="#754C24"/>
<path d="M137.655 476.871L131.806 489.8L131.761 489.828C131.137 488.768 128.69 484.449 127.385 479.625C130.657 478.883 134.1 477.977 137.655 476.871Z" fill="#633E20"/>
<path d="M104.526 463.126C114.128 462.646 123.727 460.926 132.621 458.592C133.137 459.993 133.674 461.392 134.238 462.777C124.336 465.409 113.624 467.346 102.91 467.876C86.6929 451.203 74.9657 429.741 68.8468 414.367C63.0947 399.562 64.0963 386.266 64.2014 385.053C64.2042 385.036 64.2058 385.018 64.2062 385.001L64.2191 384.965C64.7738 379.326 66.0559 372.875 68.7429 366.878L68.7475 366.865C73.0569 357.264 80.9833 348.842 95.3075 346.859C118.146 343.702 131.799 357.689 137.668 365.801C136.738 366.759 135.864 367.761 135.038 368.783C129.186 361.316 117.067 350.321 97.6026 353.019C83.1671 355.015 75.8769 364.201 72.2854 374.075C70.5084 378.95 69.6335 383.996 69.2459 388.427C69.244 388.442 69.2434 388.457 69.2441 388.471C68.9248 392.073 68.8886 395.695 69.1358 399.303C69.346 402.155 70.6618 407.056 73.005 413.123C73.3289 414.034 73.6821 414.931 74.0691 415.799C74.101 415.882 74.1373 415.959 74.1707 416.037C79.9038 429.882 90.3232 448.527 104.526 463.126Z" fill="#8C6239"/>
<path d="M122.425 412.778C123.452 425.297 126.549 442.147 132.622 458.592C123.727 460.926 114.128 462.646 104.526 463.125C90.3275 448.529 79.9039 429.881 74.175 416.039C74.1416 415.96 74.1054 415.883 74.0735 415.8C73.6965 414.884 73.3418 413.992 73.0094 413.124C69.1668 402.356 69.2412 389.348 69.24 388.47C69.2393 388.455 69.2399 388.44 69.2418 388.425C69.6273 383.993 70.5023 378.947 72.2813 374.073C75.0945 371.247 100.901 347.024 127.969 380.239C127.48 381.278 127.026 382.301 126.606 383.308C126.606 383.308 126.578 383.385 126.511 383.539C124.91 387.402 123.63 391.391 122.685 395.465C121.947 398.74 121.778 404.909 122.425 412.778Z" fill="#42210B"/>
<path d="M102.699 467.89L96.545 482.178C76.6794 464.21 62.2178 434.673 57.8966 413.28C53.6143 392.089 68.0711 367.953 68.7358 366.873C66.0487 372.87 64.7666 379.321 64.212 384.96L64.1991 384.995C64.1986 385.013 64.197 385.031 64.1943 385.048C63.7821 389.262 63.7216 393.502 64.0135 397.726C64.2636 401.086 65.9114 407.028 68.8396 414.362C74.9662 429.741 86.6934 451.203 102.908 467.875C102.838 467.885 102.77 467.884 102.699 467.89Z" fill="#633E20"/>
<path d="M126.518 383.537C125.81 385.337 121.301 397.458 122.424 412.78C121.777 404.911 121.944 398.748 122.69 395.462C123.636 391.389 124.917 387.4 126.518 383.537Z" fill="#42210B"/>
<path d="M135.032 368.781C132.241 372.312 129.873 376.157 127.976 380.239C100.9 347.022 75.0932 371.245 72.2884 374.073C75.8799 364.199 83.1702 355.013 97.6056 353.018C117.056 350.318 129.189 361.317 135.032 368.781Z" fill="#512710"/>
<path d="M69.2402 388.47C69.233 389.346 69.167 402.356 73.0095 413.124C70.6663 407.058 69.3506 402.157 69.1403 399.304C68.8902 395.696 68.9236 392.073 69.2402 388.47Z" fill="#8C6239"/>
<path d="M64.0213 397.731C63.7294 393.507 63.7899 389.267 64.2021 385.053C64.0971 386.266 63.0954 399.562 68.8475 414.367C65.9193 407.033 64.2715 401.092 64.0213 397.731Z" fill="#633E20"/>
<path d="M255.056 436.456C259.69 442.904 258.583 444.848 258.583 444.848C258.583 444.848 254.935 445.632 248.023 438.341L247.903 438.345C247.568 432.355 242.882 427.836 242.697 427.665C246.307 429.449 251.424 431.398 255.056 436.456Z" fill="#D3695B"/>
<path d="M247.21 443.011C244.225 451.29 241.288 456.302 243.114 458.584C243.114 458.584 235.426 458.327 230.928 456.053C226.429 453.778 226.621 452.015 226.621 452.015C226.621 452.015 234.116 446.014 233.918 439.758C233.72 433.501 237.571 426.816 237.571 426.816C237.869 426.829 238.168 426.808 238.46 426.752C241.895 436.971 239.628 442.061 239.582 442.163C242.523 436.64 239.174 426.9 239.069 426.606C239.225 426.553 239.379 426.495 239.538 426.428L240.12 426.185C240.928 426.754 241.786 427.25 242.683 427.665C242.86 427.833 247.555 432.355 247.889 438.345C247.981 439.93 247.75 441.517 247.21 443.011Z" fill="#D87764"/>
<path d="M239.07 426.606C239.175 426.901 242.529 436.635 239.583 442.164C239.621 442.059 241.893 436.971 238.462 426.753C238.665 426.714 238.867 426.664 239.066 426.605C239.066 426.605 239.071 426.602 239.07 426.606Z" fill="#C4625B"/>
<path d="M244.797 423.414C244.683 423.789 244.263 424.171 243.684 424.527C243.351 424.732 242.962 424.936 242.544 425.141C241.8 425.5 240.948 425.853 240.137 426.187L239.544 426.431C239.385 426.497 239.231 426.555 239.074 426.608C238.875 426.667 238.674 426.717 238.47 426.756C238.177 426.811 237.879 426.833 237.581 426.819C235.891 426.746 234.824 425.526 234.723 424.412C234.715 424.216 234.745 424.019 234.81 423.834C235.015 423.293 235.298 422.786 235.652 422.329C235.789 422.141 235.941 421.942 236.099 421.747C236.257 421.552 236.473 421.317 236.67 421.113C236.867 420.908 237.084 420.693 237.304 420.499C237.427 420.389 237.553 420.282 237.678 420.178C238.138 419.786 238.654 419.465 239.209 419.225C239.368 419.16 239.534 419.112 239.704 419.083C239.822 419.062 239.942 419.058 240.061 419.072C240.249 419.088 240.431 419.144 240.595 419.236C241.262 419.605 241.399 420.476 241.577 421.076C241.577 421.076 238.435 423.048 238.307 424.221C238.307 424.221 240.727 421.8 241.972 421.677C242.031 421.691 242.091 421.69 242.149 421.674C243.062 421.479 244.429 422.525 244.429 422.525C244.785 422.817 244.885 423.119 244.797 423.414Z" fill="#D3695B"/>
<path d="M243.682 424.526C251.443 425.685 254.611 430.827 254.756 431.069C251.678 427.246 242.891 425.226 242.543 425.139C242.96 424.935 243.35 424.732 243.682 424.526Z" fill="#C4625B"/>
<path d="M238.302 424.215C238.435 423.043 241.573 421.07 241.573 421.07C241.665 421.378 241.77 421.615 241.964 421.669C240.723 421.793 238.302 424.215 238.302 424.215Z" fill="#BF5552"/>
<path d="M234.368 411.62C234.559 411.788 234.742 411.965 234.915 412.152C235.762 413.126 237.266 415.558 237.312 420.497C237.093 420.691 236.881 420.897 236.678 421.111C236.663 421.08 236.646 421.051 236.626 421.023C235.954 419.433 231.037 414.802 229.274 411.933C227.51 409.064 228.292 402.031 228.494 400.274C228.696 398.517 227.002 398.243 227.002 398.243C228.668 396.914 230.941 396.326 233.608 396.979C234.185 397.204 234.803 397.302 235.422 397.268C236.04 397.233 236.644 397.067 237.192 396.779C239.084 395.8 242.532 396.78 243.645 400.164C244.757 403.549 245.932 411.698 240.658 419.128L240.607 419.231C240.443 419.138 240.261 419.082 240.073 419.067C239.954 419.053 239.833 419.056 239.715 419.078C241.146 410.978 238.913 407.956 238.913 407.956C241.131 414.732 239.209 419.218 239.209 419.218C238.655 419.458 238.139 419.779 237.679 420.171C237.679 420.171 237.845 415.268 234.907 412.146C234.747 411.952 234.566 411.776 234.368 411.62Z" fill="#DD816A"/>
<path d="M239.209 419.22C239.209 419.22 241.131 414.732 238.912 407.958C238.912 407.958 241.145 410.98 239.703 419.081C239.533 419.109 239.368 419.156 239.209 419.22Z" fill="#C4625B"/>
<path d="M224.126 418.196C228.553 421.058 236.103 421.749 236.103 421.749C235.937 421.94 235.787 422.133 235.656 422.33C226.702 420.934 224.126 418.196 224.126 418.196Z" fill="#C4625B"/>
<path d="M236.103 421.749C236.103 421.749 228.56 421.06 224.126 418.196C224.126 418.196 226.7 420.933 235.648 422.327C235.294 422.785 235.011 423.292 234.806 423.832L234.787 423.825C234.787 423.825 232.892 422.131 229.053 424.675C225.214 427.218 215.309 430.873 203.185 425.077C203.904 424.051 204.433 422.904 204.745 421.691C205.267 419.667 207.218 412.761 211.191 409.044C211.191 409.044 211.547 411.161 215.523 412.787C218.232 413.895 225.297 414.247 230.787 416.561C233.209 417.586 235.326 418.993 236.624 421.023C236.643 421.05 236.66 421.08 236.675 421.11C236.468 421.315 236.283 421.533 236.103 421.749Z" fill="#D87764"/>
<path d="M237.312 420.497C237.266 415.558 235.762 413.126 234.915 412.152C237.853 415.273 237.687 420.176 237.687 420.176C237.555 420.278 237.435 420.387 237.312 420.497Z" fill="#C4625B"/>
<path d="M229.27 411.936C231.025 414.815 235.957 419.441 236.622 421.027C235.325 418.997 233.207 417.59 230.786 416.565C230.786 416.565 226.113 413.668 224.411 407.543C223.397 403.878 224.511 400.221 226.99 398.243C226.99 398.243 228.677 398.515 228.482 400.274C228.286 402.034 227.513 409.069 229.27 411.936Z" fill="#D3695B"/>
</svg>
