<svg width="288" height="283" viewBox="0 0 288 283" fill="none" xmlns="http://www.w3.org/2000/svg">
<g clip-path="url(#clip0_64_388)">
<path d="M221.045 134.425C221.224 134.328 224.096 132.782 226.4 132.777C226.552 132.776 226.704 132.783 226.856 132.798C229.291 133.039 237.563 132.798 239.264 133.277C240.965 133.757 242.915 137.818 247.531 141.883C252.008 145.813 253.288 147.291 253.365 147.385C253.339 147.301 252.963 146.295 249.477 143.326C245.827 140.219 241.211 134.48 239.987 133.285C239.901 133.202 239.803 133.133 239.696 133.081C237.941 132.161 231.789 132.672 227.456 132.447C222.885 132.211 224.024 131.975 221.128 134.357L221.045 134.425ZM231.608 174.008V174.04V174.008ZM231.608 173.977C231.811 173.319 233.522 167.641 233.293 164.716C233.05 161.609 235.24 158.978 235.24 158.978C233.547 158.008 232.088 149.885 232.088 149.885C229.155 150.603 225.032 147.495 225.032 147.495C225.032 148.866 222.832 150.713 222.632 150.876C221.691 151.303 219.005 152.361 217.616 151.193C216.493 150.247 217.061 149.301 217.578 148.766L217.616 148.8C217.616 148.8 217.616 149.998 219.075 149.518C220.533 149.039 222.24 147.129 222.24 146.649C222.24 146.169 220.568 145.163 220.568 145.163C221.077 144.144 221.634 143.067 222.725 142.108C225.157 139.957 225.888 139.957 228.565 140.672C230.546 141.201 232.596 141.442 234.648 141.39C236.107 141.39 238.053 144.498 238.784 145.934C239.515 147.37 241.717 150.954 242.435 151.193C243.152 151.431 245.232 153.465 245.232 153.465C245.232 153.465 244.989 152.747 242.565 150.844C240.141 148.942 237.456 140.803 234.536 141.041C231.616 141.28 229.184 140.085 226.269 139.847C223.355 139.608 220.917 143.672 220.187 145.106C219.566 146.232 218.862 147.313 218.082 148.339C215.896 148.79 212.773 146.893 214.469 145.226C214.469 145.226 215.2 146.659 216.658 146.659C218.117 146.659 219.091 143.777 219.091 143.777C219.091 143.777 218.101 142.325 216.651 142.205C218.747 138.953 221.283 134.443 221.283 134.443C221.283 134.443 213.981 133.966 212.523 130.856C211.523 128.728 212.522 127.89 213.248 127.57L213.282 127.646C213.322 129.239 214.946 129.48 217.6 129.108C220.253 128.736 219.304 126.016 219.304 126.016V125.987C221.632 125.296 224.104 124.431 225.304 123.566C227.971 121.653 232.603 125.717 235.28 126.433C237.8 127.109 242.904 126.726 246.944 130.266C247.211 130.487 247.445 130.725 247.688 130.977C250.933 134.352 254.331 138.759 257.053 141.657C257.7 142.363 258.392 143.029 259.125 143.649C262.043 146.038 260.341 152.254 254.987 163.493C249.632 174.731 250.821 193.881 253.499 204.651C256.176 215.421 273.208 262.75 274.667 283.071L233.912 282.963C230.992 270.768 236.579 233.234 237.075 218.169C237.549 203.548 234.163 198.648 233.962 198.375C233.772 197.853 233.511 197.357 233.187 196.902C229.781 192.359 230.269 186.382 230.269 186.382C230.997 173.471 229.296 175.863 227.336 171.799C225.376 167.735 229.525 154.345 227.336 153.627L227.2 153.554L227.224 153.486C227.224 153.486 230.792 154.201 232.291 153.486C232.853 155.44 233.643 157.325 234.642 159.104C233.181 161.016 232.696 163.406 232.939 165.799C233.165 168.036 231.784 173.343 231.619 173.974L231.608 173.977Z" fill="#EAB88B"/>
<path d="M251.795 126.939C252.768 132.198 257.024 141.683 257.024 141.683C254.301 138.785 250.891 134.378 247.659 131.003C247.416 130.741 247.168 130.513 246.915 130.293C246.915 130.293 246.07 125.086 244.27 117.778C245.523 118.582 250.933 122.295 251.795 126.939Z" fill="#E5B288"/>
<path d="M249.485 143.316C252.97 146.285 253.347 147.291 253.373 147.375C253.296 147.288 252.016 145.818 247.538 141.872C242.914 137.808 240.968 133.749 239.272 133.267C237.576 132.785 229.298 133.028 226.864 132.787C226.712 132.772 226.56 132.765 226.408 132.766C223.64 132.386 221.146 134.339 221.146 134.339C224.042 131.957 222.904 132.192 227.474 132.428C231.808 132.654 237.96 132.143 239.714 133.062C239.822 133.115 239.92 133.184 240.005 133.267C241.21 134.47 245.834 140.208 249.485 143.316Z" fill="#D19F7D"/>
<path d="M242.549 150.847C244.984 152.76 245.216 153.467 245.216 153.467C245.216 153.467 243.157 151.457 242.429 151.195C241.701 150.933 239.496 147.37 238.779 145.936C238.061 144.503 236.112 141.393 234.643 141.393C232.59 141.445 230.541 141.203 228.56 140.675C225.893 139.959 225.152 139.959 222.72 142.111C221.624 143.08 221.072 144.147 220.563 145.166C219.941 146.411 219.381 147.59 217.981 148.441C217.981 148.441 218.005 148.407 218.032 148.371L218.096 148.326H218.061C218.841 147.3 219.544 146.219 220.165 145.093C220.896 143.659 223.328 139.59 226.248 139.833C229.168 140.077 231.6 141.267 234.515 141.028C237.429 140.79 240.117 148.934 242.549 150.847Z" fill="#D19F7D"/>
<path d="M244.267 117.778C246.067 125.086 246.912 130.293 246.912 130.293C242.872 126.753 237.768 127.135 235.248 126.459C232.581 125.744 227.949 121.68 225.272 123.592C224.059 124.457 221.6 125.322 219.272 126.014C218.603 126.21 217.939 126.391 217.333 126.556C216.085 126.308 214.871 125.914 213.717 125.385C211.528 124.428 213.717 120.841 213.475 119.408C213.232 117.974 209.824 117.733 206.176 116.538C202.528 115.343 212.987 100.759 206.419 95.9763C199.851 91.1942 197.659 60.8319 204.715 57.7189C211.771 54.6059 216.152 64.1781 228.8 80.4454C236.475 90.2954 241.501 106.526 244.267 117.778ZM228.035 93.5158C227.963 93.673 226.6 96.5528 222.013 95.6776C217.299 94.7788 214.013 96.9878 214.013 96.9878C213.707 97.318 214.181 97.1372 214.181 97.1372C214.555 96.9431 214.95 96.7893 215.357 96.6786C215.109 100.242 216.157 101.799 216.157 101.799C216.497 101.796 216.835 101.763 217.168 101.702C220.533 101.081 223.008 97.6848 223.547 96.8856H223.667C226.947 96.5712 227.976 93.6966 228.037 93.5158H228.035ZM213.981 111.79C214.069 112.016 215.357 115.459 212.845 116.462C212.848 116.462 216.997 117.691 213.984 111.79H213.981ZM224.728 88.1152C221.261 86.2102 216.973 84.1847 212.403 86.446C207.832 88.7074 208.229 90.2718 208.229 90.2718L209.069 91.0265C209.069 91.0265 213.565 87.185 216.139 87.0697C218.712 86.9544 224.731 88.1152 224.731 88.1152H224.728ZM207.467 114.476C207.077 115.37 209.683 115.909 211.005 115.831C210.992 115.82 207.84 113.58 207.467 114.476Z" fill="#F2C097"/>
<path d="M233.963 198.362C234.163 198.624 237.55 203.535 237.075 218.156C236.59 233.221 230.992 270.755 233.912 282.95H230.264C229.291 266.932 231.723 256.65 233.912 239.436C235.83 224.374 236.44 206.566 234.283 199.305C234.183 198.963 234.077 198.649 233.963 198.362Z" fill="#D19F7D"/>
<path d="M234.643 159.096C233.643 157.318 232.854 155.433 232.291 153.478C231.99 152.424 231.803 151.342 231.734 150.249C231.734 150.249 230.275 151.206 225.163 148.098C225.163 148.098 224.979 149.61 222.651 150.881C222.843 150.719 225.051 148.871 225.051 147.501C225.051 147.501 229.187 150.608 232.107 149.891C232.107 149.891 233.566 158.014 235.27 158.975C235.27 158.975 233.08 161.596 233.323 164.714C233.552 167.638 231.84 173.317 231.638 173.974C231.803 173.343 233.184 168.037 232.958 165.791C232.696 163.398 233.182 161.009 234.643 159.096Z" fill="#D19F7D"/>
<path d="M231.733 150.249C231.807 151.342 231.997 152.424 232.301 153.478C230.8 154.193 227.235 153.478 227.235 153.478L227.2 153.554C225.067 152.794 222.965 150.734 222.965 150.734C222.965 150.734 222.848 150.797 222.643 150.889C224.971 149.618 225.155 148.106 225.155 148.106C230.264 151.195 231.733 150.249 231.733 150.249Z" fill="#F2C097"/>
<path d="M223.563 96.8803C221.819 97.0166 220.139 96.6549 218.496 96.5056C217.446 96.3705 216.379 96.4274 215.35 96.6733C214.942 96.784 214.548 96.9378 214.174 97.1318C214.174 97.1318 213.699 97.3127 214.006 96.9825C214.006 96.9825 217.288 94.7788 222.006 95.6723C226.592 96.5475 227.955 93.6677 228.027 93.5105C227.966 93.6913 226.936 96.5659 223.672 96.8646L223.563 96.8803Z" fill="#303031"/>
<path d="M221.139 134.349C221.139 134.349 223.632 132.394 226.4 132.777C224.096 132.777 221.224 134.328 221.045 134.425L221.136 134.349H221.139Z" fill="#EAB88B"/>
<path d="M218.509 96.5056C220.139 96.655 221.819 97.0166 223.576 96.8803C223.043 97.6664 220.563 101.073 217.197 101.697C221.6 98.7565 218.509 96.5056 218.509 96.5056Z" fill="white"/>
<path d="M217.981 148.452C219.381 147.6 219.941 146.421 220.563 145.176C220.563 145.176 222.235 146.185 222.235 146.662C222.235 147.139 220.531 149.055 219.069 149.531C217.608 150.008 217.611 148.813 217.611 148.813L217.573 148.779C217.714 148.634 217.867 148.5 218.032 148.381C218.005 148.418 217.987 148.441 217.981 148.452Z" fill="#F4F1EB"/>
<path d="M219.283 126.04C219.283 126.04 220.229 128.752 217.579 129.132C214.928 129.512 213.312 129.263 213.261 127.67L213.227 127.594C213.422 127.508 213.629 127.448 213.84 127.413C213.84 127.413 215.363 127.088 217.333 126.564C217.947 126.399 218.603 126.218 219.272 126.021L219.283 126.04Z" fill="#F4F1EB"/>
<path d="M218.51 96.5057C218.51 96.5057 221.611 98.7566 217.176 101.697C216.843 101.758 216.505 101.791 216.166 101.794C216.166 101.794 215.099 100.237 215.366 96.6734C216.394 96.4277 217.46 96.3709 218.51 96.5057Z" fill="#534741"/>
<path d="M219.07 143.793C219.07 143.793 218.096 146.675 216.638 146.675C215.179 146.675 214.448 145.242 214.448 145.242C214.952 144.749 215.752 143.607 216.63 142.244C218.08 142.341 219.07 143.793 219.07 143.793Z" fill="#F4F1EB"/>
<path d="M212.405 86.446C216.976 84.1847 221.259 86.2102 224.731 88.1152C224.731 88.1152 218.715 86.957 216.141 87.0671C213.568 87.1771 209.067 91.0265 209.067 91.0265L208.227 90.2718C208.227 90.2718 207.837 88.7074 212.405 86.446Z" fill="#303031"/>
<path d="M213.984 111.79C216.997 117.691 212.848 116.462 212.848 116.462C215.36 115.469 214.072 112.016 213.984 111.79Z" fill="#E0AA82"/>
<path d="M210.992 115.82C209.659 115.899 207.064 115.359 207.453 114.466C207.843 113.572 210.992 115.82 210.992 115.82Z" fill="#E0AA82"/>
<path d="M204.958 282.942V283.06H164.014C164.075 275.954 161.406 268.834 161.406 268.834C159.232 260.769 150.355 244.441 150.206 244.187C165.646 249.064 186.59 256.94 204.958 282.942Z" fill="#EFBE9A"/>
<path d="M161.405 268.834C161.405 268.834 164.072 275.954 164.013 283.06H162.045C161.896 267.637 149.131 245.623 147.845 243.443L150.213 244.184C150.355 244.441 159.232 260.769 161.405 268.834Z" fill="#F9D270"/>
<path d="M148.515 143.072C149.973 142.354 152.403 140.205 151.429 139.488C150.456 138.77 148.568 142.954 148.515 143.072ZM151.715 162.835L151.805 162.688C153.005 162.128 156.837 159.908 158.84 159.691C160.893 159.468 161.24 158.192 161.272 158.032L161.413 158.066C161.408 158.09 161.402 158.113 161.395 158.137C160.421 161.483 159.936 164.591 162.611 168.178C165.285 171.765 164.557 180.371 150.203 182.763C147.269 183.25 144.843 183.646 142.781 184.073C135.101 185.627 132.619 187.451 129.715 195.165C129.499 186.617 126.939 178.395 123.427 170.494C121.72 159.654 109.8 144.757 104.691 124.2C99.5814 103.643 115.176 96.4558 115.176 96.4558V96.4401C118.456 98.0123 127.128 103.036 134.269 114.984C143.272 130.046 153.491 128.851 154.707 131.721C155.923 134.59 151.421 143.793 155.56 146.657C156.019 146.972 156.435 147.343 156.8 147.76C156.8 147.76 153.976 146.777 153.976 151.798C153.976 156.819 150.813 163.034 151.544 162.804C151.605 162.783 151.693 162.746 151.811 162.696C151.781 162.741 151.752 162.788 151.733 162.838L151.715 162.835ZM116.64 130.162C116.744 129.997 120.072 124.638 121.989 122.754C123.907 120.87 130.256 120.133 130.256 120.133V118.936C130.256 118.936 129.283 117.503 124.173 119.415C119.064 121.328 117.6 126.097 116.64 130.162ZM132.976 134.111C133.264 133.895 133.531 133.654 133.776 133.393C133.776 133.393 133.291 131.448 130.248 129.074C130.631 128.836 131.039 128.641 131.467 128.492C131.467 128.492 131.952 128.254 131.467 128.254C131.467 128.254 127.331 129.21 124.653 133.513C122.035 137.719 118.723 136.671 118.576 136.623C118.715 136.684 121.795 138.002 124.411 135.664L124.501 135.581C125.541 135.735 130.051 136.259 132.976 134.111ZM146.933 144.87C143.528 145.347 142.797 140.567 142.797 140.567C143.28 148.695 146.933 144.87 146.933 144.87Z" fill="#F2C097"/>
<path d="M162.045 283.06H151.675V282.942C153.123 267.516 136.619 239.924 136.371 239.512C139.525 240.891 143.421 242.07 147.837 243.443C149.131 245.623 161.896 267.637 162.045 283.06Z" fill="#FFDC78"/>
<path d="M161.283 158.035C161.248 158.194 160.904 159.471 158.851 159.693C156.848 159.911 153.016 162.13 151.816 162.691C151.997 162.392 152.349 161.821 152.813 161.077L152.843 161.032C155.925 156.316 158.243 154.791 158.243 154.791C158.243 154.791 162.32 154.791 161.424 158.069L161.283 158.035Z" fill="#F9B19C"/>
<path d="M158.491 152.534C158.505 153.294 158.422 154.052 158.243 154.791C158.243 154.791 155.925 156.308 152.843 161.032C154.219 158.826 156.571 155.142 158.491 152.534Z" fill="#F4A592"/>
<path d="M156.8 147.765C158.133 149.288 158.472 151.122 158.483 152.534C156.563 155.142 154.216 158.823 152.835 161.032L152.805 161.077C152.48 161.577 152.144 162.125 151.803 162.694C151.693 162.743 151.605 162.78 151.536 162.801C150.805 163.039 153.968 156.824 153.968 151.795C153.968 146.767 156.8 147.765 156.8 147.765Z" fill="#F9B19C"/>
<path d="M122.448 264.264C121.676 263.437 120.86 262.649 120.003 261.906C118.12 260.111 115.336 257.493 112.269 254.731C106.765 249.795 94.6695 252.486 94.2748 252.577C105.869 251.005 115.635 258.044 120.013 261.906C121.381 263.221 122.275 264.097 122.448 264.264ZM127.813 257.81C127.632 258.269 127.645 258.311 127.813 257.81V257.81ZM127.813 257.795C129.634 253.536 132.376 249.717 135.848 246.603C135.672 246.713 129.981 250.272 128.312 256.165C128.093 256.946 127.925 257.475 127.819 257.795H127.813ZM136.371 239.502C136.619 239.913 153.123 267.506 151.675 282.932V283.05H107.635V282.932C102.035 267.39 85.5015 248.264 85.5015 248.264C86.6019 248.161 87.6792 248.044 88.7335 247.913C88.8738 247.903 89.0136 247.885 89.1521 247.861C112.667 244.792 123.728 233.632 129.053 204.271C129.598 201.26 129.83 198.203 129.747 195.147C132.637 187.432 135.12 185.609 142.813 184.055C142.813 184.055 133.931 198.399 129.773 215.667L129.736 215.824C128.805 219.651 128.175 223.542 127.851 227.464C127.363 233.779 130.643 236.978 136.384 239.499L136.371 239.502Z" fill="#EAB88B"/>
<path d="M151.429 139.49C152.403 140.208 149.973 142.357 148.515 143.075C148.568 142.954 150.469 138.783 151.429 139.49Z" fill="#E0AA82"/>
<path d="M142.792 140.567C142.792 140.567 143.523 145.347 146.928 144.87C146.933 144.87 143.28 148.696 142.792 140.567Z" fill="#E0AA82"/>
<path d="M136.368 239.502C130.619 236.981 127.339 233.782 127.835 227.466C128.159 223.545 128.789 219.653 129.72 215.827C129.334 217.593 126.043 233.708 136.368 239.502Z" fill="#EAB88B"/>
<path d="M130.261 129.074C133.304 131.448 133.789 133.393 133.789 133.393C133.545 133.655 133.277 133.895 132.989 134.111C127.445 135.421 127.872 131.391 127.872 131.391C128.517 130.481 129.327 129.696 130.261 129.074Z" fill="#534741"/>
<path d="M128.318 256.165C129.992 250.282 135.678 246.713 135.854 246.603C132.381 249.717 129.64 253.536 127.819 257.795C127.926 257.475 128.094 256.946 128.318 256.165Z" fill="#D19F7D"/>
<path d="M124.515 135.581L124.424 135.664C121.808 138.002 118.728 136.684 118.589 136.623C118.736 136.671 122.056 137.719 124.667 133.513C127.333 129.21 131.48 128.254 131.48 128.254C131.965 128.254 131.48 128.492 131.48 128.492C131.053 128.641 130.644 128.836 130.261 129.074C129.324 129.695 128.51 130.48 127.861 131.391C126.805 132.764 125.883 134.328 124.515 135.581Z" fill="#303031"/>
<path d="M127.859 131.391C127.859 131.391 127.432 135.413 132.976 134.111C130.043 136.27 125.541 135.738 124.515 135.581C125.883 134.328 126.805 132.764 127.859 131.391Z" fill="white"/>
<path d="M130.262 118.928V120.126C130.262 120.126 123.936 120.841 121.995 122.746C120.054 124.651 116.75 129.989 116.646 130.154C117.616 126.09 119.078 121.313 124.184 119.41C129.291 117.508 130.262 118.928 130.262 118.928Z" fill="#303031"/>
<path d="M129.739 195.157C129.822 198.214 129.59 201.271 129.045 204.281C123.712 233.63 112.659 244.803 89.1439 247.871L88.7253 247.924C87.4879 248.015 85.8399 247.62 84.0506 246.959C81.6283 246.022 79.2797 244.911 77.0239 243.634C75.9919 242.969 74.8453 242.209 73.5706 241.341C72.8806 240.882 72.1342 240.509 71.3493 240.233C69.5546 239.583 67.3493 239.261 64.8853 239.321C64.0257 239.342 63.1677 239.405 62.3146 239.51C49.0053 241.145 30.3919 253.136 26.6213 282.945V283.063H15.7866C34.5199 204.166 1.6746 194.602 13.3519 141.285C25.0293 87.9685 59.5813 76.2528 83.9119 71.2322C108.243 66.2115 113.84 95.8637 113.84 95.8637C113.84 95.8637 97.1733 99.5689 101.307 123.239C103.851 137.792 115.869 153.433 123.44 170.489C126.963 178.395 129.523 186.61 129.739 195.157Z" fill="#303031"/>
<path d="M112.267 254.729C115.344 257.491 118.133 260.108 120 261.903C115.621 258.041 105.867 251.003 94.2612 252.575C94.6666 252.483 106.755 249.792 112.267 254.729Z" fill="#D19F7D"/>
<path d="M123.451 170.484C115.872 153.428 103.853 137.787 101.317 123.233C97.1812 99.5636 113.851 95.8584 113.851 95.8584C113.851 95.8584 114.339 96.0313 115.184 96.4401V96.4558C115.184 96.4558 99.6132 103.628 104.723 124.19C109.832 144.752 121.744 159.643 123.451 170.484Z" fill="#E0AA82"/>
<path d="M107.635 282.942V283.06H94.2293C91.5387 269.898 70.5653 245.712 65.8267 240.377C69.064 239.924 71.1893 240.209 71.3413 240.23C71.3413 240.23 73.8213 241.865 77.016 243.637C83.664 247.918 85.4853 248.277 85.4853 248.277C85.4853 248.277 102.037 267.401 107.635 282.942Z" fill="#FFDC78"/>
<path d="M94.2292 283.06H89.1332C87.9546 270.291 68.3786 246.614 63.4346 240.815C64.2826 240.621 65.0852 240.479 65.8346 240.377C70.5652 245.712 91.5386 269.898 94.2292 283.06Z" fill="#F9D270"/>
<path d="M89.1333 283.06H31.4453C38.4746 251.453 53.9546 242.969 63.4453 240.815C68.3787 246.614 87.9547 270.291 89.1333 283.06Z" fill="#EAB88B"/>
<path d="M84.0508 246.959C85.8401 247.62 87.4881 248.008 88.7255 247.924C87.6712 248.056 86.5939 248.174 85.4935 248.275C85.0524 247.798 84.5697 247.359 84.0508 246.965V246.959Z" fill="#303031"/>
<path d="M84.0506 246.962C84.5695 247.357 85.0522 247.795 85.4933 248.272C85.4933 248.272 83.6719 247.913 77.0239 243.632C79.2797 244.908 81.6283 246.02 84.0506 246.957V246.962Z" fill="#303031"/>
<path d="M71.3414 240.23C71.1894 240.209 69.0641 239.924 65.8268 240.377C65.2508 239.727 64.9121 239.358 64.8774 239.329C67.3414 239.258 69.5468 239.58 71.3414 240.23Z" fill="#FFDC78"/>
<path d="M64.8772 239.318C64.9119 239.358 65.2506 239.727 65.8266 240.367C65.0853 240.469 64.2826 240.61 63.4266 240.804C62.7093 239.96 62.2986 239.494 62.2986 239.494C63.1546 239.393 64.0152 239.334 64.8772 239.318Z" fill="#F9D270"/>
<path d="M62.3066 239.502C62.3066 239.502 62.7173 239.966 63.4346 240.812C53.9546 242.966 38.4746 251.451 31.4346 283.058H26.6133V282.94C30.3839 253.128 48.9973 241.142 62.3066 239.502Z" fill="#E0AA82"/>
<path d="M213.261 60.3262C213.261 60.3262 229.232 75.6658 235.149 91.0264L213.261 60.3262Z" fill="#F2C097"/>
</g>
<defs>
<clipPath id="clip0_64_388">
<rect width="288" height="283" fill="white"/>
</clipPath>
</defs>
</svg>
