<svg width="736" height="703" viewBox="0 0 736 703" fill="none" xmlns="http://www.w3.org/2000/svg">
<path d="M347.402 284.755V266.823H206.355C206.17 265.512 205.943 264.207 205.672 262.921L332.893 215.308L326.67 198.52L199.442 246.133C198.473 244.37 197.414 242.657 196.272 241.001L303.175 152.577L291.842 138.751L184.066 227.916C182.576 226.735 181.031 225.616 179.437 224.577L230.589 100.29L214.105 93.4446L163.205 217.126C160.741 216.419 158.235 215.868 155.702 215.475V83.7675H137.851V215.401C135.653 215.714 133.475 216.15 131.326 216.706L79.0596 93.4446L62.6552 100.463L114.928 223.712C112.966 224.919 111.076 226.238 109.265 227.663L6.0494 130.762L-6.12615 143.852L96.9905 240.661C96.1041 241.934 95.2629 243.241 94.4668 244.581L-39.6243 183.148L-47.0109 199.448L87.7388 261.19C87.2956 263.045 86.9325 264.9 86.6616 266.841H-59.4019V284.773H86.7355C87.0671 286.924 87.5109 289.057 88.0651 291.161L-50.4333 342.991L-44.2101 359.773L95.1931 307.621C96.1657 309.188 97.1916 310.701 98.2708 312.16L-4.03944 396.756L7.30511 410.582L111.068 324.743C112.299 325.634 113.557 326.479 114.841 327.279L63.5662 451.9L80.0445 458.739L131.258 334.309C133.435 334.876 135.642 335.32 137.869 335.639V462.214H155.72V335.558C157.749 335.251 159.76 334.839 161.746 334.321L211.181 450.886L227.585 443.862L178.163 327.297C180.399 325.91 182.546 324.382 184.589 322.721L282.511 414.676L294.686 401.585L196.629 309.52C197.639 308.015 198.585 306.465 199.467 304.87L335.011 366.97L342.397 350.671L205.684 288.038C205.912 286.95 206.109 285.862 206.3 284.755H347.402Z" fill="#F4A39D"/>
<path d="M696.755 582.904V574.66H632.088C632.004 574.058 631.899 573.458 631.775 572.867L690.103 550.979L687.25 543.261L628.919 565.149C628.475 564.338 627.989 563.551 627.466 562.79L676.478 522.141L671.282 515.785L621.869 556.775C621.186 556.232 620.478 555.717 619.747 555.24L643.199 498.104L635.642 494.957L612.305 551.815C611.175 551.489 610.026 551.236 608.865 551.056V490.509H600.681V551.021C599.673 551.165 598.675 551.366 597.689 551.621L573.726 494.957L566.205 498.184L590.171 554.842C589.272 555.397 588.405 556.003 587.575 556.658L540.253 512.112L534.671 518.13L581.947 562.633C581.541 563.219 581.155 563.82 580.79 564.436L519.312 536.195L515.926 543.688L577.706 572.071C577.502 572.924 577.336 573.776 577.212 574.669H510.245V582.912H577.246C577.398 583.901 577.601 584.881 577.855 585.849L514.357 609.675L517.21 617.39L581.123 593.416C581.569 594.136 582.039 594.831 582.534 595.502L535.627 634.392L540.829 640.748L588.402 601.287C588.966 601.696 589.543 602.085 590.132 602.452L566.623 659.742L574.178 662.886L597.658 605.684C598.656 605.945 599.668 606.149 600.689 606.295V664.483H608.873V606.259C609.804 606.117 610.726 605.928 611.636 605.69L634.301 659.276L641.822 656.046L619.163 602.461C620.188 601.823 621.172 601.121 622.109 600.357L667.004 642.629L672.586 636.612L627.629 594.288C628.092 593.597 628.526 592.884 628.93 592.151L691.074 620.699L694.461 613.206L631.781 584.413C631.885 583.913 631.976 583.413 632.063 582.904H696.755Z" fill="#F6B05E"/>
<g clip-path="url(#clip0_82_3)">
<path d="M506.737 313.4C507.055 313.227 512.171 310.474 516.275 310.465C516.546 310.463 516.817 310.475 517.087 310.502C521.424 310.931 536.159 310.502 539.189 311.356C542.22 312.21 545.692 319.443 553.914 326.681C561.889 333.681 564.169 336.313 564.307 336.481C564.26 336.332 563.59 334.54 557.382 329.253C550.879 323.718 542.657 313.498 540.476 311.37C540.325 311.222 540.15 311.1 539.959 311.006C536.833 309.368 525.875 310.278 518.156 309.877C510.015 309.457 512.043 309.037 506.884 313.279L506.737 313.4ZM525.552 383.895V383.951V383.895ZM525.552 383.839C525.913 382.667 528.962 372.555 528.554 367.347C528.122 361.812 532.021 357.127 532.021 357.127C529.005 355.4 526.407 340.933 526.407 340.933C521.182 342.212 513.838 336.677 513.838 336.677C513.838 339.118 509.92 342.408 509.563 342.697C507.887 343.458 503.103 345.343 500.629 343.262C498.629 341.577 499.641 339.893 500.562 338.941L500.629 339.001C500.629 339.001 500.629 341.134 503.227 340.28C505.825 339.426 508.865 336.024 508.865 335.17C508.865 334.316 505.887 332.524 505.887 332.524C506.794 330.709 507.787 328.791 509.73 327.083C514.062 323.251 515.363 323.251 520.132 324.525C523.661 325.467 527.311 325.898 530.967 325.804C533.565 325.804 537.033 331.339 538.334 333.896C539.636 336.453 543.559 342.837 544.837 343.262C546.115 343.687 549.82 347.308 549.82 347.308C549.82 347.308 549.387 346.029 545.07 342.641C540.752 339.253 535.969 324.759 530.767 325.183C525.566 325.608 521.234 323.48 516.042 323.055C510.851 322.631 506.509 329.869 505.208 332.421C504.101 334.427 502.849 336.352 501.46 338.18C497.565 338.983 492.003 335.604 495.024 332.636C495.024 332.636 496.325 335.189 498.923 335.189C501.522 335.189 503.255 330.055 503.255 330.055C503.255 330.055 501.493 327.47 498.909 327.255C502.643 321.464 507.16 313.433 507.16 313.433C507.16 313.433 494.154 312.583 491.556 307.044C489.775 303.255 491.556 301.761 492.848 301.192L492.91 301.327C492.981 304.165 495.874 304.594 500.6 303.931C505.326 303.269 503.635 298.425 503.635 298.425V298.373C507.782 297.141 512.185 295.601 514.323 294.061C519.073 290.655 527.324 297.893 532.093 299.167C536.581 300.371 545.673 299.689 552.869 305.994C553.344 306.386 553.762 306.811 554.194 307.259C559.975 313.269 566.027 321.119 570.876 326.28C572.029 327.538 573.262 328.722 574.567 329.827C579.764 334.083 576.733 345.152 567.195 365.167C557.657 385.183 559.776 419.287 564.545 438.467C569.314 457.647 599.652 541.936 602.25 578.126L529.656 577.935C524.455 556.216 534.406 489.371 535.289 462.542C536.135 436.502 530.102 427.775 529.746 427.29C529.406 426.359 528.941 425.477 528.364 424.667C522.298 416.575 523.167 405.931 523.167 405.931C524.464 382.938 521.434 387.199 517.942 379.961C514.451 372.723 521.842 348.876 517.942 347.597L517.7 347.467L517.743 347.345C517.743 347.345 524.098 348.619 526.768 347.345C527.771 350.827 529.176 354.184 530.957 357.351C528.354 360.757 527.49 365.013 527.922 369.274C528.326 373.259 525.865 382.709 525.571 383.834L525.552 383.839Z" fill="#EAB88B"/>
<path d="M561.509 300.067C563.243 309.433 570.824 326.327 570.824 326.327C565.974 321.165 559.899 313.316 554.142 307.305C553.71 306.839 553.268 306.433 552.817 306.041C552.817 306.041 551.311 296.768 548.105 283.753C550.337 285.185 559.975 291.798 561.509 300.067Z" fill="#E5B288"/>
<path d="M557.396 329.234C563.604 334.521 564.274 336.313 564.321 336.463C564.184 336.309 561.904 333.691 553.928 326.663C545.692 319.425 542.224 312.196 539.203 311.337C536.182 310.479 521.438 310.913 517.101 310.483C516.832 310.457 516.56 310.444 516.289 310.446C511.359 309.769 506.917 313.246 506.917 313.246C512.076 309.004 510.048 309.424 518.189 309.844C525.908 310.245 536.866 309.335 539.992 310.973C540.183 311.067 540.358 311.19 540.51 311.337C542.657 313.479 550.893 323.699 557.396 329.234Z" fill="#D19F7D"/>
<path d="M545.041 342.646C549.378 346.053 549.791 347.313 549.791 347.313C549.791 347.313 546.124 343.733 544.827 343.267C543.531 342.8 539.602 336.453 538.325 333.901C537.047 331.348 533.575 325.809 530.957 325.809C527.302 325.902 523.652 325.471 520.123 324.53C515.373 323.256 514.052 323.256 509.72 327.087C507.768 328.814 506.785 330.713 505.877 332.529C504.771 334.745 503.773 336.845 501.279 338.362C501.279 338.362 501.322 338.301 501.37 338.236L501.484 338.157H501.422C502.811 336.329 504.063 334.404 505.17 332.398C506.471 329.845 510.803 322.598 516.004 323.032C521.206 323.466 525.538 325.585 530.729 325.16C535.921 324.735 540.709 339.239 545.041 342.646Z" fill="#D19F7D"/>
<path d="M548.1 283.753C551.306 296.768 552.812 306.041 552.812 306.041C545.616 299.736 536.524 300.417 532.036 299.213C527.286 297.939 519.035 290.701 514.266 294.108C512.105 295.648 507.725 297.188 503.578 298.42C502.386 298.77 501.203 299.092 500.125 299.386C497.902 298.944 495.739 298.243 493.684 297.3C489.784 295.597 493.684 289.208 493.252 286.655C492.82 284.103 486.749 283.673 480.251 281.545C473.753 279.417 492.383 253.443 480.683 244.926C468.984 236.409 465.08 182.337 477.648 176.793C490.217 171.249 498.021 188.296 520.55 217.267C534.221 234.809 543.174 263.714 548.1 283.753ZM519.187 240.544C519.059 240.824 516.631 245.953 508.461 244.394C500.063 242.793 494.211 246.727 494.211 246.727C493.665 247.315 494.511 246.993 494.511 246.993C495.177 246.648 495.879 246.374 496.605 246.177C496.164 252.523 498.03 255.295 498.03 255.295C498.634 255.29 499.237 255.232 499.831 255.123C505.825 254.017 510.233 247.969 511.193 246.545H511.406C517.249 245.985 519.082 240.866 519.192 240.544H519.187ZM494.154 273.089C494.311 273.491 496.605 279.623 492.131 281.41C492.136 281.41 499.527 283.599 494.159 273.089H494.154ZM513.297 230.926C507.122 227.533 499.484 223.926 491.342 227.953C483.201 231.981 483.909 234.767 483.909 234.767L485.405 236.111C485.405 236.111 493.413 229.269 497.997 229.064C502.581 228.859 513.302 230.926 513.302 230.926H513.297ZM482.55 277.873C481.857 279.464 486.497 280.425 488.853 280.285C488.83 280.267 483.215 276.277 482.55 277.873Z" fill="#F2C097"/>
<path d="M529.746 427.267C530.102 427.733 536.135 436.479 535.289 462.519C534.425 489.347 524.455 556.193 529.656 577.911H523.158C521.424 549.384 525.756 531.072 529.656 500.417C533.071 473.593 534.159 441.878 530.316 428.947C530.139 428.337 529.949 427.777 529.746 427.267Z" fill="#D19F7D"/>
<path d="M530.957 357.337C529.176 354.17 527.77 350.813 526.768 347.331C526.232 345.455 525.9 343.527 525.775 341.582C525.775 341.582 523.177 343.285 514.071 337.751C514.071 337.751 513.743 340.443 509.596 342.707C509.938 342.417 513.871 339.127 513.871 336.687C513.871 336.687 521.239 342.221 526.44 340.943C526.44 340.943 529.038 355.409 532.073 357.122C532.073 357.122 528.174 361.789 528.606 367.342C529.014 372.55 525.965 382.663 525.604 383.834C525.898 382.709 528.359 373.259 527.955 369.26C527.49 364.999 528.354 360.743 530.957 357.337Z" fill="#D19F7D"/>
<path d="M525.775 341.582C525.906 343.528 526.245 345.455 526.787 347.331C524.113 348.605 517.762 347.331 517.762 347.331L517.7 347.467C513.9 346.113 510.157 342.445 510.157 342.445C510.157 342.445 509.948 342.557 509.582 342.721C513.729 340.457 514.057 337.765 514.057 337.765C523.158 343.267 525.775 341.582 525.775 341.582Z" fill="#F2C097"/>
<path d="M511.221 246.536C508.114 246.779 505.122 246.135 502.196 245.869C500.325 245.628 498.425 245.729 496.591 246.167C495.865 246.365 495.162 246.638 494.496 246.984C494.496 246.984 493.651 247.306 494.197 246.718C494.197 246.718 500.044 242.793 508.447 244.385C516.617 245.943 519.044 240.815 519.172 240.535C519.063 240.857 517.23 245.976 511.416 246.508L511.221 246.536Z" fill="#303031"/>
<path d="M506.903 313.265C506.903 313.265 511.345 309.783 516.275 310.465C512.171 310.465 507.055 313.227 506.737 313.4L506.899 313.265H506.903Z" fill="#EAB88B"/>
<path d="M502.22 245.869C505.122 246.135 508.115 246.779 511.245 246.536C510.295 247.936 505.877 254.003 499.883 255.113C507.725 249.877 502.22 245.869 502.22 245.869Z" fill="white"/>
<path d="M501.279 338.381C503.773 336.864 504.77 334.764 505.877 332.547C505.877 332.547 508.855 334.344 508.855 335.193C508.855 336.043 505.82 339.454 503.217 340.303C500.614 341.153 500.619 339.025 500.619 339.025L500.552 338.964C500.803 338.705 501.077 338.467 501.369 338.255C501.322 338.32 501.289 338.362 501.279 338.381Z" fill="#F4F1EB"/>
<path d="M503.597 298.467C503.597 298.467 505.284 303.297 500.562 303.973C495.841 304.65 492.962 304.207 492.872 301.369L492.81 301.234C493.159 301.082 493.526 300.974 493.903 300.912C493.903 300.912 496.615 300.333 500.125 299.4C501.218 299.106 502.386 298.784 503.578 298.434L503.597 298.467Z" fill="#F4F1EB"/>
<path d="M502.22 245.869C502.22 245.869 507.744 249.877 499.845 255.113C499.251 255.223 498.649 255.281 498.044 255.286C498.044 255.286 496.144 252.514 496.619 246.167C498.452 245.73 500.35 245.629 502.22 245.869Z" fill="#534741"/>
<path d="M503.217 330.083C503.217 330.083 501.483 335.217 498.885 335.217C496.287 335.217 494.985 332.664 494.985 332.664C495.883 331.787 497.308 329.752 498.871 327.325C501.455 327.498 503.217 330.083 503.217 330.083Z" fill="#F4F1EB"/>
<path d="M491.347 227.953C499.488 223.926 507.117 227.533 513.301 230.926C513.301 230.926 502.585 228.863 498.002 229.059C493.418 229.255 485.4 236.111 485.4 236.111L483.904 234.767C483.904 234.767 483.21 231.981 491.347 227.953Z" fill="#303031"/>
<path d="M494.159 273.089C499.526 283.599 492.135 281.41 492.135 281.41C496.61 279.641 494.316 273.491 494.159 273.089Z" fill="#E0AA82"/>
<path d="M488.829 280.267C486.454 280.407 481.833 279.445 482.526 277.854C483.22 276.263 488.829 280.267 488.829 280.267Z" fill="#E0AA82"/>
<path d="M478.08 577.897V578.107H405.149C405.258 565.451 400.503 552.772 400.503 552.772C396.632 538.408 380.819 509.33 380.553 508.877C408.056 517.562 445.362 531.59 478.08 577.897Z" fill="#EFBE9A"/>
<path d="M400.503 552.772C400.503 552.772 405.253 565.451 405.149 578.107H401.643C401.377 550.639 378.639 511.435 376.35 507.552L380.568 508.873C380.819 509.33 396.632 538.408 400.503 552.772Z" fill="#F9D270"/>
<path d="M377.542 328.8C380.14 327.521 384.467 323.695 382.734 322.416C381 321.137 377.637 328.59 377.542 328.8ZM383.242 363.996L383.403 363.735C385.541 362.736 392.367 358.783 395.934 358.396C399.591 357.999 400.209 355.727 400.266 355.442L400.518 355.503C400.509 355.545 400.498 355.587 400.484 355.629C398.751 361.588 397.886 367.123 402.65 373.511C407.415 379.9 406.118 395.225 380.549 399.486C375.324 400.354 371.001 401.059 367.329 401.819C353.649 404.587 349.227 407.835 344.054 421.573C343.67 406.351 339.11 391.707 332.854 377.637C329.814 358.331 308.581 331.801 299.48 295.191C290.379 258.581 318.157 245.78 318.157 245.78V245.752C324 248.552 339.447 257.498 352.167 278.778C368.203 305.602 386.405 303.474 388.571 308.584C390.737 313.694 382.719 330.083 390.091 335.184C390.908 335.745 391.65 336.405 392.3 337.149C392.3 337.149 387.27 335.399 387.27 344.34C387.27 353.281 381.636 364.351 382.938 363.94C383.047 363.903 383.204 363.837 383.413 363.749C383.361 363.828 383.308 363.912 383.275 364.001L383.242 363.996ZM320.765 305.807C320.95 305.513 326.878 295.97 330.294 292.615C333.709 289.259 345.019 287.948 345.019 287.948V285.815C345.019 285.815 343.285 283.263 334.184 286.669C325.083 290.076 322.475 298.569 320.765 305.807ZM349.864 312.84C350.376 312.456 350.853 312.028 351.289 311.561C351.289 311.561 350.424 308.099 345.004 303.871C345.686 303.446 346.414 303.098 347.175 302.835C347.175 302.835 348.04 302.41 347.175 302.41C347.175 302.41 339.808 304.113 335.039 311.776C330.374 319.266 324.475 317.399 324.214 317.315C324.461 317.423 329.947 319.77 334.607 315.607L334.768 315.458C336.621 315.733 344.653 316.667 349.864 312.84V312.84ZM374.725 332.001C368.659 332.851 367.358 324.339 367.358 324.339C368.218 338.815 374.725 332.001 374.725 332.001Z" fill="#F2C097"/>
<path d="M401.643 578.107H383.17V577.897C385.75 550.425 356.352 501.285 355.91 500.552C361.529 503.007 368.469 505.107 376.335 507.552C378.639 511.435 401.377 550.639 401.643 578.107Z" fill="#FFDC78"/>
<path d="M400.285 355.447C400.223 355.731 399.61 358.004 395.953 358.401C392.386 358.788 385.56 362.741 383.422 363.739C383.745 363.207 384.372 362.19 385.199 360.865L385.251 360.785C390.742 352.385 394.87 349.669 394.87 349.669C394.87 349.669 402.133 349.669 400.537 355.507L400.285 355.447Z" fill="#F9B19C"/>
<path d="M395.312 345.651C395.338 347.004 395.189 348.354 394.87 349.669C394.87 349.669 390.742 352.371 385.251 360.785C387.702 356.856 391.892 350.295 395.312 345.651Z" fill="#F4A592"/>
<path d="M392.3 337.158C394.675 339.869 395.278 343.136 395.297 345.651C391.877 350.295 387.697 356.851 385.237 360.785L385.184 360.865C384.605 361.756 384.006 362.731 383.398 363.744C383.204 363.833 383.047 363.898 382.923 363.935C381.622 364.36 387.255 353.291 387.255 344.335C387.255 335.38 392.3 337.158 392.3 337.158Z" fill="#F9B19C"/>
<path d="M331.111 544.633C329.735 543.159 328.281 541.757 326.755 540.433C323.401 537.237 318.442 532.575 312.98 527.656C303.176 518.864 281.63 523.657 280.927 523.82C301.58 521.02 318.974 533.555 326.774 540.433C329.211 542.776 330.802 544.335 331.111 544.633ZM340.668 533.139C340.345 533.956 340.368 534.031 340.668 533.139V533.139ZM340.668 533.111C343.911 525.527 348.794 518.726 354.979 513.18C354.666 513.376 344.529 519.713 341.556 530.209C341.166 531.599 340.867 532.542 340.677 533.111H340.668ZM355.91 500.533C356.352 501.266 385.75 550.406 383.171 577.879V578.089H304.724V577.879C294.749 550.201 265.299 516.139 265.299 516.139C267.259 515.955 269.178 515.747 271.056 515.513C271.306 515.495 271.555 515.464 271.802 515.42C313.688 509.955 333.391 490.08 342.876 437.79C343.846 432.428 344.26 426.984 344.111 421.541C349.26 407.802 353.683 404.554 367.386 401.787C367.386 401.787 351.564 427.332 344.159 458.085L344.092 458.365C342.434 465.18 341.311 472.11 340.734 479.095C339.865 490.341 345.707 496.039 355.934 500.529L355.91 500.533Z" fill="#EAB88B"/>
<path d="M382.734 322.421C384.467 323.699 380.14 327.526 377.542 328.805C377.637 328.59 381.024 321.161 382.734 322.421Z" fill="#E0AA82"/>
<path d="M367.348 324.339C367.348 324.339 368.65 332.851 374.715 332.001C374.725 332.001 368.217 338.815 367.348 324.339Z" fill="#E0AA82"/>
<path d="M355.905 500.533C345.664 496.044 339.822 490.346 340.705 479.099C341.282 472.115 342.405 465.185 344.064 458.37C343.375 461.515 337.513 490.215 355.905 500.533Z" fill="#EAB88B"/>
<path d="M345.028 303.871C350.448 308.099 351.312 311.561 351.312 311.561C350.877 312.028 350.4 312.456 349.887 312.84C340.012 315.173 340.772 307.996 340.772 307.996C341.922 306.377 343.364 304.978 345.028 303.871V303.871Z" fill="#534741"/>
<path d="M341.565 530.209C344.548 519.732 354.675 513.376 354.989 513.18C348.804 518.726 343.92 525.527 340.677 533.111C340.867 532.542 341.166 531.599 341.565 530.209Z" fill="#D19F7D"/>
<path d="M334.792 315.458L334.63 315.607C329.971 319.77 324.484 317.423 324.237 317.315C324.499 317.399 330.412 319.266 335.063 311.776C339.813 304.113 347.199 302.41 347.199 302.41C348.063 302.41 347.199 302.835 347.199 302.835C346.438 303.098 345.71 303.446 345.028 303.871C343.358 304.977 341.908 306.375 340.753 307.996C338.872 310.441 337.229 313.227 334.792 315.458Z" fill="#303031"/>
<path d="M340.748 307.996C340.748 307.996 339.988 315.159 349.863 312.84C344.638 316.685 336.62 315.738 334.792 315.458C337.228 313.227 338.872 310.441 340.748 307.996Z" fill="white"/>
<path d="M345.028 285.801V287.934C345.028 287.934 333.761 289.208 330.303 292.601C326.845 295.993 320.96 305.499 320.774 305.793C322.503 298.555 325.106 290.048 334.203 286.66C343.299 283.272 345.028 285.801 345.028 285.801Z" fill="#303031"/>
<path d="M344.097 421.559C344.245 427.003 343.832 432.447 342.862 437.809C333.362 490.075 313.673 509.974 271.788 515.439L271.042 515.532C268.838 515.695 265.902 514.991 262.715 513.815C258.4 512.146 254.217 510.167 250.199 507.893C248.361 506.707 246.318 505.354 244.048 503.809C242.819 502.99 241.489 502.327 240.091 501.835V501.835C236.894 500.678 232.966 500.104 228.577 500.211C227.046 500.248 225.518 500.36 223.998 500.547C200.291 503.459 167.136 524.814 160.419 577.902V578.112H141.12C174.489 437.603 115.983 420.57 136.783 325.617C157.583 230.665 219.129 209.8 262.468 200.859C305.807 191.917 315.777 244.725 315.777 244.725C315.777 244.725 286.09 251.324 293.452 293.478C297.984 319.397 319.392 347.252 332.877 377.627C339.152 391.707 343.712 406.337 344.097 421.559Z" fill="#303031"/>
<path d="M312.975 527.651C318.457 532.57 323.425 537.232 326.75 540.429C318.951 533.55 301.575 521.015 280.903 523.815C281.625 523.652 303.157 518.859 312.975 527.651Z" fill="#D19F7D"/>
<path d="M332.896 377.618C319.397 347.243 297.989 319.387 293.471 293.469C286.104 251.315 315.796 244.716 315.796 244.716C315.796 244.716 316.666 245.024 318.171 245.752V245.78C318.171 245.78 290.436 258.553 299.537 295.172C308.638 331.791 329.856 358.312 332.896 377.618Z" fill="#E0AA82"/>
<path d="M304.724 577.897V578.107H280.846C276.053 554.667 238.694 511.593 230.254 502.092C236.02 501.285 239.806 501.793 240.077 501.831C240.077 501.831 244.494 504.743 250.185 507.897C262.026 515.523 265.271 516.162 265.271 516.162C265.271 516.162 294.754 550.219 304.724 577.897Z" fill="#FFDC78"/>
<path d="M280.846 578.107H271.769C269.669 555.367 234.799 513.199 225.993 502.871C227.503 502.526 228.933 502.274 230.268 502.092C238.694 511.593 276.053 554.667 280.846 578.107Z" fill="#F9D270"/>
<path d="M271.769 578.107H169.012C181.533 521.818 209.107 506.707 226.012 502.871C234.799 513.199 269.669 555.367 271.769 578.107Z" fill="#EAB88B"/>
<path d="M262.715 513.815C265.903 514.991 268.838 515.681 271.042 515.532C269.164 515.768 267.245 515.977 265.285 516.157C264.5 515.307 263.64 514.527 262.715 513.824V513.815Z" fill="#303031"/>
<path d="M262.715 513.819C263.64 514.522 264.499 515.303 265.285 516.153C265.285 516.153 262.041 515.513 250.199 507.888C254.217 510.162 258.4 512.141 262.715 513.81V513.819Z" fill="#303031"/>
<path d="M240.077 501.831C239.806 501.793 236.02 501.285 230.254 502.092C229.228 500.935 228.624 500.277 228.563 500.225C232.952 500.099 236.88 500.673 240.077 501.831Z" fill="#FFDC78"/>
<path d="M228.563 500.207C228.624 500.277 229.228 500.935 230.254 502.073C228.933 502.255 227.503 502.507 225.979 502.853C224.701 501.35 223.969 500.519 223.969 500.519C225.494 500.339 227.027 500.235 228.563 500.207V500.207Z" fill="#F9D270"/>
<path d="M223.984 500.533C223.984 500.533 224.715 501.359 225.993 502.867C209.107 506.703 181.533 521.813 168.993 578.103H160.405V577.893C167.122 524.8 200.277 503.455 223.984 500.533Z" fill="#E0AA82"/>
<path d="M492.872 181.436C492.872 181.436 521.32 208.755 531.86 236.111Z" fill="#F2C097"/>
</g>
<defs>
<clipPath id="clip0_82_3">
<rect width="513" height="504" fill="white" transform="translate(113 74)"/>
</clipPath>
</defs>
</svg>
