<svg width="776" height="692" viewBox="0 0 776 692" fill="none" xmlns="http://www.w3.org/2000/svg">
<path d="M372.865 169.623C379.609 188.888 367.535 210.552 345.899 217.999C324.263 225.447 301.259 215.879 294.515 196.614C287.771 177.349 299.845 155.685 321.48 148.236C343.114 140.787 366.121 150.358 372.865 169.623ZM338.896 197.644C349.082 194.135 354.953 184.487 352.021 176.101C349.088 167.715 338.45 163.753 328.268 167.267C318.086 170.78 312.206 180.417 315.14 188.803C318.074 197.189 328.714 201.146 338.896 197.639V197.644Z" fill="#F4DEBE"/>
<path d="M372.865 169.623C379.609 188.888 367.535 210.552 345.899 217.999C324.263 225.447 301.259 215.879 294.515 196.614C287.771 177.349 299.845 155.685 321.48 148.236C343.114 140.787 366.121 150.358 372.865 169.623Z" stroke="#F4DEBE" stroke-miterlimit="10"/>
<path d="M352.021 176.101C354.953 184.487 349.082 194.135 338.896 197.639C328.711 201.143 318.078 197.19 315.141 188.803C312.203 180.416 318.081 170.772 328.268 167.267C338.455 163.761 349.082 167.711 352.021 176.101Z" stroke="#F4DEBE" stroke-miterlimit="10"/>
<path d="M370.485 163.553C377.229 182.818 365.155 204.477 343.528 211.923C321.902 219.369 298.879 209.809 292.135 190.544C285.391 171.279 297.465 149.615 319.101 142.168C340.737 134.721 363.741 144.288 370.485 163.553ZM336.518 191.574C346.702 188.058 352.573 178.418 349.642 170.031C346.711 161.644 336.07 157.689 325.889 161.197C315.709 164.704 309.828 174.347 312.762 182.735C315.696 191.122 326.334 195.079 336.518 191.569V191.574Z" fill="#F7AADE"/>
<path d="M370.485 163.553C377.229 182.818 365.155 204.477 343.528 211.923C321.902 219.369 298.879 209.809 292.135 190.544C285.391 171.279 297.465 149.615 319.101 142.168C340.737 134.721 363.741 144.288 370.485 163.553Z" stroke="#F7AADE" stroke-miterlimit="10"/>
<path d="M349.642 170.031C352.573 178.418 346.702 188.058 336.518 191.569C326.334 195.079 315.697 191.12 312.762 182.735C309.826 174.349 315.702 164.698 325.889 161.197C336.077 157.696 346.702 161.641 349.642 170.031Z" stroke="#F7AADE" stroke-miterlimit="10"/>
<path d="M330.318 217.217C330.318 217.217 329.101 215.514 333.69 215.671C338.279 215.829 336.58 214.141 336.58 214.141L331.14 213.467L329.101 215.142L330.318 217.217Z" fill="#F7AADE"/>
<path d="M373.8 180.597C373.46 178.911 373.119 176.888 373.119 175.202C373.119 175.202 372.44 166.771 370.739 165.423C369.038 164.076 363.26 180.934 363.26 180.934L336.749 202.508L315.328 203.52L295.802 197.935C295.802 197.935 303.102 210.937 303.777 217.008C304.453 223.078 302.418 223.414 302.078 226.786C301.738 230.158 304.117 232.183 305.817 232.859C307.516 233.536 310.577 233.535 311.599 232.859C312.621 232.184 314.315 230.161 312.955 226.116C311.596 222.07 308.195 217.686 308.876 215.325C309.557 212.963 311.256 212.963 311.935 212.963C312.614 212.963 315.334 213.974 315.334 215.325C315.334 216.675 314.315 220.383 316.354 221.732C318.393 223.081 320.432 222.068 320.774 221.732C321.115 221.395 322.473 220.046 322.134 218.36C321.846 216.943 323.257 214.549 325.34 214.656C325.453 214.724 325.575 214.777 325.702 214.813C327.71 215.477 327.792 217.157 327.794 217.209C327.783 218.311 327.644 219.871 327.062 221.22C326.042 223.581 326.721 225.604 328.42 225.943C329.941 226.243 331.999 222.774 330.601 218.061C330.601 218.061 330.217 216.508 332.716 215.658C332.875 215.603 333.017 215.548 333.136 215.501C334.398 215.588 336.074 215.556 337.421 214.983C339.801 213.971 340.82 213.634 342.859 213.971C344.898 214.308 348.638 214.308 349.658 212.622C350.678 210.936 351.705 209.588 352.732 209.247C353.758 208.905 356.131 208.573 356.47 208.573C356.81 208.573 358.509 208.573 359.53 206.55C360.55 204.527 359.869 203.177 361.91 201.828C363.95 200.479 365.989 200.479 367.689 198.117C369.388 195.756 369.388 191.71 369.388 190.025C369.388 188.339 371.427 185.302 372.448 184.967C373.468 184.631 374.139 182.275 373.8 180.597Z" fill="#F7AADE"/>
<path d="M330.816 146.025H324.326C324.148 146.025 324.003 146.168 324.003 146.346V147.389C324.003 147.567 324.148 147.711 324.326 147.711H330.816C330.995 147.711 331.14 147.567 331.14 147.389V146.346C331.14 146.168 330.995 146.025 330.816 146.025Z" fill="#90EDFC"/>
<path d="M316.521 151.585L310.28 153.352C310.108 153.401 310.008 153.579 310.057 153.749L310.346 154.753C310.395 154.923 310.574 155.022 310.746 154.974L316.987 153.207C317.159 153.158 317.258 152.98 317.209 152.81L316.921 151.806C316.872 151.635 316.692 151.537 316.521 151.585Z" fill="#EF4D70"/>
<path d="M313.131 162.585L307.51 159.366C307.355 159.277 307.157 159.33 307.068 159.483L306.542 160.387C306.452 160.541 306.506 160.737 306.66 160.826L312.281 164.045C312.436 164.134 312.634 164.081 312.723 163.927L313.249 163.024C313.338 162.87 313.285 162.674 313.131 162.585Z" fill="#90EDFC"/>
<path d="M356.64 162.586L351.019 159.366C350.865 159.278 350.667 159.33 350.577 159.484L350.051 160.388C349.962 160.541 350.015 160.738 350.17 160.827L355.79 164.046C355.945 164.134 356.143 164.082 356.232 163.928L356.758 163.024C356.848 162.871 356.795 162.674 356.64 162.586Z" fill="#AFCEAB"/>
<path d="M303.039 166.3L296.684 167.605C296.509 167.641 296.396 167.811 296.433 167.984L296.646 169.006C296.682 169.18 296.853 169.292 297.028 169.256L303.384 167.951C303.559 167.915 303.671 167.745 303.635 167.572L303.422 166.55C303.386 166.376 303.214 166.264 303.039 166.3Z" fill="#AFCEAB"/>
<path d="M310.082 175.026H303.592C303.413 175.026 303.268 175.17 303.268 175.347V176.391C303.268 176.568 303.413 176.712 303.592 176.712H310.082C310.261 176.712 310.405 176.568 310.405 176.391V175.347C310.405 175.17 310.261 175.026 310.082 175.026Z" fill="#90EDFC"/>
<path d="M359.028 172.328H352.538C352.359 172.328 352.214 172.471 352.214 172.649V173.692C352.214 173.87 352.359 174.014 352.538 174.014H359.028C359.207 174.014 359.352 173.87 359.352 173.692V172.649C359.352 172.471 359.207 172.328 359.028 172.328Z" fill="#90EDFC"/>
<path d="M302.082 185.574L297.956 180.604C297.843 180.467 297.639 180.447 297.501 180.56L296.688 181.224C296.55 181.336 296.531 181.539 296.644 181.676L300.77 186.646C300.884 186.783 301.088 186.802 301.226 186.69L302.038 186.026C302.176 185.913 302.195 185.711 302.082 185.574Z" fill="#EF4D70"/>
<path d="M368.026 177.816L363.901 172.846C363.787 172.709 363.583 172.69 363.445 172.803L362.633 173.466C362.495 173.579 362.475 173.781 362.589 173.918L366.714 178.888C366.828 179.025 367.032 179.045 367.17 178.932L367.982 178.268C368.12 178.156 368.14 177.953 368.026 177.816Z" fill="#EF4D70"/>
<path d="M311.182 185.545L306.86 187.596C306.699 187.672 306.631 187.864 306.708 188.024L307.162 188.965C307.239 189.125 307.432 189.193 307.593 189.117L311.915 187.066C312.076 186.99 312.145 186.798 312.067 186.638L311.614 185.696C311.536 185.536 311.343 185.469 311.182 185.545Z" fill="#AFCEAB"/>
<path d="M341.772 151.824L337.45 153.874C337.289 153.951 337.221 154.142 337.298 154.302L337.752 155.244C337.829 155.404 338.022 155.472 338.183 155.395L342.505 153.345C342.666 153.268 342.735 153.076 342.657 152.916L342.204 151.975C342.126 151.815 341.933 151.747 341.772 151.824Z" fill="#90EDFC"/>
<path d="M319.555 196.783L314.082 193.322C313.931 193.227 313.731 193.271 313.635 193.421L313.069 194.301C312.973 194.45 313.017 194.649 313.168 194.744L318.641 198.204C318.792 198.3 318.992 198.256 319.088 198.106L319.654 197.226C319.75 197.077 319.705 196.878 319.555 196.783Z" fill="#EF4D70"/>
<path d="M306.566 193.909L300.435 196.021C300.266 196.079 300.177 196.262 300.235 196.429L300.58 197.415C300.639 197.583 300.824 197.671 300.992 197.613L307.123 195.501C307.292 195.443 307.382 195.26 307.323 195.093L306.978 194.107C306.919 193.939 306.735 193.85 306.566 193.909Z" fill="#90EDFC"/>
<path d="M366.048 162.211L359.918 164.323C359.749 164.381 359.659 164.564 359.718 164.732L360.063 165.718C360.122 165.885 360.306 165.974 360.475 165.916L366.606 163.803C366.775 163.745 366.864 163.562 366.806 163.395L366.46 162.409C366.402 162.241 366.217 162.153 366.048 162.211Z" fill="#90EDFC"/>
<path d="M356.191 150.07L350.06 152.182C349.892 152.24 349.802 152.423 349.861 152.591L350.206 153.577C350.265 153.744 350.449 153.833 350.618 153.775L356.749 151.663C356.918 151.605 357.007 151.422 356.948 151.254L356.603 150.268C356.545 150.101 356.36 150.012 356.191 150.07Z" fill="#90EDFC"/>
<path d="M313.481 200.317H308.69C308.511 200.317 308.366 200.46 308.366 200.638V201.681C308.366 201.859 308.511 202.003 308.69 202.003H313.481C313.659 202.003 313.804 201.859 313.804 201.681V200.638C313.804 200.46 313.659 200.317 313.481 200.317Z" fill="#AFCEAB"/>
<path d="M328.776 201.664H322.286C322.107 201.664 321.962 201.808 321.962 201.985V203.029C321.962 203.206 322.107 203.35 322.286 203.35H328.776C328.955 203.35 329.1 203.206 329.1 203.029V201.985C329.1 201.808 328.955 201.664 328.776 201.664Z" fill="#90EDFC"/>
<path d="M343.804 204.976L337.799 202.533C337.634 202.466 337.445 202.544 337.377 202.708L336.978 203.674C336.91 203.838 336.989 204.026 337.155 204.093L343.159 206.536C343.325 206.603 343.514 206.525 343.582 206.361L343.981 205.395C344.049 205.231 343.969 205.043 343.804 204.976Z" fill="#EF4D70"/>
<path d="M349.829 194.077L343.588 195.844C343.416 195.892 343.316 196.07 343.365 196.241L343.654 197.244C343.703 197.415 343.882 197.514 344.054 197.465L350.295 195.698C350.467 195.649 350.567 195.471 350.518 195.301L350.229 194.297C350.18 194.127 350.001 194.028 349.829 194.077Z" fill="#90EDFC"/>
<path d="M356.649 185.815H350.159C349.981 185.815 349.836 185.959 349.836 186.136V187.18C349.836 187.357 349.981 187.501 350.159 187.501H356.649C356.828 187.501 356.973 187.357 356.973 187.18V186.136C356.973 185.959 356.828 185.815 356.649 185.815Z" fill="#AFCEAB"/>
<path d="M366.272 183.157L360.11 181.137C359.94 181.082 359.757 181.173 359.701 181.341L359.371 182.332C359.315 182.501 359.407 182.682 359.577 182.738L365.739 184.758C365.909 184.813 366.092 184.722 366.148 184.553L366.478 183.562C366.534 183.394 366.442 183.212 366.272 183.157Z" fill="#90EDFC"/>
<path d="M327.826 151.181L322.331 154.607C322.18 154.702 322.134 154.9 322.229 155.05L322.789 155.934C322.884 156.084 323.084 156.129 323.235 156.035L328.73 152.609C328.881 152.514 328.927 152.316 328.832 152.166L328.272 151.282C328.177 151.132 327.977 151.087 327.826 151.181Z" fill="#AFCEAB"/>
<path d="M345.143 145.222L338.667 144.8C338.489 144.788 338.335 144.922 338.323 145.099L338.254 146.14C338.242 146.317 338.377 146.47 338.556 146.482L345.032 146.904C345.21 146.916 345.364 146.782 345.376 146.605L345.445 145.563C345.457 145.386 345.322 145.233 345.143 145.222Z" fill="#EF4D70"/>
<path d="M336.205 195.79L329.723 196.09C329.544 196.098 329.406 196.248 329.414 196.425L329.463 197.468C329.472 197.645 329.623 197.782 329.802 197.774L336.285 197.474C336.463 197.465 336.601 197.315 336.593 197.138L336.544 196.095C336.536 195.918 336.384 195.781 336.205 195.79Z" fill="#AFCEAB"/>
<path d="M58.6115 411.86L206.475 397C206.475 397 231.731 413.796 226.394 451.622" fill="#554A56"/>
<path d="M226.394 451.622L58.6116 411.859L48.5864 472.689L205.425 509.858L226.394 451.622Z" fill="#F4E5CB"/>
<path d="M56.4351 425.07L221.84 464.269L218.136 474.56L54.6638 435.819L56.4351 425.07Z" fill="#AF6188"/>
<path d="M53.199 444.702L214.94 483.033L212.041 491.483L51.7501 453.496L53.199 444.702Z" fill="#AF6188"/>
<path d="M62.5808 411.967L226.521 450.819C226.521 450.819 226.779 456.774 226.219 459.137C225.659 461.501 224.138 464.407 220.24 459.771C216.342 455.134 212.702 452.931 208.216 452.538C203.729 452.145 194.907 454.213 188.973 451.136C183.039 448.058 174.116 443.779 164.481 442.165C154.846 440.552 133.596 438.85 125.485 434.427C117.374 430.003 105.732 426.417 102.577 425.669C99.421 424.921 89.5051 425.39 83.7261 423.027C77.947 420.665 77.7144 418.114 72.2007 416.807C66.6871 415.5 59.8646 417.373 59.8646 417.373C59.8646 417.373 53.9263 416.635 57.4088 412.471C57.4089 412.482 58.6399 411.033 62.5808 411.967Z" fill="#7E448C"/>
<path d="M192.897 394.741C192.897 394.741 188.832 396.98 184.126 395.865C179.42 394.75 174.53 394.424 171.288 394.902C168.046 395.381 161.873 398.909 157.955 397.981C154.037 397.052 148.359 396.537 144.478 398.943C140.596 401.349 135.889 400.236 126.892 399.767C117.895 399.298 112.062 402.905 108.561 403.738C105.06 404.571 98.1821 402.111 93.7925 403.564C89.403 405.017 86.9002 407.75 79.0713 405.895C76.0515 405.179 72.6046 405.873 69.5083 406.994C69.5083 406.994 66.963 408.022 63.0423 407.093C59.1216 406.164 56.9531 413.071 56.9531 413.071L60.5257 411.667L200.631 399.296L201.457 395.811L192.897 394.741Z" fill="#7E448C"/>
<path d="M200.574 415.563C207.719 417.257 214.89 412.812 216.591 405.636C218.291 398.46 213.878 391.27 206.733 389.576C199.587 387.883 192.417 392.328 190.716 399.504C189.015 406.68 193.429 413.87 200.574 415.563Z" fill="#4E2656"/>
<path d="M213.271 431.879C220.416 433.572 227.587 429.128 229.288 421.952C230.988 414.775 226.575 407.585 219.43 405.892C212.284 404.199 205.114 408.643 203.413 415.82C201.712 422.996 206.126 430.186 213.271 431.879Z" fill="#573060"/>
<path d="M220.327 451.014C227.472 452.708 234.643 448.263 236.344 441.087C238.044 433.911 233.631 426.721 226.486 425.027C219.341 423.334 212.17 427.779 210.469 434.955C208.768 442.131 213.182 449.321 220.327 451.014Z" fill="#663E70"/>
<path d="M208.804 329.793L208.789 329.739L207.363 330.144L205.924 330.494L205.938 330.549L145.598 347.728C145.598 347.728 149.344 360.472 154.26 361.259C158.459 361.929 198.936 351.746 210.601 348.776L210.607 348.799L212.171 348.386L213.738 347.973L213.732 347.95C225.345 344.785 265.584 333.692 268.905 331.04C272.796 327.937 269.772 314.998 269.772 314.998L208.804 329.793Z" fill="#EFC059"/>
<path d="M266.047 293.867L136.268 328.075C133.748 328.739 132.24 331.307 132.899 333.809L136.016 345.632C136.675 348.134 139.253 349.625 141.773 348.96L271.552 314.752C274.072 314.088 275.581 311.521 274.921 309.018L271.805 297.195C271.145 294.693 268.567 293.202 266.047 293.867Z" fill="#8C6226"/>
<path d="M261.145 286.327L137.797 318.84C136.742 319.118 136.111 320.193 136.387 321.241L137.691 326.189C137.967 327.237 139.047 327.861 140.102 327.583L263.449 295.07C264.504 294.791 265.135 293.717 264.859 292.669L263.555 287.721C263.279 286.673 262.2 286.049 261.145 286.327Z" fill="#EA844B"/>
<path d="M129.434 315.104C129.434 315.104 119.056 325.381 130.921 321.305C142.787 317.228 174.902 311.05 185.198 312.779C195.495 314.507 200.58 310.992 201.515 310.765C202.45 310.538 241.474 291.994 255.954 288.513C270.433 285.032 275.672 283.391 272.933 280.612C270.194 277.833 261.778 279.847 261.778 279.847L134.837 310.359L129.434 315.104Z" fill="#F4DF47"/>
<path d="M268.564 274.92C268.432 274.882 268.3 274.848 268.162 274.824C266.383 274.431 258.96 273.142 251.305 276.973C250.422 277.411 249.562 277.894 248.73 278.42L143.478 301.757L133.788 308.044C133.788 308.044 126.865 309.17 127.894 311.113C128.923 313.056 135.107 310.063 136.748 310.935C138.388 311.807 133.876 314.242 135.723 315.414C137.571 316.586 141.263 316.856 143.162 314.283C145.061 311.71 144.963 310.076 147.46 309.418C149.957 308.76 148.436 310.817 149.227 311.855C150.017 312.892 151.666 313.284 153.974 312.262C156.282 311.241 155.28 307.921 157.342 306.682C159.403 305.442 161.91 305.193 162.595 305.842C163.281 306.491 161.28 308.677 162.172 310.102C163.065 311.526 164.889 310.629 166.438 310.634C167.988 310.639 168.191 311.418 169.257 311.55C170.323 311.683 172.471 311.533 173.174 310.518C173.877 309.503 170.65 307.047 171.407 306.008C172.165 304.969 173.993 304.081 176.025 303.961C178.056 303.842 176.052 306.027 177.704 306.421C179.356 306.815 180.011 305.397 182.424 304.761C184.836 304.125 187.069 304.782 188.414 304.012C189.759 303.241 187.007 302.585 187.733 301.427C188.459 300.27 192.315 299.246 192.242 300.93C192.169 302.613 195.472 303.397 196.815 302.627C198.158 301.857 198.716 300.053 200.161 299.672C201.607 299.291 203.156 299.296 203.814 297.88C204.472 296.463 203.405 296.328 203.787 295.814C204.168 295.3 204.926 294.271 208.227 295.057C211.529 295.844 208.841 297.384 209.147 298.547C209.453 299.709 210.725 300.62 211.689 300.366C212.653 300.111 213.516 299.47 214.964 299.089C216.411 298.707 219.309 300.145 221.918 298.139C224.527 296.132 220.91 294.193 222.737 293.3C224.565 292.408 226.141 294.476 227.689 294.482C229.236 294.487 231.065 293.592 231.927 292.951C232.79 292.31 231.912 288.133 233.718 287.579C235.525 287.025 235.553 289.093 236.722 289.614C237.891 290.136 239.717 289.238 240.783 289.371C241.849 289.503 241.673 290.796 243.428 291.579C245.182 292.362 247.592 291.724 248.443 291.086C249.294 290.449 250.722 287.997 249.247 286.313C247.772 284.629 250.079 283.605 251.145 283.737C252.212 283.87 251.861 286.451 253.03 286.973C254.198 287.494 257.019 288.41 260.949 285.715C264.878 283.02 261.579 282.24 261.272 281.075C260.965 279.91 263.375 279.277 263.96 279.537C264.546 279.796 266.882 280.842 267.744 280.199C268.605 279.556 267.437 279.036 268.197 278.006C268.957 276.977 269.543 277.238 269.819 276.336C270.042 275.627 269.377 275.168 268.564 274.92Z" fill="#94DD7C"/>
<path d="M260.625 274.326C261.569 270.377 261.534 266.261 260.523 262.334C254.973 241.276 221.46 231.853 185.668 241.287C149.877 250.721 125.358 275.431 130.911 296.499C131.968 300.414 133.967 304.011 136.737 306.982C136.737 306.982 217.002 291.868 260.625 274.326Z" fill="#EFC059"/>
<path d="M661.019 416.786L605.801 407.992L610.819 463.373L574.201 421.348L542.243 466.976L541.361 411.381L487.382 425.91L522.646 382.756L471.906 359.384L526.816 348.869L503.054 298.533L551.92 325.572L566.254 271.825L586.204 323.772L631.93 291.76L613.635 344.307L669.359 349.008L621.374 377.568L661.019 416.786Z" fill="#ED6E74"/>
<path d="M436.76 528.382C398.117 515.626 392.989 432.554 392.555 423.785C396.733 419.639 416.3 398.949 417.512 373.578C424.866 371.205 429.796 369.113 429.796 369.113C430.124 369.425 430.555 369.607 431.008 369.624H441.506C447.335 373.986 454.045 388.974 460.748 403.146C461.845 405.48 462.948 407.783 464.051 410.015C469.638 421.367 475.111 430.832 479.996 431.744C491.661 433.925 528.978 448.097 528.978 448.097C529.348 447.459 529.718 446.822 530.088 446.133C530.088 446.133 537.142 486.256 523.143 508.056C509.143 529.855 479.996 540.761 438.011 528.771L436.76 528.382Z" fill="#C77430"/>
<path d="M455.021 298.912C458.003 294.75 459.413 289.665 459 284.562C459 284.562 462.489 292.215 456.666 302.005L456.475 302.095C456.028 301.036 455.537 299.945 455.021 298.912Z" fill="#D89C73"/>
<path d="M456.666 302.005C456.666 302.005 477.917 301.482 492.535 289.938C496.917 294.224 498.652 302.005 498.652 302.005C484.652 302.005 459.581 315.635 459.581 315.635C459.581 311.17 458.305 306.464 456.475 302.095L456.666 302.005Z" fill="#D89C73"/>
<path d="M451.13 292.107C452.563 294.301 453.862 296.58 455.02 298.931C453.054 300.072 451.01 301.074 448.904 301.929C449.934 298.727 450.679 295.44 451.13 292.107Z" fill="#303031"/>
<path d="M435.714 257.328C436.02 257.567 436.354 257.767 436.709 257.921C436.186 257.596 435.836 257.398 435.714 257.328ZM436.741 257.966C440.464 260.407 443.645 263.588 446.087 267.311C448.528 271.033 450.177 275.219 450.932 279.606C449.261 282.4 445.141 283.567 443.189 283.981C442.864 284.023 442.54 284.08 442.22 284.154H442.143C437.583 285.136 428.055 288.816 421.262 287.126C420.407 286.926 419.579 286.62 418.8 286.214C417.761 285.664 416.813 284.959 415.988 284.122C411.523 279.485 413.972 272.642 412.971 269.861C411.804 266.589 408.302 268.77 408.302 262.207C408.316 260.92 408.461 259.638 408.736 258.381C409.82 253.183 412.282 248.265 409.47 244.751C407.059 241.747 407.256 236.709 407.614 233.909C407.652 234.075 407.69 234.247 407.722 234.425C407.746 233.547 407.831 232.671 407.977 231.804C408.369 229.33 409.065 226.913 410.05 224.61C410.05 224.61 413.545 243.144 428.712 243.144C428.712 243.144 429.879 238.781 435.727 243.144C441.123 247.213 441.48 259.86 436.741 257.941V257.966Z" fill="#E0A379"/>
<path d="M448.904 301.91C451.01 301.055 453.054 300.053 455.02 298.912C452.968 301.874 450.358 304.406 447.335 306.368C447.93 304.846 448.453 303.36 448.904 301.91Z" fill="#303031"/>
<path d="M451.13 292.107C450.679 295.44 449.934 298.727 448.904 301.929C432.487 308.587 419.343 303.115 419.343 303.115C422.838 298.753 421.256 287.171 421.256 287.171C428.048 288.861 437.577 285.181 442.137 284.198H442.214C442.354 284.198 442.705 284.122 443.183 284.026C443.592 283.942 444.016 283.964 444.414 284.09C445.383 284.454 448.177 287.585 451.13 292.107Z" fill="#2B2B2B"/>
<path d="M444.414 284.02C444.016 283.893 443.592 283.871 443.183 283.956C445.135 283.541 449.255 282.374 450.926 279.581C451.63 283.715 451.697 287.933 451.124 292.088C448.177 287.585 445.383 284.454 444.414 284.02Z" fill="#D89C73"/>
<path d="M464.058 410.008C462.955 407.776 461.851 405.474 460.754 403.139C454.051 388.968 447.361 373.98 441.512 369.617H431.008C430.555 369.6 430.124 369.419 429.796 369.107C429.421 368.78 429.09 368.405 428.814 367.991C423.928 360.924 419.61 333.225 413.507 330.361C413.161 330.209 412.831 330.021 412.525 329.8C412.386 329.623 412.237 329.455 412.078 329.296C411.032 326.835 427.155 325.871 433.329 324.915C439.777 323.913 457.138 317.351 459.804 316.324L459.568 315.648C459.568 315.648 484.639 302.018 498.639 302.018C498.639 302.018 517.294 299.837 535.956 335.821C554.031 370.663 541.473 424.933 530.069 446.158C529.699 446.847 529.329 447.504 528.959 448.123C528.959 448.123 491.642 433.951 479.977 431.77C475.117 430.826 469.645 421.361 464.058 410.008Z" fill="#FFDC78"/>
<path d="M362.796 334.156L363.185 333.914C366.745 334.005 370.307 333.907 373.856 333.621C400.209 330.432 412.123 329.794 412.525 329.794C412.831 330.015 413.161 330.203 413.507 330.355C419.611 333.206 423.928 360.905 428.814 367.984C428.846 368.093 428.878 369.796 401.855 375.064C375.571 380.166 363.173 375.97 361.757 375.434L361.648 375.389H361.616C358.727 374.031 356.01 372.653 353.459 371.295C338.669 363.418 329.542 356.103 324.88 354.361C323.695 353.927 322.55 353.394 321.455 352.767C316.92 350.146 312.966 345.426 312.048 335.802C310.88 323.811 320.211 312.911 336.545 312.911C333.082 317.293 330.703 320.533 330.703 320.533C330.703 320.533 340.908 330.782 358.491 333.416H358.613C359.939 333.614 361.304 333.774 362.701 333.876H362.905C362.861 333.966 362.825 334.06 362.796 334.156Z" fill="#E0A379"/>
<path d="M436.761 528.382C375.533 544.046 366.285 470.439 366.285 470.439L366.062 470.299L366.132 470.203C372.127 460.878 377.459 451.707 381.719 443.907C386.822 434.646 390.374 427.433 391.822 424.48C391.937 424.371 392.186 424.142 392.555 423.772C392.989 432.554 398.117 515.626 436.761 528.382Z" fill="#B76935"/>
<path d="M412.933 269.848C413.934 272.648 411.504 279.472 415.949 284.109C414.585 294.951 399.118 286.354 393.754 283.018C392.626 282.311 391.949 281.839 391.949 281.839C391.949 281.839 379.124 287.292 375.629 297.101C372.44 305.953 360.768 328.99 358.51 333.423C340.946 330.789 330.722 320.54 330.722 320.54C330.722 320.54 333.101 317.3 336.564 312.918C341.124 307.133 347.579 299.333 352.885 294.377C362.197 285.653 370.367 273.662 370.367 273.662C370.367 273.662 372.701 269.3 379.698 268.209C386.694 267.118 400.4 257.322 408.704 258.4C408.429 259.657 408.284 260.94 408.27 262.227C408.264 268.758 411.766 266.595 412.933 269.848Z" fill="#D89C73"/>
<path d="M412.091 329.284C412.193 329.484 412.342 329.656 412.525 329.787C412.11 329.787 400.209 330.425 373.855 333.614C370.306 333.901 366.745 333.999 363.185 333.908C367.057 331.529 397.875 313.288 412.091 329.284Z" fill="#CE7736"/>
<path d="M410.012 224.603C409.027 226.907 408.33 229.323 407.939 231.798C407.939 231.798 407.741 232.627 407.575 233.902C404.386 217.836 413.507 207.16 413.507 207.16C425.172 192.988 453.171 186.451 474.154 197.351C495.137 208.251 510.317 233.328 505.648 267.118C505.082 271.601 503.631 275.926 501.38 279.843C499.129 283.761 496.123 287.192 492.535 289.938C477.917 301.482 456.666 302.005 456.666 302.005C462.489 292.196 459 284.562 459 284.562C459.413 289.665 458.002 294.75 455.02 298.912C453.862 296.561 452.563 294.282 451.13 292.088C451.703 287.933 451.637 283.715 450.932 279.581C450.177 275.193 448.528 271.008 446.087 267.285C443.646 263.562 440.464 260.382 436.741 257.941C441.48 259.854 441.123 247.213 435.67 243.138C429.841 238.775 428.654 243.138 428.654 243.138C413.507 243.138 410.012 224.603 410.012 224.603Z" fill="#303031"/>
<path d="M391.356 423.019C380.858 406.666 347.304 394.478 347.304 394.478C350.793 385.135 353.459 371.269 353.459 371.269C356.01 372.628 358.727 374.005 361.616 375.364H361.648L361.757 375.408C363.032 376.046 364.34 376.62 365.692 377.22C380.272 383.668 403.379 378.119 417.512 373.552C416.3 398.924 396.733 419.613 392.556 423.759C392.556 423.268 392.524 423.007 392.524 423.007C392.524 423.007 392.46 423.147 392.326 423.421L391.356 423.019Z" fill="#CE7736"/>
<path d="M344.619 413.287C339.606 410.736 339.345 408.765 340.85 406.016C341.73 404.415 343.216 402.527 344.677 400.097C345.712 398.299 346.58 396.409 347.272 394.453C347.272 394.453 380.826 406.641 391.324 422.994L392.294 423.408C392.173 423.644 392.013 424.008 391.79 424.454C390.342 427.407 386.764 434.621 381.687 443.881C376.745 433.167 363.351 420.838 349.371 415.385C347.457 414.632 345.882 413.956 344.619 413.287Z" fill="#B76930"/>
<path d="M375.616 297.101C379.111 287.292 391.937 281.839 391.937 281.839C391.937 281.839 392.613 282.31 393.742 283.018C390.298 282.578 380.858 291.118 378.524 298.734C376.324 305.934 364.263 331.095 362.911 333.907H362.713C361.317 333.805 359.952 333.646 358.625 333.448H358.504C360.755 329.003 372.452 305.953 375.616 297.101Z" fill="#D89C73"/>
<path d="M417.512 373.565C403.379 378.132 380.272 383.68 365.692 377.232C364.34 376.633 363.032 376.027 361.757 375.421C363.172 375.957 375.571 380.16 401.854 375.051C428.877 369.783 428.846 368.08 428.814 367.972C429.09 368.386 429.421 368.761 429.796 369.088C429.796 369.088 424.866 371.193 417.512 373.565Z" fill="#CE7736"/>
<path d="M349.371 415.385C363.351 420.838 376.745 433.167 381.719 443.9C377.459 451.669 372.153 460.872 366.132 470.196L366.062 470.292C359.575 480.388 352.292 490.625 344.709 499.324C344.709 499.324 334.211 515.677 322.546 506.978C310.88 498.278 301.556 494.987 301.556 494.987C301.556 494.987 314.375 486.269 326.041 460.1C331.06 448.862 334.332 439.627 336.838 432.337C340.104 422.739 342.004 416.482 344.619 413.331C345.882 413.956 347.458 414.632 349.371 415.385Z" fill="#E0A379"/>
<path d="M353.459 371.269C353.459 371.269 350.793 385.135 347.304 394.478C346.612 396.435 345.743 398.324 344.709 400.123C343.216 402.553 341.73 404.441 340.882 406.041C334.689 399.982 311.773 394.478 311.773 394.478C312.196 392.38 312.303 390.23 312.092 388.1C310.925 378.285 321.499 352.71 321.499 352.71C322.594 353.336 323.74 353.87 324.924 354.304C329.548 356.077 338.669 363.393 353.459 371.269Z" fill="#C77430"/>
<path d="M340.85 406.041C339.345 408.79 339.574 410.742 344.619 413.312C342.004 416.463 340.104 422.72 336.838 432.318C327.405 419.639 314.19 420.149 308.208 418.861C306.237 418.446 305.019 417.828 305.019 416.476C305.019 412.139 310.179 402.98 311.703 394.478C311.703 394.478 334.651 399.982 340.85 406.041Z" fill="#B76930"/>
<path d="M336.838 432.318C334.338 439.608 331.06 448.843 326.041 460.081C314.375 486.23 301.556 494.968 301.556 494.968C300.752 491.218 294.164 485.159 288.985 483.488C290.93 479.387 302.908 453.812 305.045 444.793C307.379 434.984 308.234 418.835 308.234 418.835C314.19 420.149 327.405 419.665 336.838 432.318Z" fill="#D89C73"/>
<path d="M300.969 499.854C300.969 499.854 307.379 508.049 314.363 508.049C314.363 508.049 307.985 512.137 299.515 502.469C300.087 501.649 300.575 500.773 300.969 499.854Z" fill="#F3F0EA"/>
<path d="M287.486 513.502C287.486 513.502 294.559 522.221 300.389 521.156C300.389 521.156 293.405 524.23 285.229 515.065C285.987 514.536 286.74 514.013 287.486 513.502Z" fill="#F3F0EA"/>
<path d="M297.417 505.128C298.998 507.22 303.916 513.088 309.637 513.47C309.637 513.47 303.074 517.067 295.433 507.144C296.141 506.48 296.804 505.804 297.417 505.128Z" fill="#F3F0EA"/>
<path d="M256.687 536.96C263.671 543.504 271.848 551.1 292.805 546.75C313.419 542.471 344.141 517.176 345.251 516.251C344.052 517.004 305.363 541.354 288.137 544.569C271.133 547.758 257.415 537.521 256.687 536.96ZM267.613 525.671C271.44 523.477 275.687 521.047 279.871 518.464C283.698 526.456 295.006 526.577 295.695 526.577C291.013 526.532 281.727 517.31 281.727 517.31C282.907 516.557 284.08 515.805 285.228 515.033C293.405 524.198 300.389 521.124 300.389 521.124C294.559 522.214 287.486 513.47 287.486 513.47C288.456 512.782 289.4 512.099 290.305 511.423C297.71 521.392 305.045 517.884 305.045 517.884C300.389 517.884 292.289 509.912 292.289 509.912C293.399 508.999 294.457 508.094 295.42 507.163C303.074 517.087 309.624 513.49 309.624 513.49C303.884 513.107 298.986 507.239 297.404 505.147C298.171 504.313 298.876 503.424 299.515 502.488C307.998 512.157 314.363 508.068 314.363 508.068C307.347 508.068 300.969 499.873 300.969 499.873C301.666 498.344 301.871 496.637 301.556 494.987C301.556 494.987 310.88 498.259 322.545 506.978C334.211 515.696 344.709 499.324 344.709 499.324C344.709 499.324 350.538 514.587 347.043 524.396C343.548 534.205 278.226 574.545 251.407 546.202C251.407 546.202 247.88 541.24 253.881 534.919C254.909 533.858 256.03 532.892 257.23 532.03C258.907 530.805 261.254 529.37 264.003 527.763C265.132 527.093 266.356 526.398 267.613 525.671Z" fill="#303031"/>
<path d="M292.302 509.892C292.302 509.892 300.389 517.865 305.057 517.865C305.057 517.865 297.723 521.392 290.318 511.455C290.994 510.932 291.657 510.409 292.302 509.892Z" fill="#F3F0EA"/>
<path d="M281.714 517.316C281.714 517.316 291.001 526.539 295.682 526.583C294.993 526.583 283.711 526.462 279.858 518.471L281.714 517.316Z" fill="#F3F0EA"/>
<path d="M256.688 536.96C257.415 537.521 271.133 547.758 288.137 544.569C305.357 541.38 344.052 517.004 345.251 516.251C344.141 517.176 313.419 542.471 292.805 546.75C271.848 551.1 263.671 543.504 256.688 536.96Z" fill="#F3F0EA"/>
<path d="M279.163 489.081C280.598 491.263 285.101 497.373 290.784 498.106C290.784 498.106 283.959 501.333 276.995 490.893C277.76 490.268 278.487 489.668 279.163 489.081Z" fill="#F3F0EA"/>
<path d="M285.305 502.883C285.305 502.883 278.207 505.664 272.026 494.662C272.798 494.094 273.563 493.539 274.303 492.972C275.49 495.134 279.571 501.773 285.305 502.883Z" fill="#F3F0EA"/>
<path d="M263.48 500.364C264.386 501.773 269.628 509.631 275.024 509.325C274.654 509.433 267.683 511.194 261.158 501.761C261.943 501.301 262.696 500.855 263.48 500.364Z" fill="#F3F0EA"/>
<path d="M266.446 498.489C272.364 509.248 280.126 506.665 280.126 506.665C275.502 506.091 268.646 497.169 268.646 497.169L268.582 497.073C269.75 496.276 270.917 495.472 272.039 494.662C278.219 505.664 285.318 502.883 285.318 502.883C279.578 501.773 275.502 495.134 274.316 492.972C275.254 492.277 276.159 491.569 277.001 490.893C283.953 501.333 290.777 498.112 290.777 498.112C285.095 497.398 280.573 491.269 279.157 489.088C280.777 487.786 282.228 486.286 283.475 484.623C284.565 482.927 286.632 482.761 288.985 483.526C294.164 485.172 300.752 491.231 301.556 495.006C301.871 496.656 301.666 498.363 300.969 499.892C300.579 500.81 300.096 501.686 299.528 502.507C298.889 503.443 298.184 504.332 297.417 505.166C296.779 505.842 296.141 506.518 295.433 507.182C294.47 508.113 293.411 509.019 292.302 509.931C291.664 510.447 290.994 510.97 290.305 511.493C289.4 512.169 288.456 512.852 287.486 513.541C286.74 514.051 285.988 514.574 285.229 515.078C284.081 515.849 282.907 516.602 281.727 517.354L279.871 518.502C275.687 521.086 271.427 523.516 267.613 525.71C263.072 525.652 248.53 524.657 240.705 514.663C241.062 515.371 247.006 526.481 264.003 527.808C261.254 529.415 258.901 530.85 257.23 532.075C256.03 532.936 254.909 533.903 253.881 534.964C253.881 534.964 237.988 533.688 233.325 522.808C228.663 511.927 243.823 507.545 250.82 506.455C252.388 506.128 253.906 505.596 255.336 504.873C258.288 512.386 268.244 513.987 269.507 514.159C265.527 513.521 259.226 505.944 257.523 503.808C258.684 503.208 259.902 502.532 261.159 501.799C267.683 511.232 274.654 509.452 275.024 509.363C269.628 509.669 264.386 501.812 263.48 500.402C264.494 499.764 265.451 499.133 266.446 498.489Z" fill="#303031"/>
<path d="M268.633 497.168C268.633 497.168 275.502 506.097 280.113 506.665C280.113 506.665 272.352 509.248 266.433 498.489L268.557 497.073L268.633 497.168Z" fill="#F3F0EA"/>
<path d="M267.613 525.671C266.337 526.398 265.145 527.094 264.003 527.77C247.006 526.443 241.043 515.333 240.705 514.625C248.549 524.619 263.072 525.614 267.613 525.671Z" fill="#F3F0EA"/>
<path d="M269.507 514.121C268.232 513.949 258.288 512.348 255.335 504.835C256.031 504.516 256.764 504.159 257.523 503.77C259.226 505.906 265.527 513.483 269.507 514.121Z" fill="#F3F0EA"/>
<path d="M493.396 367.965C493.396 367.965 466.609 371.231 460.748 369.056C454.887 366.881 440.913 369.056 440.913 369.056" stroke="#F9D069" stroke-miterlimit="10" stroke-linecap="round"/>
<path d="M478.242 417.024C472.827 416.459 467.794 413.969 464.058 410.008" stroke="#F9D069" stroke-miterlimit="10" stroke-linecap="round"/>
<path d="M391.771 424.524C391.785 424.507 391.803 424.492 391.822 424.48C391.937 424.371 392.186 424.142 392.555 423.772C396.733 419.626 416.3 398.936 417.512 373.565C417.512 373.144 417.544 372.704 417.55 372.29" stroke="#B76935" stroke-miterlimit="10" stroke-linecap="round"/>
</svg>
