<svg width="807" height="819" viewBox="0 0 807 819" fill="none" xmlns="http://www.w3.org/2000/svg">
<g clip-path="url(#clip0_54_2982)">
<path d="M210.588 286.677C203.819 270.549 182.932 263.979 163.94 272.001C159.166 274.004 154.791 276.854 151.026 280.415C153.928 274.502 155.419 267.993 155.383 261.403C155.383 240.732 141.241 223.97 123.796 223.97C106.35 223.97 92.2203 240.732 92.2203 261.403C92.1931 267.749 93.5782 274.02 96.2746 279.761C92.6676 276.503 88.5382 273.88 84.0606 272.001C65.0684 263.979 44.1812 270.549 37.412 286.677C30.6428 302.806 40.5503 322.384 59.5455 330.406C64.2934 332.424 69.3646 333.568 74.5165 333.783C72.9669 334.659 71.4706 335.627 70.0357 336.681C53.425 348.921 48.3346 370.273 58.6626 384.377C68.9906 398.482 90.8148 399.991 107.437 387.754C116.576 381.019 122.225 371.526 123.742 361.998C125.267 371.511 130.913 380.976 140.04 387.709C156.648 399.949 178.481 398.437 188.815 384.335C199.149 370.234 194.05 348.876 177.439 336.639C176.036 335.606 174.573 334.657 173.057 333.798C178.355 333.631 183.575 332.481 188.455 330.406C207.45 322.384 217.36 302.806 210.588 286.677ZM123.616 350.385H124.009C123.907 350.855 123.814 351.325 123.736 351.798C123.655 351.325 123.562 350.855 123.46 350.388L123.616 350.385Z" fill="#F7A65C"/>
<path d="M103.058 351.755L103.096 333.888C103.096 331.485 104.05 329.181 105.749 327.483C107.448 325.784 109.752 324.83 112.154 324.83L379.103 325.328C381.502 325.338 383.8 326.295 385.497 327.992C387.193 329.688 388.151 331.987 388.161 334.386V352.253L103.058 351.755ZM149.858 337.473C149.86 336.701 149.632 335.946 149.205 335.304C148.777 334.661 148.169 334.16 147.456 333.863C146.743 333.566 145.959 333.488 145.202 333.637C144.444 333.786 143.748 334.156 143.201 334.701C142.655 335.246 142.282 335.94 142.13 336.697C141.977 337.454 142.053 338.238 142.347 338.952C142.641 339.666 143.14 340.276 143.781 340.706C144.422 341.136 145.176 341.367 145.948 341.368C146.463 341.372 146.974 341.274 147.451 341.08C147.928 340.885 148.361 340.599 148.727 340.236C149.093 339.873 149.383 339.442 149.581 338.966C149.779 338.491 149.881 337.981 149.881 337.466L149.858 337.473ZM136.86 337.473C136.861 336.701 136.634 335.946 136.206 335.304C135.779 334.661 135.17 334.16 134.458 333.863C133.745 333.566 132.961 333.488 132.203 333.637C131.446 333.786 130.75 334.156 130.203 334.701C129.656 335.246 129.283 335.94 129.131 336.697C128.979 337.454 129.055 338.238 129.349 338.952C129.643 339.666 130.142 340.276 130.783 340.706C131.424 341.136 132.178 341.367 132.95 341.368C133.469 341.371 133.984 341.271 134.464 341.073C134.944 340.875 135.379 340.583 135.745 340.215C136.111 339.847 136.401 339.409 136.596 338.928C136.791 338.447 136.888 337.932 136.882 337.413L136.86 337.473ZM123.861 337.473C123.864 336.701 123.638 335.945 123.212 335.302C122.785 334.658 122.177 334.156 121.465 333.858C120.752 333.56 119.967 333.48 119.21 333.628C118.452 333.776 117.755 334.146 117.208 334.691C116.66 335.235 116.286 335.93 116.133 336.687C115.981 337.443 116.056 338.229 116.35 338.943C116.644 339.657 117.143 340.268 117.784 340.698C118.425 341.129 119.179 341.359 119.951 341.361C120.47 341.364 120.984 341.263 121.463 341.066C121.943 340.868 122.378 340.578 122.744 340.21C123.11 339.843 123.4 339.406 123.595 338.926C123.791 338.446 123.889 337.931 123.884 337.413L123.861 337.473Z" fill="#F3F0EA"/>
<path d="M145.978 341.361C148.133 341.361 149.881 339.613 149.881 337.458C149.881 335.303 148.133 333.556 145.978 333.556C143.823 333.556 142.076 335.303 142.076 337.458C142.076 339.613 143.823 341.361 145.978 341.361Z" fill="#ADD591"/>
<path d="M132.98 341.338C135.135 341.338 136.882 339.591 136.882 337.436C136.882 335.28 135.135 333.533 132.98 333.533C130.825 333.533 129.077 335.28 129.077 337.436C129.077 339.591 130.825 341.338 132.98 341.338Z" fill="#FFDC78"/>
<path d="M119.982 341.315C122.137 341.315 123.884 339.568 123.884 337.413C123.884 335.257 122.137 333.51 119.982 333.51C117.826 333.51 116.079 335.257 116.079 337.413C116.079 339.568 117.826 341.315 119.982 341.315Z" fill="#DD816A"/>
<path d="M102.726 530.652L103.058 351.755L388.131 352.283L387.798 531.18C387.798 533.583 386.844 535.886 385.145 537.585C383.447 539.284 381.143 540.238 378.74 540.238L111.761 539.71C109.363 539.704 107.065 538.747 105.371 537.049C103.677 535.351 102.726 533.05 102.726 530.652Z" fill="#F7E4C1"/>
<path d="M270.308 344.206C278.166 352.095 279.894 350.766 280.121 350.464C279.339 352.244 278.356 353.928 277.192 355.484C273.72 359.809 278.045 362.413 275.433 367.606C272.821 372.8 276.286 375.412 277.147 378.008C277.818 380.046 274.512 384.998 273.04 387.066C272.633 387.632 272.368 387.98 272.368 387.98C272.368 387.98 267.839 393.49 263.378 398.034C261.982 399.453 260.593 400.782 259.347 401.808C256.607 404.073 253.377 406.601 249.044 407.583C245.157 408.458 240.363 408.104 234.219 405.228C226.067 401.408 219.628 392.803 215.974 386.93C214.747 384.976 213.621 382.961 212.6 380.892C212.6 380.892 209.581 386.523 203.497 383.911C197.413 381.299 194.862 367.433 203.535 363.983C203.535 363.983 207.852 371.788 208.72 371.788C209.589 371.788 203.55 354.427 207.89 350.124C212.23 345.822 217.431 344.946 220.919 334.552C224.406 324.158 235.661 326.785 236.566 307.718C236.566 307.718 243.496 306.004 248.682 315.545C253.867 325.086 254.72 332.907 262.503 338.945C262.518 338.975 267.711 341.587 270.308 344.206Z" fill="#EAB88B"/>
<path d="M161.837 434.742C174.066 420.121 212.57 406.903 212.57 406.903C212.57 406.903 220.76 428.144 233.751 432.523C238.355 434.032 242.96 432.885 246.991 430.718C246.779 444.932 260.97 472.001 267.032 473.744C273.093 475.488 280.906 467.706 288.696 470.317C296.486 472.929 296.501 467.736 298.259 454.737C300.018 441.739 285.329 422.634 287.933 414.844C288.077 414.414 288.205 413.976 288.333 413.516C297.814 418.709 312.601 431.783 312.601 431.783C312.601 431.3 312.662 430.802 312.684 430.311C312.722 430.854 313.847 448.752 312.994 453.009C312.923 453.33 312.923 453.662 312.994 453.983C313.643 456.775 321.418 453.983 327.743 454.775C334.673 455.651 343.346 452.639 343.346 452.639C347.332 471.616 350.894 517.427 337.549 539.272C337.549 539.272 337.383 539.649 337.103 540.215L336.681 540.14L314.149 540.095V539.226C322.807 539.226 321.093 530.576 321.093 530.576C328.015 527.126 324.581 519.329 324.581 519.329C325.553 519.088 326.42 518.534 327.047 517.753C327.674 516.971 328.028 516.005 328.053 515.004C327.774 512.686 325.592 510.12 322.822 507.727C322.701 507.418 320.633 502.368 318.119 500.684C315.606 499.001 309.439 498.948 309.439 498.948C306.487 498.654 303.332 500.254 299.973 502.617C296.614 480.304 294.734 484.191 294.734 484.191C293.859 491.989 277.071 516.445 277.071 516.445C264.76 518.642 244.205 516.106 237.495 514.415C229.961 512.991 222.313 512.255 214.646 512.218H214.163C212.19 515.706 210.844 519.513 210.185 523.465C209.581 527.677 208.954 534.788 207.769 539.928L143.887 539.808C129.417 523.654 137.947 487.475 145.722 473.525C154.417 457.945 152.689 456.209 158.788 439.754C159.507 437.919 160.539 436.223 161.837 434.742Z" fill="#BF99C6"/>
<path d="M314.134 539.227V540.095L207.777 539.898C208.962 534.765 209.588 527.647 210.192 523.435C210.851 519.483 212.198 515.676 214.17 512.188H214.653C222.321 512.225 229.969 512.961 237.502 514.385C244.213 516.076 264.767 518.612 277.079 516.415C277.471 516.347 277.833 516.272 278.218 516.189C286.22 514.491 293.481 507.131 299.98 502.602C303.339 500.239 306.495 498.639 309.446 498.933C309.446 498.933 317.304 502.979 322.814 507.727C325.585 510.12 327.766 512.686 328.045 515.004C328.021 516.005 327.668 516.97 327.043 517.751C326.417 518.532 325.552 519.087 324.581 519.329C324.581 519.329 328.03 527.134 321.093 530.584C321.078 530.576 322.792 539.242 314.134 539.227Z" fill="#E5AE80"/>
<path d="M322.807 507.72C317.296 502.972 309.438 498.926 309.438 498.926C309.438 498.926 315.477 498.926 318.104 500.677C320.731 502.428 322.686 507.41 322.807 507.72Z" fill="#E5AE80"/>
<path d="M287.933 414.844C285.322 422.634 300.011 441.724 298.26 454.715C296.508 467.706 296.493 472.906 288.696 470.295C280.898 467.683 273.093 475.465 267.032 473.722C260.97 471.978 246.78 444.909 246.991 430.696C254.335 426.763 259.763 419.554 259.763 419.554C258.908 415.902 258.789 412.116 259.412 408.418C260.036 404.719 261.389 401.182 263.394 398.011C267.855 393.482 272.384 387.957 272.384 387.957C272.384 387.957 272.648 387.61 273.055 387.043C273.055 387.043 275.411 390.999 279.736 391.874C284.061 392.75 286.673 391.021 288.401 391.874C289.008 392.12 289.656 392.248 290.311 392.252C290.311 392.252 290.515 405.469 288.326 413.501C288.205 413.976 288.077 414.406 287.933 414.844Z" fill="#303031"/>
<path d="M301.422 385.836C300.394 387.868 298.797 389.558 296.826 390.699C294.854 391.839 292.593 392.381 290.319 392.259C289.664 392.256 289.016 392.128 288.409 391.882C286.68 391.014 284.076 392.735 279.743 391.882C275.411 391.029 273.063 387.051 273.063 387.051C274.535 384.998 277.841 380.046 277.169 377.993C276.309 375.396 272.852 372.792 275.456 367.591C278.06 362.39 273.742 359.794 277.215 355.469C278.379 353.913 279.362 352.228 280.143 350.449C281.087 348.622 282.091 347.309 285.02 346.833C285.466 346.781 285.917 346.804 286.356 346.901C294.327 348.283 323.396 364.791 327.426 372.905C331.744 381.578 337.715 433.579 342.018 447.446C342.44 448.819 342.893 450.571 343.316 452.654C343.316 452.654 334.643 455.673 327.713 454.79C321.388 453.99 313.613 456.791 312.964 453.998C312.893 453.677 312.893 453.345 312.964 453.024C313.817 448.767 312.692 430.869 312.654 430.326C313.462 416.799 313.492 401.385 313.492 398.879C313.492 396.373 311.779 391.082 307.453 390.206C306.194 389.951 305.004 389.429 303.964 388.675C302.924 387.921 302.057 386.953 301.422 385.836Z" fill="#E5AE80"/>
<path d="M286.363 346.886C285.925 346.789 285.473 346.766 285.027 346.818C282.098 347.294 281.094 348.607 280.151 350.434C279.902 350.736 278.173 352.064 270.338 344.176C267.741 341.572 262.548 338.96 262.548 338.96C254.758 332.884 253.905 325.079 248.727 315.56C243.549 306.042 236.612 307.733 236.612 307.733C235.706 326.8 224.451 324.173 220.964 334.567C217.477 344.961 212.276 345.814 207.936 350.14C203.595 354.465 209.626 371.803 208.766 371.803C207.905 371.803 203.58 363.998 203.58 363.998C194.907 367.448 197.481 381.314 203.542 383.926C209.604 386.538 212.646 380.907 212.646 380.907C213.666 382.976 214.793 384.992 216.02 386.945C216.02 386.945 216.948 399.129 212.608 406.918C212.608 406.918 174.111 420.136 161.875 434.757C167.076 422.43 161.875 410.723 161.921 404.654C161.966 398.585 163.679 391.663 172.352 384.749C181.026 377.835 181.916 363.077 185.388 346.63C188.861 330.182 197.587 306.797 217.545 292.968C237.503 279.139 252.199 295.633 252.199 295.633C252.199 295.633 278.264 294.946 286.363 346.886Z" fill="#303031"/>
<path d="M263.394 398.011C261.389 401.182 260.036 404.719 259.412 408.418C258.789 412.116 258.908 415.902 259.763 419.554C259.763 419.554 254.335 426.763 246.991 430.696C246.613 422.926 247.322 415.141 249.097 407.567C253.43 406.586 256.645 404.073 259.4 401.793C260.608 400.759 261.997 399.43 263.394 398.011Z" fill="#303031"/>
<path d="M212.57 406.903C216.91 399.114 215.982 386.93 215.982 386.93C219.635 392.803 226.074 401.408 234.226 405.228C240.371 408.104 245.164 408.458 249.051 407.583C247.289 415.158 246.593 422.943 246.983 430.711C242.952 432.877 238.348 434.063 233.743 432.515C220.76 428.145 212.57 406.903 212.57 406.903Z" fill="#E5AE80"/>
<path d="M173.356 501.87C173.356 501.87 179.47 496.956 182.958 487.43C186.445 477.904 184.709 475.307 189.057 466.649" stroke="#B68AC1" stroke-width="2" stroke-miterlimit="10" stroke-linecap="round"/>
<path d="M311.884 454.209L310.525 459.493C309.167 464.777 310.405 469.925 309.725 472.574" stroke="#B68AC1" stroke-width="2" stroke-miterlimit="10" stroke-linecap="round"/>
<path d="M214.231 512.128C214.231 512.128 199.24 510.618 192.159 508.135C181.149 504.223 169.93 500.925 158.554 498.254" stroke="#B68AC1" stroke-width="2" stroke-miterlimit="10"/>
<path d="M299.837 388.236C299.837 388.236 304.592 387.912 311.009 392.305C310.993 392.305 302.177 376.34 299.837 388.236Z" fill="#E5AE80"/>
<path d="M437.542 326.09H704.491C706.893 326.09 709.197 327.045 710.896 328.743C712.595 330.442 713.549 332.746 713.549 335.148V353.015H428.484V335.148C428.484 332.746 429.438 330.442 431.137 328.743C432.836 327.045 435.14 326.09 437.542 326.09ZM475.284 338.658C475.286 337.886 475.058 337.13 474.63 336.487C474.201 335.845 473.592 335.343 472.878 335.047C472.165 334.751 471.38 334.673 470.622 334.823C469.864 334.973 469.168 335.345 468.622 335.891C468.076 336.438 467.704 337.134 467.554 337.891C467.403 338.649 467.481 339.434 467.778 340.148C468.074 340.861 468.575 341.471 469.218 341.899C469.861 342.327 470.617 342.555 471.389 342.553C472.423 342.549 473.413 342.135 474.142 341.402C474.87 340.669 475.279 339.677 475.277 338.643L475.284 338.658ZM462.286 338.658C462.287 337.886 462.059 337.13 461.631 336.487C461.203 335.845 460.594 335.343 459.88 335.047C459.167 334.751 458.381 334.673 457.624 334.823C456.866 334.973 456.17 335.345 455.624 335.891C455.078 336.438 454.706 337.134 454.555 337.891C454.405 338.649 454.483 339.434 454.779 340.148C455.076 340.861 455.577 341.471 456.22 341.899C456.863 342.327 457.618 342.555 458.391 342.553C459.425 342.549 460.414 342.135 461.143 341.402C461.872 340.669 462.28 339.677 462.278 338.643L462.286 338.658ZM449.287 338.658C449.289 337.886 449.061 337.13 448.633 336.487C448.205 335.845 447.595 335.343 446.882 335.047C446.168 334.751 445.383 334.673 444.625 334.823C443.868 334.973 443.172 335.345 442.625 335.891C442.079 336.438 441.707 337.134 441.557 337.891C441.407 338.649 441.485 339.434 441.781 340.148C442.077 340.861 442.579 341.471 443.222 341.899C443.864 342.327 444.62 342.555 445.392 342.553C445.905 342.552 446.412 342.45 446.884 342.253C447.357 342.056 447.786 341.768 448.147 341.405C448.508 341.041 448.794 340.611 448.988 340.137C449.183 339.663 449.282 339.155 449.28 338.643L449.287 338.658Z" fill="#F3F0EA"/>
<path d="M471.382 342.546C473.537 342.546 475.284 340.799 475.284 338.643C475.284 336.488 473.537 334.741 471.382 334.741C469.226 334.741 467.479 336.488 467.479 338.643C467.479 340.799 469.226 342.546 471.382 342.546Z" fill="#ADD591"/>
<path d="M458.383 342.546C460.539 342.546 462.286 340.799 462.286 338.643C462.286 336.488 460.539 334.741 458.383 334.741C456.228 334.741 454.481 336.488 454.481 338.643C454.481 340.799 456.228 342.546 458.383 342.546Z" fill="#FFDC78"/>
<path d="M445.385 342.546C447.54 342.546 449.287 340.799 449.287 338.643C449.287 336.488 447.54 334.741 445.385 334.741C443.23 334.741 441.482 336.488 441.482 338.643C441.482 340.799 443.23 342.546 445.385 342.546Z" fill="#DD816A"/>
<path d="M704.491 540.963H437.542C435.14 540.963 432.836 540.008 431.137 538.31C429.438 536.611 428.484 534.307 428.484 531.905V353.008H713.556V531.905C713.547 534.305 712.588 536.604 710.89 538.301C709.192 539.998 706.891 540.955 704.491 540.963Z" fill="#FFDC78"/>
<path d="M605.381 309.967C618.794 324.399 616.115 359.031 613.435 367.682C610.853 375.985 593.432 413.591 587.31 411.462C585.045 403.318 583.921 396.57 583.921 396.57C583.921 396.57 601.365 386.47 598.678 372.037C595.991 357.605 585.264 366.27 585.264 366.27C585.264 366.27 558.43 346.063 553.063 322.98C553.063 322.98 545.016 322.98 547.704 337.405C550.391 351.83 563.804 354.721 563.804 354.721C563.804 354.721 539.649 357.605 542.337 323.018C542.337 323.018 534.29 323.018 528.916 328.793C523.541 334.567 516.838 367.742 516.838 367.742C516.838 367.742 516.838 370.392 517.049 374.34C517.049 374.34 514.151 373.517 511.479 364.859C511.479 364.859 506.104 370.633 503.425 370.633C500.745 370.633 498.065 310.027 527.579 295.602C557.094 281.177 570.507 295.602 573.187 295.602C579.253 295.65 585.244 296.951 590.784 299.423C596.324 301.895 601.293 305.485 605.381 309.967Z" fill="#303031"/>
<path d="M598.655 372.015C601.342 386.447 583.898 396.547 583.898 396.547C581.384 407.326 557.826 425.661 548.164 427.993C547.568 428.155 546.955 428.244 546.337 428.258C538.283 428.258 527.557 413.833 522.182 402.291C518.635 394.652 517.434 381.971 517.027 374.249C516.815 370.301 516.815 367.652 516.815 367.652C516.815 367.652 523.526 334.439 528.893 328.702C534.26 322.965 542.314 322.927 542.314 322.927C539.627 357.552 563.782 354.631 563.782 354.631C563.782 354.631 550.353 351.815 547.681 337.413C545.009 323.011 553.04 322.988 553.04 322.988C558.407 346.071 585.242 366.278 585.242 366.278C585.242 366.278 595.968 357.582 598.655 372.015Z" fill="#E5AE80"/>
<path d="M587.265 411.44C589.529 419.63 592.941 429.232 597.485 434.84C561.789 465.479 544.971 441.294 544.971 441.294C545.514 441.294 545.967 440.75 546.345 439.875C547.854 436.463 548.141 428.046 548.141 428.046C557.803 425.684 581.354 407.349 583.875 396.57C583.898 396.547 585 403.295 587.265 411.44Z" fill="#E0A379"/>
<path d="M489.996 465.803C511.464 454.262 546.337 439.837 546.337 439.837C545.96 440.713 545.507 441.256 544.963 441.256C544.963 441.256 561.781 465.411 597.477 434.802C598.218 435.733 599.053 436.586 599.968 437.346C599.968 437.346 628.131 447.544 646.919 462.112C665.707 476.681 676.434 540.827 676.434 540.827H465.833C465.833 540.827 468.528 477.345 489.996 465.803Z" fill="#BF99C6"/>
<path d="M508.339 539.966C508.339 539.966 509.539 536.109 511.011 530.87C513.351 522.522 516.393 510.656 516.393 505.342" stroke="#B68AC1" stroke-width="2" stroke-miterlimit="10" stroke-linecap="round"/>
<path d="M629.075 539.966C629.075 539.966 626.388 505.342 621.028 505.342" stroke="#B68AC1" stroke-width="2" stroke-miterlimit="10"/>
<path d="M234.121 339.24C234.121 339.24 233.834 337.624 228.731 337.383C223.629 337.141 220.564 340.764 218.164 343.942C218.164 343.942 223.168 340.425 225.561 339.481C227.954 338.538 233.645 340.281 233.645 340.281L234.121 339.24Z" fill="#303031"/>
<path d="M252.931 339.813C252.931 339.813 253.037 338.183 258.079 337.368C263.122 336.552 266.571 339.806 269.296 342.704C269.296 342.704 263.922 339.768 261.438 339.104C258.955 338.439 253.498 340.802 253.498 340.802L252.931 339.813Z" fill="#303031"/>
<path d="M231.413 353.336C231.416 351.472 230.514 349.96 229.396 349.958C228.279 349.956 227.37 351.465 227.367 353.328C227.363 355.192 228.266 356.704 229.383 356.706C230.501 356.708 231.409 355.199 231.413 353.336Z" fill="#303031"/>
<path d="M258.896 353.774C258.9 351.911 257.997 350.399 256.88 350.396C255.763 350.394 254.854 351.903 254.85 353.767C254.847 355.63 255.75 357.143 256.867 357.145C257.984 357.147 258.893 355.638 258.896 353.774Z" fill="#303031"/>
<path d="M532.554 357.039C532.554 357.039 532.259 355.423 527.157 355.197C522.054 354.97 518.997 358.586 516.589 361.772C516.589 361.772 521.586 358.239 523.979 357.295C526.372 356.352 532.063 358.05 532.063 358.05L532.554 357.039Z" fill="#303031"/>
<path d="M551.357 357.59C551.357 357.59 551.463 355.952 556.505 355.129C561.547 354.306 565.004 357.559 567.729 360.413C567.729 360.413 562.355 357.484 559.872 356.827C557.388 356.171 551.931 358.548 551.931 358.548L551.357 357.59Z" fill="#303031"/>
<path d="M526.794 373.834C527.912 373.834 528.817 372.323 528.817 370.46C528.817 368.596 527.912 367.086 526.794 367.086C525.677 367.086 524.771 368.596 524.771 370.46C524.771 372.323 525.677 373.834 526.794 373.834Z" fill="#303031"/>
<path d="M554.278 374.219C555.395 374.219 556.301 372.708 556.301 370.845C556.301 368.981 555.395 367.471 554.278 367.471C553.161 367.471 552.255 368.981 552.255 370.845C552.255 372.708 553.161 374.219 554.278 374.219Z" fill="#303031"/>
<path d="M246.16 361.153C246.16 361.153 244.417 365.485 246.16 368.95C247.904 372.415 250.478 375.895 246.16 375.887" stroke="#D1976F" stroke-width="1.5" stroke-miterlimit="10" stroke-linecap="round"/>
<path d="M243.594 375.109C243.594 375.109 241.33 376.076 239.571 373.502C237.812 370.928 241.179 378.816 243.594 375.109Z" fill="#E0A070" stroke="#D1976F" stroke-miterlimit="10"/>
<path d="M537.883 378.604C537.883 378.604 539.619 382.937 537.883 386.402C536.147 389.867 533.55 393.339 537.883 393.339" stroke="#D1976F" stroke-width="2" stroke-miterlimit="10" stroke-linecap="round"/>
<path d="M540.464 392.569C540.464 392.569 542.729 393.535 544.488 390.969C546.247 388.402 542.827 396.29 540.464 392.569Z" fill="#D1976F" stroke="#D1976F" stroke-miterlimit="10"/>
<path d="M237.676 386.228C237.676 386.228 242.613 383.013 245.066 386.228C245.066 386.228 250.003 383.013 252.463 386.228C252.463 386.259 245.058 392.697 237.676 386.228Z" fill="#DD816A"/>
<path d="M534.094 403.605C534.094 403.605 543.454 405.59 547.303 402.555C547.303 402.555 540.819 413.131 534.094 403.605Z" fill="white"/>
<path d="M383.579 310.586H289.33C288.5 310.582 287.706 310.251 287.119 309.664C286.532 309.077 286.201 308.283 286.197 307.453V287.873C286.199 287.043 286.53 286.247 287.117 285.66C287.704 285.073 288.499 284.742 289.33 284.74H383.579C384.409 284.742 385.205 285.073 385.792 285.66C386.379 286.247 386.709 287.043 386.711 287.873V307.453C386.707 308.283 386.376 309.077 385.789 309.664C385.203 310.251 384.408 310.582 383.579 310.586Z" fill="#F4F1EB"/>
<path d="M298.69 310.586C298.69 310.586 291.141 312.413 289.33 318.678C295.874 313.987 303.583 311.188 311.612 310.586" fill="#F4F1EB"/>
<path d="M376.989 274.588H527.745C529.074 274.584 530.346 274.054 531.285 273.115C532.224 272.176 532.754 270.904 532.758 269.576V238.257C532.754 236.929 532.224 235.657 531.285 234.718C530.346 233.778 529.074 233.249 527.745 233.245H376.989C375.661 233.249 374.389 233.778 373.449 234.718C372.51 235.657 371.981 236.929 371.977 238.257V269.576C371.981 270.904 372.51 272.176 373.449 273.115C374.389 274.054 375.661 274.584 376.989 274.588Z" fill="#F4F1EB"/>
<path d="M512.77 274.588C512.77 274.588 524.847 277.509 527.746 287.533C527.746 287.533 513.66 276.256 492.094 274.588" fill="#F4F1EB"/>
<path d="M320.301 301.762C322.456 301.762 324.203 300.015 324.203 297.859C324.203 295.704 322.456 293.957 320.301 293.957C318.145 293.957 316.398 295.704 316.398 297.859C316.398 300.015 318.145 301.762 320.301 301.762Z" fill="#303031"/>
<path d="M333.299 301.785C335.454 301.785 337.201 300.037 337.201 297.882C337.201 295.727 335.454 293.979 333.299 293.979C331.144 293.979 329.396 295.727 329.396 297.882C329.396 300.037 331.144 301.785 333.299 301.785Z" fill="#303031"/>
<path d="M346.297 301.815C348.453 301.815 350.2 300.068 350.2 297.912C350.2 295.757 348.453 294.01 346.297 294.01C344.142 294.01 342.395 295.757 342.395 297.912C342.395 300.068 344.142 301.815 346.297 301.815Z" fill="#303031"/>
<path d="M418.211 259.31C420.366 259.31 422.113 257.562 422.113 255.407C422.113 253.252 420.366 251.505 418.211 251.505C416.056 251.505 414.308 253.252 414.308 255.407C414.308 257.562 416.056 259.31 418.211 259.31Z" fill="#303031"/>
<path d="M431.209 259.332C433.364 259.332 435.112 257.585 435.112 255.43C435.112 253.275 433.364 251.527 431.209 251.527C429.054 251.527 427.307 253.275 427.307 255.43C427.307 257.585 429.054 259.332 431.209 259.332Z" fill="#303031"/>
<path d="M444.207 259.355C446.363 259.355 448.11 257.608 448.11 255.453C448.11 253.297 446.363 251.55 444.207 251.55C442.052 251.55 440.305 253.297 440.305 255.453C440.305 257.608 442.052 259.355 444.207 259.355Z" fill="#303031"/>
<path d="M456.708 259.31C458.863 259.31 460.61 257.562 460.61 255.407C460.61 253.252 458.863 251.505 456.708 251.505C454.552 251.505 452.805 253.252 452.805 255.407C452.805 257.562 454.552 259.31 456.708 259.31Z" fill="#303031"/>
<path d="M469.706 259.332C471.861 259.332 473.608 257.585 473.608 255.43C473.608 253.275 471.861 251.527 469.706 251.527C467.551 251.527 465.803 253.275 465.803 255.43C465.803 257.585 467.551 259.332 469.706 259.332Z" fill="#303031"/>
<path d="M482.697 259.355C484.852 259.355 486.599 257.608 486.599 255.453C486.599 253.297 484.852 251.55 482.697 251.55C480.541 251.55 478.794 253.297 478.794 255.453C478.794 257.608 480.541 259.355 482.697 259.355Z" fill="#303031"/>
<path d="M702.611 542.781C694.445 539.458 686.227 537.755 678.69 537.54C679.272 533.803 679.563 530.027 679.559 526.246C679.559 500.435 666.295 479.511 649.935 479.511C633.574 479.511 620.313 500.435 620.313 526.246C620.308 530.114 620.614 533.976 621.225 537.796C614.405 538.493 607.723 540.173 601.389 542.781C577.346 552.561 562.863 572.697 569.076 587.727C575.29 602.757 599.81 607 623.858 597.22C636.335 592.142 646.23 584.275 652 575.798C657.77 584.284 667.665 592.142 680.141 597.22C704.184 607 728.719 602.757 734.924 587.727C741.128 572.697 726.662 552.57 702.611 542.781Z" fill="#BCF7D4"/>
</g>
<defs>
<clipPath id="clip0_54_2982">
<rect width="819" height="819" fill="white"/>
</clipPath>
</defs>
</svg>
