<svg width="761" height="669" viewBox="0 0 761 669" fill="none" xmlns="http://www.w3.org/2000/svg">
<path d="M396.297 320.29C377.71 315.049 360.292 312.426 347.121 312.419C353.562 301.271 359.894 285.809 364.775 268.241C375.144 230.908 375.017 198.231 364.482 195.268C353.947 192.304 337.008 220.158 326.638 257.49C321.802 274.905 319.249 291.304 318.975 304.148C307.769 297.484 291.958 290.876 273.941 285.796C236.646 275.28 204.032 275.297 201.11 285.843C198.188 296.388 226.045 313.455 263.34 323.971C281.998 329.232 299.485 331.857 312.657 331.826C305.419 343.108 298.1 360.212 292.612 379.947C282.242 417.279 282.369 449.957 292.904 452.92C303.439 455.884 320.379 428.03 330.748 390.697C336.283 370.773 338.822 352.178 338.391 338.718C349.681 345.841 366.422 353.015 385.681 358.449C422.976 368.965 455.589 368.948 458.512 358.403C461.434 347.857 433.597 330.803 396.297 320.29Z" fill="#F7A65C"/>
<path d="M712.636 553.271V538.729H663.238C662.325 534.614 660.66 530.703 658.329 527.195L696.514 491.256L686.586 480.669L647.917 517.034C644.623 514.969 641.002 513.483 637.21 512.641V463.118H622.703V512.563C618.016 513.55 613.588 515.516 609.709 518.333L573.958 482.5L563.702 492.783L599.997 529.162C598.296 532.147 597.053 535.372 596.312 538.729H548.364V553.271H596.234C597.251 558.141 599.317 562.73 602.288 566.716L563.035 603.652L572.963 614.239L613.297 576.294C616.134 577.857 619.179 579.006 622.339 579.707V628.882H636.846V579.799C640.327 579.069 643.673 577.797 646.76 576.027L685.591 614.952L695.847 604.669L657.559 566.293C660.37 562.406 662.332 557.969 663.315 553.271H712.636Z" fill="#F4A39D"/>
<path d="M662.74 380.437C663.868 381.407 664.279 382.327 664.053 383.207L554.463 320.538C555.714 319.894 557.018 319.22 558.364 318.505L660.388 377.166C660.937 378.404 661.738 379.518 662.74 380.437Z" fill="#D4D887"/>
<path d="M444.823 430.516C433 433.062 421.231 435.341 413.097 436.288C411.582 436.508 410.036 436.204 408.722 435.426L509.026 325.064C521.955 329.086 531.124 331.181 533.178 329.979C533.178 329.979 541.15 327.361 554.463 320.569L664.053 383.207C662.031 391.098 608.527 395.423 566.936 401.527C543.069 405.021 523.106 409.095 519.003 414.757C523.748 399.404 533.661 361.872 516.024 364.352C514.843 364.512 513.682 364.787 512.556 365.174C505.483 367.645 503.031 374.294 500.467 384.034C500.404 384.275 500.336 384.521 500.273 384.767C497.826 394.15 495.167 406.294 488.251 420.275C488.251 420.275 466.452 425.851 444.823 430.516Z" fill="#EAEF95"/>
<path d="M660.388 377.166L558.364 318.505C579.838 307.098 612.797 285.951 648.289 249.804C660.839 278.565 650.907 357.471 660.388 377.166Z" fill="#EAEF95"/>
<path d="M505.094 323.818C462.569 310.235 386.602 279.749 378.589 276.532C378.625 276.085 378.684 275.665 378.761 275.241C382.535 271.26 399.978 256.814 455.532 254.893C520.087 252.659 602.943 258.164 631.035 239.996C639.279 237.472 644.705 241.596 648.289 249.826C612.798 285.951 579.838 307.098 558.364 318.505C557.009 319.22 555.714 319.895 554.463 320.538C541.15 327.33 533.178 329.948 533.178 329.948C531.124 331.168 521.955 329.054 509.026 325.033C507.758 324.658 506.449 324.247 505.094 323.818Z" fill="#D4D887"/>
<path d="M631.044 239.987C602.952 258.155 520.095 252.65 455.54 254.884C399.969 256.805 382.544 271.251 378.77 275.232C386.548 231.471 590.975 255.858 629.342 240.586C629.925 240.354 630.489 240.139 631.044 239.983V239.987Z" fill="#CECE84"/>
<path d="M571.338 404.069C573.852 406.12 575.784 409.31 571.789 413.278C568.81 416.227 565.505 415.722 560.025 414.85C552.621 413.68 541.254 411.848 521.342 416.973C530.935 407.719 571.351 404.073 571.351 404.073L571.338 404.069Z" fill="#EAB88B"/>
<path d="M571.338 404.069C571.338 404.069 530.921 407.719 521.346 416.973C520.267 417.25 519.165 417.545 518.037 417.866C518.326 416.973 518.66 415.923 519.026 414.739C523.129 409.078 543.091 405.003 566.959 401.509C568.532 402.156 570.006 403.017 571.338 404.069Z" fill="#DBA77D"/>
<path d="M552.892 430.06C540.938 427.939 528.804 426.966 516.66 427.156C521.174 426.651 538.975 424.922 546.044 428.023C548.239 428.963 550.537 429.647 552.892 430.06Z" fill="#DBA77D"/>
<path d="M488.251 420.275C495.167 406.294 497.826 394.15 500.273 384.767C500.336 384.521 500.404 384.275 500.467 384.034C504.638 368.87 512.556 365.174 512.556 365.174C513.682 364.787 514.843 364.512 516.023 364.352C533.661 361.859 523.748 399.409 519.003 414.739C518.637 415.923 518.303 416.973 518.014 417.867C517.784 418.559 517.563 419.158 517.423 419.654C517.111 420.588 516.926 421.106 516.926 421.106C516.329 423.13 515.886 425.195 515.604 427.285C515.243 429.985 515.05 432.703 515.026 435.426C514.967 441.701 515.458 447.97 516.493 454.161C521.459 500.182 482.184 514.48 479.475 550.671C476.767 586.863 471.124 609.873 471.124 609.873H381.289C381.289 609.873 416.952 581.278 435.009 531.682C452.868 482.636 428.784 464.616 444.841 430.516C466.452 425.851 488.251 420.275 488.251 420.275ZM520.303 390.937C520.303 390.937 523.012 371.698 518.005 370C517.581 369.861 517.127 369.839 516.692 369.937C509.92 371.278 504.051 386.469 504.051 386.469C505.41 388.142 507.1 389.521 509.017 390.522C511.812 391.961 515.667 392.818 520.312 390.937H520.303Z" fill="#EAB88B"/>
<path d="M518.511 376.666C518.962 381.134 517.157 384.231 518.511 382.895C519.865 381.559 518.637 377.064 518.511 376.666ZM518.014 370C523.034 371.698 520.312 390.937 520.312 390.937C515.667 392.819 511.812 391.961 509.026 390.522C509.252 383.176 518.014 370.004 518.014 370.004V370Z" fill="#F7E4C1"/>
<path d="M518.511 376.666C518.615 377.041 519.802 381.612 518.511 382.895C517.22 384.177 518.949 381.121 518.511 376.666Z" fill="white"/>
<path d="M560.011 414.855C545.764 413.514 517.427 419.645 517.427 419.645C517.59 419.162 517.789 418.563 518.019 417.857C519.147 417.536 520.249 417.241 521.328 416.964C541.241 411.839 552.608 413.671 560.011 414.841V414.855Z" fill="#DBA77D"/>
<path d="M518.014 370.004C518.014 370.004 509.252 383.176 509.026 390.522C507.109 389.521 505.419 388.142 504.061 386.469C504.061 386.469 509.929 371.278 516.701 369.937C517.136 369.839 517.59 369.861 518.014 370V370.004Z" fill="#F4DBB8"/>
<path d="M515.608 427.276C515.608 427.276 515.983 427.227 516.66 427.155C528.804 426.966 540.937 427.939 552.892 430.06H553.027C555.479 430.505 557.973 430.675 560.463 430.565C560.562 430.895 564.286 444.022 543.335 439.17C522.118 434.255 515.012 435.404 515.012 435.404C515.042 432.677 515.241 429.956 515.608 427.254V427.276Z" fill="#EAB88B"/>
<path d="M515.604 427.276C515.887 425.186 516.329 423.121 516.926 421.097C516.926 421.097 517.112 420.579 517.423 419.645C517.423 419.645 545.76 413.524 560.007 414.855C560.007 414.855 574.028 419.533 570.868 425.788C569.306 428.885 565.194 430.341 560.458 430.587C557.969 430.697 555.474 430.528 553.023 430.082H552.888C550.533 429.669 548.234 428.985 546.039 428.045C538.97 424.917 521.165 426.673 516.656 427.178C515.978 427.249 515.604 427.299 515.604 427.299V427.276Z" fill="#EAB88B"/>
<path d="M509.026 325.051L408.722 435.413C407.69 434.775 406.809 433.922 406.14 432.915L505.094 323.818C506.449 324.247 507.758 324.658 509.026 325.051Z" fill="#D4D887"/>
<path d="M512.556 365.174C512.556 365.174 504.643 368.869 500.467 384.034C503.031 374.294 505.482 367.645 512.556 365.174Z" fill="#EAEF95"/>
<path d="M505.094 323.818L406.14 432.915C394.497 415.936 406.591 340.046 381.045 287.523C379.072 283.471 378.3 279.825 378.589 276.545C386.602 279.749 462.569 310.235 505.094 323.818Z" fill="#EAEF95"/>
<path d="M532.05 339.554C539.031 339.554 544.69 333.953 544.69 327.044C544.69 320.134 539.031 314.533 532.05 314.533C525.069 314.533 519.409 320.134 519.409 327.044C519.409 333.953 525.069 339.554 532.05 339.554Z" fill="#F9B19C"/>
<path d="M528.129 325.273C528.913 325.225 529.478 324.067 529.391 322.688C529.305 321.309 528.599 320.23 527.815 320.278C527.031 320.327 526.466 321.484 526.553 322.863C526.639 324.242 527.345 325.321 528.129 325.273Z" fill="#DE826A"/>
<path d="M535.701 324.804C536.485 324.756 537.05 323.599 536.963 322.22C536.876 320.84 536.171 319.761 535.387 319.81C534.603 319.858 534.038 321.015 534.125 322.394C534.211 323.774 534.917 324.852 535.701 324.804Z" fill="#DE826A"/>
<path d="M525.242 332.008C525.242 332.008 531.806 325.65 538.785 331.172" stroke="#DE826A" stroke-width="5" stroke-miterlimit="10" stroke-linecap="round"/>
</svg>
