<svg xmlns="http://www.w3.org/2000/svg" viewBox="0 0 939 883"><defs><style>.cls-1{fill:#e8ccf7;}</style></defs><g id="Layer_1" data-name="Layer 1"><path class="cls-1" d="M645.76,334.35a141.2,141.2,0,0,0-57.31,12,110.08,110.08,0,0,0,7.22-39.26c0-66.18-58.76-119.83-131.24-119.83S333.19,240.91,333.19,307.09a110.1,110.1,0,0,0,5.58,34.67,142.15,142.15,0,0,0-45.53-7.41C220.76,334.35,162,388,162,454.18S220.76,574,293.24,574a142.31,142.31,0,0,0,44.11-6.94q-.36,4.38-.36,8.84c0,66.18,58.76,119.83,131.24,119.83s131.24-53.65,131.24-119.83c0-3.27-.15-6.51-.43-9.72A142.05,142.05,0,0,0,645.76,574C718.24,574,777,520.36,777,454.18S718.24,334.35,645.76,334.35Z"/></g></svg>