<svg xmlns="http://www.w3.org/2000/svg" viewBox="0 0 939 883"><defs><style>.cls-1{fill:#586bc4;}.cls-2{fill:#d84861;}.cls-3{fill:#4359a7;}</style></defs><g id="Layer_1" data-name="Layer 1"><rect class="cls-1" x="44.98" y="316.02" width="849.05" height="250.95" rx="61.5" transform="translate(-144.53 245.76) rotate(-25.56)"/><rect class="cls-2" x="320.45" y="366.89" width="305.17" height="147.77" rx="25.98" transform="translate(-143.88 247.21) rotate(-25.56)"/><path class="cls-3" d="M113.84,552c3.86,0,3.87-6,0-6s-3.86,6,0,6Z"/><path class="cls-3" d="M147.88,534c3.86,0,3.87-6,0-6s-3.87,6,0,6Z"/><path class="cls-3" d="M181.89,517.72c3.86,0,3.86-6,0-6s-3.87,6,0,6Z"/><path class="cls-3" d="M214.79,502.88c3.86,0,3.87-6,0-6s-3.87,6,0,6Z"/><path class="cls-3" d="M248.07,487c3.86,0,3.87-6,0-6s-3.87,6,0,6Z"/><path class="cls-3" d="M278.08,473.5c3.86,0,3.87-6,0-6s-3.86,6,0,6Z"/><path class="cls-3" d="M151.86,507.85c3.86,0,3.87-6,0-6s-3.87,6,0,6Z"/><path class="cls-3" d="M185.86,491.59c3.87,0,3.87-6,0-6s-3.86,6,0,6Z"/><path class="cls-3" d="M218.77,476.74c3.86,0,3.87-6,0-6s-3.87,6,0,6Z"/><path class="cls-3" d="M252.05,460.83c3.86,0,3.87-6,0-6s-3.87,6,0,6Z"/><path class="cls-3" d="M282.06,447.36c3.86,0,3.87-6,0-6s-3.87,6,0,6Z"/><path class="cls-3" d="M222.47,651.46c3.86,0,3.87-6,0-6s-3.87,6,0,6Z"/><path class="cls-3" d="M192.94,662.67c3.86,0,3.87-6,0-6s-3.87,6,0,6Z"/><path class="cls-3" d="M124.56,525.75c3.86,0,3.87-6,0-6s-3.87,6,0,6Z"/><path class="cls-3" d="M256.48,635.19c3.86,0,3.86-6,0-6s-3.87,6,0,6Z"/><path class="cls-3" d="M289.38,620.35c3.86,0,3.87-6,0-6s-3.87,6,0,6Z"/><path class="cls-3" d="M322.66,604.43c3.86,0,3.87-6,0-6s-3.86,6,0,6Z"/><path class="cls-3" d="M352.67,591c3.87,0,3.87-6,0-6s-3.86,6,0,6Z"/><path class="cls-3" d="M108.35,575c3.87,0,3.87-6,0-6s-3.86,6,0,6Z"/><path class="cls-3" d="M142.39,557c3.86,0,3.87-6,0-6s-3.87,6,0,6Z"/><path class="cls-3" d="M176.4,540.7c3.86,0,3.86-6,0-6s-3.87,6,0,6Z"/><path class="cls-3" d="M209.3,525.86c3.86,0,3.87-6,0-6s-3.87,6,0,6Z"/><path class="cls-3" d="M242.58,509.94c3.86,0,3.87-6,0-6s-3.86,6,0,6Z"/><path class="cls-3" d="M272.59,496.48c3.86,0,3.87-6,0-6s-3.86,6,0,6Z"/><path class="cls-3" d="M136,584.11c3.86,0,3.87-6,0-6s-3.86,6,0,6Z"/><path class="cls-3" d="M170,566.05c3.86,0,3.87-6,0-6s-3.87,6,0,6Z"/><path class="cls-3" d="M204,549.79c3.86,0,3.86-6,0-6s-3.87,6,0,6Z"/><path class="cls-3" d="M236.91,535c3.86,0,3.87-6,0-6s-3.87,6,0,6Z"/><path class="cls-3" d="M270.19,519c3.86,0,3.87-6,0-6s-3.86,6,0,6Z"/><path class="cls-3" d="M300.2,505.57c3.86,0,3.87-6,0-6s-3.86,6,0,6Z"/><path class="cls-3" d="M124.58,608.94c3.86,0,3.86-6,0-6s-3.87,6,0,6Z"/><path class="cls-3" d="M158.61,590.89c3.86,0,3.87-6,0-6s-3.86,6,0,6Z"/><path class="cls-3" d="M192.62,574.62c3.86,0,3.87-6,0-6s-3.87,6,0,6Z"/><path class="cls-3" d="M225.52,559.78c3.86,0,3.87-6,0-6s-3.86,6,0,6Z"/><path class="cls-3" d="M258.81,543.86c3.86,0,3.86-6,0-6s-3.87,6,0,6Z"/><path class="cls-3" d="M288.82,530.4c3.86,0,3.86-6,0-6s-3.87,6,0,6Z"/><path class="cls-3" d="M152.56,618.82c3.86,0,3.87-6,0-6s-3.87,6,0,6Z"/><path class="cls-3" d="M186.6,600.76c3.86,0,3.87-6,0-6s-3.87,6,0,6Z"/><path class="cls-3" d="M220.6,584.5c3.87,0,3.87-6,0-6s-3.86,6,0,6Z"/><path class="cls-3" d="M253.51,569.66c3.86,0,3.87-6,0-6s-3.87,6,0,6Z"/><path class="cls-3" d="M286.79,553.74c3.86,0,3.87-6,0-6s-3.87,6,0,6Z"/><path class="cls-3" d="M316.8,540.28c3.86,0,3.87-6,0-6s-3.87,6,0,6Z"/><path class="cls-3" d="M141.55,644.44c3.86,0,3.87-6,0-6s-3.87,6,0,6Z"/><path class="cls-3" d="M175.59,626.38c3.86,0,3.87-6,0-6s-3.87,6,0,6Z"/><path class="cls-3" d="M209.59,610.12c3.87,0,3.87-6,0-6s-3.86,6,0,6Z"/><path class="cls-3" d="M242.5,595.27c3.86,0,3.87-6,0-6s-3.87,6,0,6Z"/><path class="cls-3" d="M275.78,579.36c3.86,0,3.87-6,0-6s-3.87,6,0,6Z"/><path class="cls-3" d="M305.79,565.9c3.86,0,3.87-6,0-6s-3.87,6,0,6Z"/><path class="cls-3" d="M169.91,655.11c3.87,0,3.87-6,0-6s-3.86,6,0,6Z"/><path class="cls-3" d="M204,637.05c3.86,0,3.87-6,0-6s-3.87,6,0,6Z"/><path class="cls-3" d="M238,620.79c3.86,0,3.86-6,0-6s-3.87,6,0,6Z"/><path class="cls-3" d="M270.86,605.94c3.86,0,3.87-6,0-6s-3.87,6,0,6Z"/><path class="cls-3" d="M304.14,590c3.86,0,3.87-6,0-6s-3.86,6,0,6Z"/><path class="cls-3" d="M334.15,576.56c3.87,0,3.87-6,0-6s-3.86,6,0,6Z"/><path class="cls-3" d="M784.93,230.14c3.86,0,3.87-6,0-6s-3.87,6,0,6Z"/><path class="cls-3" d="M749.51,245.31c3.86,0,3.87-6,0-6s-3.87,6,0,6Z"/><path class="cls-3" d="M715.5,261.57c3.86,0,3.87-6,0-6s-3.86,6,0,6Z"/><path class="cls-3" d="M683.29,277.86c3.86,0,3.87-6,0-6s-3.87,6,0,6Z"/><path class="cls-3" d="M650,293.78c3.86,0,3.87-6,0-6s-3.87,6,0,6Z"/><path class="cls-3" d="M620.69,308.69c3.86,0,3.87-6,0-6s-3.87,6,0,6Z"/><path class="cls-3" d="M726.67,232c3.86,0,3.86-6,0-6s-3.87,6,0,6Z"/><path class="cls-3" d="M692.66,248.26c3.86,0,3.87-6,0-6s-3.87,6,0,6Z"/><path class="cls-3" d="M660.45,264.55c3.86,0,3.87-6,0-6s-3.87,6,0,6Z"/><path class="cls-3" d="M627.17,280.47c3.86,0,3.86-6,0-6s-3.87,6,0,6Z"/><path class="cls-3" d="M597.85,295.38c3.86,0,3.87-6,0-6s-3.87,6,0,6Z"/><path class="cls-3" d="M794.12,377.11c3.87,0,3.87-6,0-6s-3.86,6,0,6Z"/><path class="cls-3" d="M821.39,361.16c3.86,0,3.87-6,0-6s-3.87,6,0,6Z"/><path class="cls-3" d="M757.74,222c3.86,0,3.87-6,0-6s-3.87,6,0,6Z"/><path class="cls-3" d="M760.12,393.37c3.86,0,3.87-6,0-6s-3.87,6,0,6Z"/><path class="cls-3" d="M727.91,409.67c3.86,0,3.86-6,0-6s-3.87,6,0,6Z"/><path class="cls-3" d="M694.62,425.58c3.87,0,3.87-6,0-6s-3.86,6,0,6Z"/><path class="cls-3" d="M665.31,440.49c3.86,0,3.86-6,0-6s-3.87,6,0,6Z"/><path class="cls-3" d="M806.26,240.3c3.86,0,3.87-6,0-6s-3.86,6,0,6Z"/><path class="cls-3" d="M770.84,255.46c3.86,0,3.87-6,0-6s-3.87,6,0,6Z"/><path class="cls-3" d="M736.84,271.72c3.86,0,3.86-6,0-6s-3.87,6,0,6Z"/><path class="cls-3" d="M704.62,288c3.86,0,3.87-6,0-6s-3.86,6,0,6Z"/><path class="cls-3" d="M671.34,303.93c3.86,0,3.87-6,0-6s-3.87,6,0,6Z"/><path class="cls-3" d="M642,318.84c3.86,0,3.87-6,0-6s-3.86,6,0,6Z"/><path class="cls-3" d="M796,267.49c3.86,0,3.86-6,0-6s-3.87,6,0,6Z"/><path class="cls-3" d="M760.59,282.66c3.86,0,3.86-6,0-6s-3.87,6,0,6Z"/><path class="cls-3" d="M726.58,298.92c3.86,0,3.87-6,0-6s-3.87,6,0,6Z"/><path class="cls-3" d="M694.37,315.21c3.86,0,3.86-6,0-6s-3.87,6,0,6Z"/><path class="cls-3" d="M661.09,331.13c3.86,0,3.86-6,0-6s-3.87,6,0,6Z"/><path class="cls-3" d="M631.77,346c3.86,0,3.86-6,0-6s-3.87,6,0,6Z"/><path class="cls-3" d="M822.48,274.22c3.86,0,3.87-6,0-6s-3.86,6,0,6Z"/><path class="cls-3" d="M787.06,289.38c3.86,0,3.87-6,0-6s-3.86,6,0,6Z"/><path class="cls-3" d="M753.06,305.64c3.86,0,3.86-6,0-6s-3.87,6,0,6Z"/><path class="cls-3" d="M720.84,321.93c3.86,0,3.87-6,0-6s-3.86,6,0,6Z"/><path class="cls-3" d="M687.56,337.85c3.86,0,3.87-6,0-6s-3.86,6,0,6Z"/><path class="cls-3" d="M658.24,352.76c3.86,0,3.87-6,0-6s-3.86,6,0,6Z"/><path class="cls-3" d="M812.61,302.2c3.86,0,3.86-6,0-6s-3.87,6,0,6Z"/><path class="cls-3" d="M777.18,317.36c3.86,0,3.87-6,0-6s-3.86,6,0,6Z"/><path class="cls-3" d="M743.18,333.63c3.86,0,3.87-6,0-6s-3.87,6,0,6Z"/><path class="cls-3" d="M711,349.92c3.86,0,3.86-6,0-6s-3.87,6,0,6Z"/><path class="cls-3" d="M677.68,365.84c3.86,0,3.87-6,0-6s-3.86,6,0,6Z"/><path class="cls-3" d="M648.37,380.75c3.86,0,3.86-6,0-6s-3.87,6,0,6Z"/><path class="cls-3" d="M839.46,309.72c3.86,0,3.87-6,0-6s-3.87,6,0,6Z"/><path class="cls-3" d="M804,324.88c3.86,0,3.87-6,0-6s-3.87,6,0,6Z"/><path class="cls-3" d="M770,341.14c3.86,0,3.87-6,0-6s-3.86,6,0,6Z"/><path class="cls-3" d="M737.82,357.43c3.86,0,3.87-6,0-6s-3.87,6,0,6Z"/><path class="cls-3" d="M704.54,373.35c3.86,0,3.87-6,0-6s-3.87,6,0,6Z"/><path class="cls-3" d="M675.22,388.26c3.86,0,3.87-6,0-6s-3.87,6,0,6Z"/><path class="cls-3" d="M830,338.49c3.86,0,3.87-6,0-6s-3.87,6,0,6Z"/><path class="cls-3" d="M794.54,353.65c3.86,0,3.86-6,0-6s-3.87,6,0,6Z"/><path class="cls-3" d="M760.53,369.91c3.86,0,3.87-6,0-6s-3.87,6,0,6Z"/><path class="cls-3" d="M728.32,386.21c3.86,0,3.87-6,0-6s-3.87,6,0,6Z"/><path class="cls-3" d="M695,402.12c3.86,0,3.86-6,0-6s-3.87,6,0,6Z"/><path class="cls-3" d="M665.72,417c3.86,0,3.87-6,0-6s-3.87,6,0,6Z"/></g></svg>