<svg xmlns="http://www.w3.org/2000/svg" viewBox="0 0 939 883"><defs><style>.cls-1{fill:#f4a39d;}</style></defs><g id="Layer_1" data-name="Layer 1"><path class="cls-1" d="M765,467.6V415.4H587.28A122.77,122.77,0,0,0,569.62,374L707,245,671.28,207,532.16,337.53a122.7,122.7,0,0,0-38.52-15.77V144H441.45V321.48a122.7,122.7,0,0,0-46.75,20.71L266.08,213.57l-36.9,36.91L359.76,381.06A122.74,122.74,0,0,0,346.5,415.4H174v52.2H346.22A122.63,122.63,0,0,0,368,515.86L226.78,648.44l35.72,38,145.11-136.2a122.54,122.54,0,0,0,32.53,12.25V739h52.19V562.82A122.29,122.29,0,0,0,528,549.28L667.7,689l36.9-36.91L566.85,514.34a122.5,122.5,0,0,0,20.71-46.74Z"/></g></svg>