<svg xmlns="http://www.w3.org/2000/svg" viewBox="0 0 939 883"><defs><style>.cls-1{fill:#9a9fdb;}.cls-2{fill:none;stroke:#9a9fdb;stroke-miterlimit:10;stroke-width:19px;}</style></defs><g id="Layer_1" data-name="Layer 1"><ellipse class="cls-1" cx="483.89" cy="510.73" rx="134.91" ry="118.05"/><path class="cls-2" d="M162.68,510.73s305.16-264.5,631.38,0"/><ellipse class="cls-1" cx="472.99" cy="307.92" rx="15.34" ry="53.7"/><ellipse class="cls-1" cx="389.56" cy="313.25" rx="15.34" ry="53.7" transform="translate(-40.44 58.34) rotate(-8.14)"/><ellipse class="cls-1" cx="310.77" cy="329.18" rx="15.34" ry="53.7" transform="translate(-84.17 107.9) rotate(-17.39)"/><ellipse class="cls-1" cx="236.21" cy="361.14" rx="15.34" ry="53.7" transform="translate(-140.72 151.04) rotate(-27.68)"/><ellipse class="cls-1" cx="163.43" cy="407.29" rx="15.34" ry="53.7" transform="translate(-231.37 215.64) rotate(-42.24)"/><ellipse class="cls-1" cx="549.44" cy="310.19" rx="53.7" ry="15.34" transform="translate(164.55 810.15) rotate(-81.86)"/><ellipse class="cls-1" cx="628.23" cy="326.13" rx="53.7" ry="15.34" transform="translate(129.28 828.2) rotate(-72.61)"/><ellipse class="cls-1" cx="702.79" cy="358.08" rx="53.7" ry="15.34" transform="translate(59.25 814.14) rotate(-62.32)"/><ellipse class="cls-1" cx="775.57" cy="404.24" rx="53.7" ry="15.34" transform="translate(-45.08 706.64) rotate(-47.76)"/></g></svg>