<svg xmlns="http://www.w3.org/2000/svg" viewBox="0 0 939 883"><defs><style>.cls-1{fill:#9eacef;}</style></defs><g id="Layer_1" data-name="Layer 1"><path class="cls-1" d="M606.62,587.31l-10.55-3.41A36.13,36.13,0,0,0,548.93,616l-.7,11.06c-2.22,35-48,46.61-66.64,16.91l-5.89-9.38A36.12,36.12,0,0,0,419,628.86l-7.64,8c-24.2,25.38-66.73,4.85-61.93-29.88l1.52-11a36.12,36.12,0,0,0-39.78-40.85l-11,1.23c-34.86,3.88-54.25-39.17-28.23-62.7l8.22-7.43a36.12,36.12,0,0,0-4.22-56.86l-9.23-6.14c-29.19-19.43-16.37-64.87,18.68-66.17l11.07-.41a36.11,36.11,0,0,0,33.32-46.27l-3.12-10.64c-9.88-33.65,29.16-60.22,56.84-38.68l8.74,6.8a36.13,36.13,0,0,0,55.28-14l4.44-10.15c14.06-32.13,61-27.39,68.41,6.9l2.32,10.83A36.13,36.13,0,0,0,574,286.24l9.93-4.92c31.42-15.58,64.36,18.25,48,49.25l-5.18,9.8a36.12,36.12,0,0,0,23.42,52L660.89,395c34.09,8.27,37.58,55.36,5.09,68.57l-10.27,4.17a36.12,36.12,0,0,0-15.48,54.88l6.57,8.92C667.59,559.75,640,598.07,606.62,587.31Z"/></g></svg>