<svg xmlns="http://www.w3.org/2000/svg" viewBox="0 0 939 883"><defs><style>.cls-1{fill:#f4a39d;}</style></defs><g id="Layer_1" data-name="Layer 1"><path class="cls-1" d="M799.94,460.51v-29H570.8c-.3-2.12-.67-4.23-1.11-6.31l206.68-77-10.11-27.15-206.69,77a96.56,96.56,0,0,0-5.15-8.3l173.67-143-18.41-22.36L534.59,368.59c-2.42-1.91-4.93-3.72-7.52-5.4l83.1-201-26.78-11.07L500.7,351.14a99.64,99.64,0,0,0-12.19-2.67v-213h-29V348.35a97.41,97.41,0,0,0-10.6,2.11L364,151.12l-26.65,11.35,84.92,199.32a97.9,97.9,0,0,0-9.2,6.39L245.39,211.47l-19.78,21.17L393.13,389.2q-2.16,3.09-4.1,6.34L171.19,296.19l-12,26.36L378.1,422.4c-.72,3-1.31,6-1.75,9.14H139.06v29H376.47a100.62,100.62,0,0,0,2.16,10.33l-225,83.82,10.11,27.14,226.47-84.34q2.37,3.8,5,7.34L229,641.64,247.43,664,416,525.18q3,2.16,6.13,4.1l-83.3,201.54,26.77,11.06L448.8,540.65a97.64,97.64,0,0,0,10.74,2.15V747.5h29V542.67a95.91,95.91,0,0,0,9.79-2l80.31,188.51,26.65-11.36L525,529.31a100.88,100.88,0,0,0,10.44-7.4L694.52,670.62l19.78-21.17L555,500.56q2.46-3.65,4.61-7.52l220.2,100.43,12-26.36L569.71,465.82c.37-1.76.69-3.52,1-5.31Z"/></g></svg>