<svg xmlns="http://www.w3.org/2000/svg" viewBox="0 0 939 883"><defs><style>.cls-1{fill:#f4debe;}.cls-2,.cls-4{fill:none;stroke-miterlimit:10;}.cls-2{stroke:#f4debe;}.cls-3{fill:#f7aade;}.cls-4{stroke:#f7aade;}.cls-5{fill:#90edfc;}.cls-6{fill:#ef4d70;}.cls-7{fill:#afceab;}</style></defs><g id="Layer_1" data-name="Layer 1"><path class="cls-1" d="M723.88,334.29c42.5,122.38-33.59,260-169.94,307.31S272.62,628.13,230.12,505.75s33.59-260,169.93-307.32S681.38,211.91,723.88,334.29Zm-214.07,178C574,490,611,428.71,592.52,375.44S507,297,442.83,319.32,341.61,402.86,360.1,456.13,445.64,534.54,509.81,512.26Z"/><path class="cls-2" d="M723.88,334.29c42.5,122.38-33.59,260-169.94,307.31S272.62,628.13,230.12,505.75s33.59-260,169.93-307.32S681.38,211.91,723.88,334.29Z"/><path class="cls-2" d="M592.52,375.44C611,428.71,574,490,509.81,512.26s-131.2-2.85-149.71-56.13,18.53-114.54,82.73-136.81S574,322.14,592.52,375.44Z"/><path class="cls-3" d="M708.88,295.73C751.38,418.11,675.29,555.7,539,603S257.62,589.57,215.12,467.19s33.59-260,169.94-307.31S666.38,173.35,708.88,295.73Zm-214.06,178C559,451.4,596,390.16,577.53,336.88S492,258.48,427.84,280.76,326.62,364.3,345.11,417.58,430.64,496,494.82,473.7Z"/><path class="cls-4" d="M708.88,295.73C751.38,418.11,675.29,555.7,539,603S257.62,589.57,215.12,467.19s33.59-260,169.94-307.31S666.38,173.35,708.88,295.73Z"/><path class="cls-4" d="M577.53,336.88C596,390.16,559,451.4,494.82,473.7s-131.21-2.85-149.71-56.12S363.64,303,427.84,280.76,559,283.58,577.53,336.88Z"/><path class="cls-3" d="M455.75,636.63s-7.67-10.82,21.25-9.82,18.21-9.72,18.21-9.72l-34.28-4.28-12.85,10.64Z"/><path class="cls-3" d="M729.77,404c-2.14-10.71-4.29-23.56-4.29-34.27,0,0-4.28-53.56-15-62.12s-47.13,98.53-47.13,98.53L496.28,543.19l-135,6.43L238.23,514.14s46,82.6,50.26,121.16-8.57,40.7-10.71,62.12S290.63,731.7,301.34,736s30,4.29,36.44,0,17.12-17.14,8.55-42.84-30-53.55-25.71-68.55,15-15,19.28-15,21.42,6.42,21.42,15-6.42,32.13,6.43,40.7,25.7,2.14,27.85,0,10.71-10.71,8.57-21.42c-1.81-9,7.08-24.21,20.21-23.53a9.06,9.06,0,0,0,2.28,1c12.65,4.22,13.17,14.89,13.18,15.22-.07,7-.94,16.91-4.61,25.48-6.43,15-2.15,27.85,8.56,30,9.58,1.91,22.55-20.13,13.74-50.07l0,0s-2.42-9.86,13.33-15.26c1-.35,1.9-.7,2.65-1,7.95.55,18.51.35,27-3.29,15-6.43,21.42-8.57,34.27-6.43s36.42,2.14,42.85-8.57S590.53,588.17,597,586s21.42-4.28,23.56-4.28,12.85,0,19.28-12.85,2.14-21.43,15-30,25.71-8.57,36.42-23.57,10.71-40.7,10.71-51.41,12.85-30,19.28-32.13S731.91,414.66,729.77,404Z"/><rect class="cls-5" x="415.95" y="184.38" width="44.98" height="10.71" rx="2.04"/><rect class="cls-6" x="328.12" y="225.08" width="44.98" height="10.71" rx="2.04" transform="translate(-49.79 105.11) rotate(-15.93)"/><rect class="cls-5" x="304.56" y="278.64" width="44.98" height="10.71" rx="2.04" transform="translate(185.81 -125.48) rotate(30)"/><rect class="cls-7" x="578.75" y="278.64" width="44.98" height="10.71" rx="2.04" transform="translate(222.55 -262.57) rotate(30)"/><rect class="cls-7" x="242.43" y="317.19" width="44.98" height="10.71" rx="2.04" transform="translate(-59.88 60.39) rotate(-11.69)"/><rect class="cls-5" x="285.28" y="368.61" width="44.98" height="10.71" rx="2.04"/><rect class="cls-5" x="593.74" y="351.47" width="44.98" height="10.71" rx="2.04"/><rect class="cls-6" x="238.15" y="417.87" width="44.98" height="10.71" rx="2.04" transform="translate(421.7 -47) rotate(50.53)"/><rect class="cls-6" x="653.72" y="368.61" width="44.98" height="10.71" rx="2.04" transform="translate(535.09 -385.77) rotate(50.53)"/><rect class="cls-7" x="306.7" y="441.44" width="34.27" height="10.71" rx="2.04" transform="translate(-161.07 183.43) rotate(-25.56)"/><rect class="cls-5" x="499.49" y="227.23" width="34.27" height="10.71" rx="2.04" transform="translate(-49.79 245.64) rotate(-25.56)"/><rect class="cls-6" x="345.26" y="494.99" width="44.98" height="10.71" rx="2.04" transform="translate(326.58 -119.24) rotate(32.51)"/><rect class="cls-5" x="266" y="494.99" width="44.98" height="10.71" rx="2.04" transform="translate(-148.16 122.31) rotate(-19.15)"/><rect class="cls-5" x="640.87" y="293.63" width="44.98" height="10.71" rx="2.04" transform="translate(-61.37 234.14) rotate(-19.15)"/><rect class="cls-5" x="578.75" y="216.51" width="44.98" height="10.71" rx="2.04" transform="translate(-39.51 209.49) rotate(-19.15)"/><rect class="cls-7" x="317.41" y="529.27" width="34.27" height="10.71" rx="2.04"/><rect class="cls-5" x="403.09" y="537.83" width="44.98" height="10.71" rx="2.04"/><rect class="cls-6" x="497.35" y="550.69" width="44.98" height="10.71" rx="2.04" transform="translate(249.82 -155.65) rotate(22.3)"/><rect class="cls-5" x="538.05" y="494.99" width="44.98" height="10.71" rx="2.04" transform="translate(-115.83 173.11) rotate(-15.93)"/><rect class="cls-7" x="578.75" y="437.15" width="44.98" height="10.71" rx="2.04"/><rect class="cls-5" x="638.73" y="413.59" width="44.98" height="10.71" rx="2.04" transform="translate(164.79 -186.27) rotate(18.28)"/><rect class="cls-7" x="403.09" y="227.23" width="44.98" height="10.71" rx="2.04" transform="translate(-58.51 262.1) rotate(-32.15)"/><rect class="cls-6" x="505.92" y="177.96" width="44.98" height="10.71" rx="2.04" transform="translate(13.17 -34.29) rotate(3.76)"/><rect class="cls-7" x="450.22" y="501.42" width="44.98" height="10.71" rx="2.04" transform="translate(-23.13 22.61) rotate(-2.67)"/></g></svg>