<svg xmlns="http://www.w3.org/2000/svg" viewBox="0 0 939 883"><defs><style>.cls-1{fill:#f7a65c;}</style></defs><g id="Layer_1" data-name="Layer 1"><path class="cls-1" d="M757.82,364.08c-22.54-53.54-92.09-75.35-155.33-48.72a143.28,143.28,0,0,0-43,27.93A141.14,141.14,0,0,0,574,280.18c0-68.62-47.09-124.26-105.18-124.26S363.68,211.56,363.68,280.18a141.55,141.55,0,0,0,13.5,60.94,143.62,143.62,0,0,0-40.67-25.76c-63.24-26.63-132.79-4.82-155.33,48.72s10.45,118.53,73.7,145.16a143.07,143.07,0,0,0,49.85,11.21,149.23,149.23,0,0,0-14.92,9.62C234.5,570.7,217.55,641.58,251.94,688.4S359,740.23,414.35,699.61c30.43-22.36,49.24-53.87,54.29-85.5,5.08,31.58,23.88,63,54.27,85.35,55.3,40.63,128,35.61,162.41-11.2s17.43-117.71-37.88-158.33a146.43,146.43,0,0,0-14.59-9.43,142.9,142.9,0,0,0,51.27-11.26C747.37,482.61,780.37,417.62,757.82,364.08ZM468.22,575.56l1.31,0c-.34,1.56-.65,3.12-.91,4.69-.27-1.57-.58-3.13-.92-4.68Z"/></g></svg>