<svg xmlns="http://www.w3.org/2000/svg" viewBox="0 0 939 883"><defs><style>.cls-1{fill:#efc059;}.cls-2{fill:#8c6226;}.cls-3{fill:#ea844b;}.cls-4{fill:#f4df47;}.cls-5{fill:#94dd7c;}</style></defs><g id="Layer_1" data-name="Layer 1"><path class="cls-1" d="M477.41,595.9v-.24l-6.26.12-6.25-.12v.24l-264.79,5.24s1.58,56.44,20.8,65c16.42,7.3,192.6,9.3,243.41,9.73v.1l6.83,0,6.84,0v-.1c50.81-.43,227-2.43,243.41-9.73,19.22-8.54,20.8-65,20.8-65Z"/><rect class="cls-2" x="163.25" y="510.25" width="606.4" height="91.81" rx="19.92"/><rect class="cls-3" x="191.01" y="473.95" width="555.16" height="38.43" rx="8.34"/><path class="cls-4" d="M169.23,449.53s-53.42,31-.6,27.1,190.56,5.5,230.73,23.76,64.71,9.32,68.77,9.4,183.31-33.86,246.16-32.48,86,.31,77.81-14.08S747.39,448,747.39,448l-551-12.12Z"/><path class="cls-5" d="M780.39,435.1h0c-.5-.3-1-.58-1.54-.83-6.84-3.54-35.75-16.88-71.12-9.43A119.58,119.58,0,0,0,695.66,428L240.92,409.89,194.6,425.23s-29.47-2.87-27.36,6.23,30.57,3.5,36.33,8.86-15.28,10.48-9,17.3,21.06,11.93,31.58,3.41,11.88-15.34,22.78-15.34,2.48,6.81,4.59,11.93,8.42,8.52,18.94,6.82,10-16.43,19.75-19.29,20.25-1.17,22.35,2.24-8.42,10.23-6.31,17.05,10.52,5.11,16.84,6.81,6.31,5.12,10.52,6.82,13.14,3.41,17.1,0-6.57-17-2.36-20.45,12.63-5.12,21.05-3.41-2.11,8.52,4.21,11.93,10.52-1.71,21.05-1.71,18.94,5.12,25.26,3.41-4.21-7.39,0-11.36,21.05-4,18.94,2.84,10.53,13.64,16.84,11.93,10.53-8.52,16.84-8.52,12.63,1.7,16.84-3.41,0-6.82,2.11-8.52,6.31-5.11,18.94,1.7,0,10.23,0,15.34,4.21,10.23,8.42,10.23,8.42-1.7,14.74-1.7S552.19,485.42,565,480s.13-17.31,8.55-19,12.63,8.52,18.94,10.22,14.74,0,18.95-1.7,5.12-19.82,13.09-20.14,5.86,8.21,10.07,11.62,12.63,1.7,16.84,3.4,2.1,6.82,8.42,11.94,16.84,5.11,21,3.41,12.63-10.23,8.42-18.75,6.31-10.23,10.52-8.53,0,11.93,4.21,15.34,14.74,10.23,33.68,3.41S744,457.62,744,452.5s10.52-5.11,12.63-3.41,10.52,8.53,14.73,6.82,0-5.11,4.21-8.52,6.32-1.7,8.42-5.11C785.66,439.61,783.44,437,780.39,435.1Z"/><path class="cls-1" d="M748.62,424.06a106.33,106.33,0,0,0,12.49-49.4c0-92.57-126.66-167.61-282.91-167.61s-282.92,75-282.92,167.61a106.34,106.34,0,0,0,12.5,49.4S551.68,448.9,748.62,424.06Z"/></g></svg>