<svg xmlns="http://www.w3.org/2000/svg" viewBox="0 0 939 883"><defs><style>.cls-1{fill:#bcef9e;}</style></defs><g id="Layer_1" data-name="Layer 1"><path class="cls-1" d="M521.21,678.66h0A103,103,0,0,0,425.38,680h0c-75,40.76-164.17-22.16-150.91-106.47h0a103,103,0,0,0-30.89-90.73h0c-61.94-58.73-29.66-163,54.63-176.43h0A103,103,0,0,0,375,249h0c36.7-77.05,145.83-78.57,184.67-2.56h0a103,103,0,0,0,78.31,55.25h0c84.63,11.09,119.8,114.42,59.51,174.84h0A103,103,0,0,0,669.1,568h0C684.7,652,597.3,717.33,521.21,678.66Z"/></g></svg>