<svg xmlns="http://www.w3.org/2000/svg" viewBox="0 0 939 883"><defs><style>.cls-1{fill:#f4a39d;}</style></defs><g id="Layer_1" data-name="Layer 1"><path class="cls-1" d="M458.53,519.94l-49.69-60.53,46.29-67L408.84,323l49.69-94.23c-1.31-1.41-2.61-2.82-4-4.19h0a164.46,164.46,0,0,0-232.59,0h0a164.47,164.47,0,0,0,0,232.58h0c1.38,1.37,2.79,2.67,4.2,4l-.11.1L458.64,693.79l-49.8-110.95Z"/><path class="cls-1" d="M717,234.41h0A164.5,164.5,0,0,0,527.1,203.66L455.35,332.35l46.06,70.31-46.28,66.86,51.43,64.28-51.43,61.71,21.51,111.13,231.05-231C710.88,472.85,714,470,717,467h0A164.48,164.48,0,0,0,717,234.41Z"/></g></svg>