<svg xmlns="http://www.w3.org/2000/svg" viewBox="0 0 939 883"><defs><style>.cls-1{fill:#554a56;}.cls-2{fill:#f4e5cb;}.cls-3{fill:#af6188;}.cls-4{fill:#7e448c;}.cls-5{fill:#4e2656;}.cls-6{fill:#573060;}.cls-7{fill:#663e70;}</style></defs><g id="Layer_1" data-name="Layer 1"><path class="cls-1" d="M125.23,430.6,668.31,243.66s110,40.5,123.65,186.94"/><polygon class="cls-2" points="791.96 430.6 125.23 430.6 141.75 667.38 764.99 667.38 791.96 430.6"/><polygon class="cls-3" points="128.82 482.02 786.1 482.02 781.34 523.86 131.74 523.86 128.82 482.02"/><polygon class="cls-3" points="134.15 558.44 776.87 558.44 773.5 592.67 136.54 592.67 134.15 558.44"/><path class="cls-4" d="M140.26,427.48H791.72S798,449.56,798,458.91s-3.13,21.59-21.93,7.68-34.46-18.93-51.69-16.42S675.8,468.26,650.73,462s-62.46-14.37-100.15-11.86-119.16,15-153.62,5.63-81.46-12.47-94-12.47-49.43,10.56-73.28,6.84-27-13.07-48.91-13.07-45.91,13.07-45.91,13.07-23,2.51-13.61-16.18C121.26,434,124.6,427.48,140.26,427.48Z"/><path class="cls-4" d="M615.21,247.25s-13.3,12-32,12-37.39,3.12-49.16,7.79-31.85,23.37-47.42,23.37-37.39,3.11-49.85,15.57-31.16,12.47-65.43,18.7-53,24.92-65.43,31.15-40.5,3.12-55.72,12.46S228,390.09,196.89,390.09c-12,0-24.35,5.66-35,12.61l0,0s-8.66,6.11-24.24,6.11-17.58,27.8-17.58,27.8l12.19-8.43L648.37,257.45V243.66Z"/><circle class="cls-5" cx="662.66" cy="267.03" r="51.41"/><circle class="cls-6" cx="724.98" cy="316.88" r="51.41"/><circle class="cls-7" cx="768.59" cy="382.3" r="51.41"/></g></svg>