<svg xmlns="http://www.w3.org/2000/svg" viewBox="0 0 939 883"><defs><style>.cls-1{fill:#998250;}.cls-2{fill:#efd695;}.cls-3{fill:#f9f9f7;}.cls-4{fill:#f7ed74;}</style></defs><g id="Layer_1" data-name="Layer 1"><path class="cls-1" d="M745,251.77C745,186.73,622.12,134,470.55,134S196.11,186.73,196.11,251.77c0,29.28,24.92,56.07,66.15,76.67-10.86,53.37-40.87,205.19-40.89,253.45,0,58.92,10.5,98.88,31.52,124.12s65.2,40,128.29,42.06c47.9,1.59,74.57.76,84.64.27,10.07.49,36.74,1.32,84.64-.27C613.55,746,657.72,731.24,678.74,706s31.55-65.2,31.53-124.12c0-47.07-28.57-192.67-40.06-249.34C716.57,311.47,745,283,745,251.77Z"/><path class="cls-2" d="M730.64,256.45c0-63.59-120.13-115.14-268.32-115.14S194,192.86,194,256.45c0,28.63,24.37,54.82,64.67,75-10.62,52.17-40,200.6-40,247.79,0,57.61,10.26,96.67,30.82,121.34s63.74,39.07,125.42,41.13c46.84,1.56,72.91.75,82.76.27,9.84.48,35.92,1.29,82.75-.27,61.68-2.06,104.86-16.45,125.42-41.13s30.84-63.73,30.82-121.34c0-46-27.93-188.37-39.16-243.77C702.85,314.82,730.64,287,730.64,256.45Z"/><path class="cls-3" d="M456,321.88s55.2-28,115.41,20.9,52.16,112.28,47.37,128.51-29.84,59.36-39.37,72-21.86,35.6-20.33,56.6S549,655,522.86,672.14,452.41,665.82,441,625s-88.17-73.86-110.75-73.52-100.48-60.82-53.22-117,75.53-22.45,110.29-28.5S401.38,358.09,456,321.88Z"/><circle class="cls-4" cx="478.97" cy="472.57" r="47.53"/></g></svg>