<svg xmlns="http://www.w3.org/2000/svg" viewBox="0 0 939 883"><defs><style>.cls-1{fill:#b8d8d5;}.cls-2{fill:#ecf29e;}</style></defs><g id="Layer_1" data-name="Layer 1"><path class="cls-1" d="M761.41,437.36c0-36-50.66-65.24-113.15-65.24a193.74,193.74,0,0,0-20.38,1.08q5-3.66,10-7.73c48.08-39.92,68.39-94.75,45.38-122.47s-80.65-17.83-128.73,22.09a188.19,188.19,0,0,0-27.46,28,193.89,193.89,0,0,0,1.87-26.91c0-62.49-29.21-113.15-65.24-113.15s-65.24,50.66-65.24,113.15a192.82,192.82,0,0,0,1.11,20.63,192.36,192.36,0,0,0-22.23-21.69C329.22,225.17,271.58,215.28,248.57,243s-2.71,82.55,45.37,122.47c2.36,2,4.76,3.83,7.16,5.65-2.78-.21-5.59-.37-8.43-.46-62.46-1.88-114,25.79-115.06,61.8s48.67,66.74,111.13,68.62a193.71,193.71,0,0,0,20.11-.44,195,195,0,0,0-18.77,13.79C242,554.35,221.69,609.18,244.7,636.9s80.65,17.83,128.73-22.09A189.6,189.6,0,0,0,400,588a192.66,192.66,0,0,0-2.16,28.88C397.81,679.34,427,730,463.05,730s65.24-50.66,65.24-113.15A193.57,193.57,0,0,0,526.56,591a190.27,190.27,0,0,0,24.06,23.81c48.07,39.92,105.71,49.81,128.72,22.09s2.71-82.55-45.37-122.47a193.23,193.23,0,0,0-20.76-15,190.54,190.54,0,0,0,35,3.21C710.75,502.6,761.41,473.39,761.41,437.36Z"/><circle class="cls-2" cx="461.84" cy="433.68" r="59.37"/></g></svg>