<svg xmlns="http://www.w3.org/2000/svg" viewBox="0 0 939 883"><defs><style>.cls-1{fill:#bcf7d4;}</style></defs><g id="Layer_1" data-name="Layer 1"><path class="cls-1" d="M644.22,447.69c-28.19-11.55-56.56-17.47-82.58-18.22a255.1,255.1,0,0,0,3-39.26c0-89.73-45.79-162.47-102.27-162.47S360.11,300.48,360.11,390.21a253.75,253.75,0,0,0,3.15,40.15,244.11,244.11,0,0,0-68.48,17.33c-83,34-133,104-111.55,156.25s106.1,67,189.12,33c43.07-17.65,77.23-45,97.15-74.47,19.92,29.5,54.08,56.82,97.15,74.47,83,34,167.7,19.25,189.12-33S727.25,481.72,644.22,447.69Z"/></g></svg>