<svg width="195" height="185" viewBox="0 0 195 185" fill="none" xmlns="http://www.w3.org/2000/svg">
<path d="M166.122 96.4828V90.4069H118.537C118.475 89.9628 118.398 89.5207 118.306 89.0849L161.227 72.9524L159.128 67.2641L116.205 83.3966C115.878 82.7991 115.521 82.2188 115.135 81.6577L151.201 51.6973L147.378 47.0126L111.017 77.2244C110.515 76.8242 109.993 76.445 109.456 76.093L126.713 33.9809L121.151 31.6616L103.979 73.5684C103.148 73.3287 102.302 73.1419 101.448 73.009V28.3827H95.4255V72.9838C94.6842 73.09 93.9493 73.2376 93.2243 73.4259L75.5912 31.6616L70.0568 34.0395L87.692 75.7997C87.0303 76.2088 86.3924 76.6558 85.7814 77.1385L50.9597 44.3057L46.8521 48.7411L81.6405 81.5424C81.3415 81.974 81.0577 82.4168 80.7891 82.8708L35.5508 62.0556L33.0588 67.5784L78.5193 88.4983C78.3698 89.1268 78.2473 89.7554 78.1559 90.4132H28.8784V96.4891H78.1808C78.2927 97.2179 78.4424 97.9404 78.6294 98.6534L31.9041 116.215L34.0037 121.901L81.0342 104.231C81.3623 104.761 81.7084 105.274 82.0725 105.768L47.5561 134.432L51.3834 139.117L86.3899 110.032C86.8052 110.334 87.2296 110.62 87.6629 110.891L70.3642 153.116L75.9235 155.434L93.2014 113.273C93.9359 113.465 94.6805 113.616 95.4318 113.724V156.611H101.454V113.696C102.139 113.592 102.817 113.453 103.487 113.277L120.165 152.773L125.699 150.393L109.026 110.897C109.78 110.427 110.504 109.909 111.194 109.347L144.23 140.504L148.337 136.068L115.256 104.874C115.596 104.364 115.915 103.839 116.213 103.298L161.941 124.34L164.434 118.817L118.311 97.5953C118.387 97.2266 118.454 96.8578 118.518 96.4828H166.122Z" fill="#F6B05E"/>
</svg>
