<svg xmlns="http://www.w3.org/2000/svg" viewBox="0 0 939 883"><defs><style>.cls-1{fill:#bff29e;stroke:#bff29e;}.cls-1,.cls-2{stroke-miterlimit:10;}.cls-2{fill:#f76561;stroke:#f76561;}.cls-3{fill:#f9f4a0;}.cls-4{fill:#e9f4f4;}</style></defs><g id="Layer_1" data-name="Layer 1"><path class="cls-1" d="M679,479.27c-214.58-185.11-417.4,0-417.4,0l53.48.76s152.13-120.44,313.08,0Z"/><path class="cls-2" d="M742.65,480l52.9-.76c-366.93-360.27-638.06,0-638.06,0H203S452.86,209.94,742.65,480Z"/><path class="cls-3" d="M679,479.27l63.63.76C442.37,206.29,203,479.27,203,479.27h58.6S461.93,292.37,679,479.27Z"/><path class="cls-4" d="M287.5,473.59a45.06,45.06,0,0,0-10.8,1.3C275,461.36,260,450.77,241.85,450.77a45.68,45.68,0,0,0-8.7.83c.09-1,.14-1.92.14-2.91,0-18-15.67-32.68-35-32.68s-35,14.64-35,32.68a30.79,30.79,0,0,0,.47,5.29,45.63,45.63,0,0,0-7.47-.62c-17.8,0-32.49,10.14-34.71,23.26a46.05,46.05,0,0,0-6.27-.43c-19.34,0-35,12-35,26.71s15.67,26.72,35,26.72a45,45,0,0,0,11.16-1.4c2.84,12.58,17.2,22.14,34.49,22.14a45.56,45.56,0,0,0,6.57-.47c5.94,8.32,17.49,14,30.78,14,15,0,27.84-7.23,32.81-17.37a45.24,45.24,0,0,0,10.76,1.29c17.29,0,31.65-9.57,34.49-22.14A45,45,0,0,0,287.5,527c19.34,0,35-12,35-26.71S306.84,473.59,287.5,473.59Zm-108.79,27v.07l-.07,0Z"/><path class="cls-4" d="M823.72,473.59a45.06,45.06,0,0,0-10.8,1.3c-1.71-13.53-16.66-24.12-34.85-24.12a45.68,45.68,0,0,0-8.7.83c.09-1,.14-1.92.14-2.91,0-18-15.68-32.68-35-32.68s-35,14.64-35,32.68A30.79,30.79,0,0,0,700,454a45.63,45.63,0,0,0-7.47-.62c-17.8,0-32.49,10.14-34.71,23.26a46.05,46.05,0,0,0-6.27-.43c-19.34,0-35,12-35,26.71s15.67,26.72,35,26.72a45,45,0,0,0,11.16-1.4c2.84,12.58,17.2,22.14,34.49,22.14a45.56,45.56,0,0,0,6.57-.47c5.94,8.32,17.49,14,30.78,14,15,0,27.84-7.23,32.81-17.37a45.24,45.24,0,0,0,10.76,1.29c17.29,0,31.65-9.57,34.49-22.14A45,45,0,0,0,823.72,527c19.34,0,35-12,35-26.71S843.06,473.59,823.72,473.59Zm-108.79,27v.07l-.07,0Z"/></g></svg>