<svg xmlns="http://www.w3.org/2000/svg" viewBox="0 0 939 883"><defs><style>.cls-1{fill:#f4c88e;}.cls-2{fill:#f2a2bf;}.cls-3{fill:#f25440;}.cls-4{fill:none;stroke:#db463b;stroke-miterlimit:10;stroke-width:3px;}</style></defs><g id="Layer_1" data-name="Layer 1"><polygon class="cls-1" points="469.01 731 331.42 436.25 605.46 435.72 469.01 731"/><path class="cls-2" d="M649.36,422.86c0-7.91-13.25-15.22-35.62-21.1.51-10.83,3.94-139.15-115.85-162.91-9-3.26-20.7-4.73-35.68-4-155,8-144.39,167.14-144.39,167.14l2.25,1.17c-19.21,5.62-30.43,12.38-30.43,19.66,0,16.4,56.9,30.19,134,34.17l.64.33.24-.28c14.36.73,29.42,1.11,44.94,1.11,12.91,0,25.49-.27,37.63-.78l.07.44.93-.48C588.89,453.89,649.36,439.77,649.36,422.86Z"/><circle class="cls-3" cx="468.43" cy="234.44" r="24.62"/><path class="cls-4" d="M468.43,209.81S473.78,182,497.34,167s36.4-15,36.4-15"/></g></svg>