<svg width="25" height="25" viewBox="0 0 25 25" fill="none" xmlns="http://www.w3.org/2000/svg">
<path d="M20.629 15.837C19.399 15.837 18.209 15.637 17.099 15.277C16.749 15.157 16.359 15.247 16.089 15.517L14.519 17.487C11.689 16.137 9.03902 13.587 7.62902 10.657L9.57902 8.99703C9.84902 8.71703 9.92902 8.32703 9.81902 7.97703C9.44902 6.86703 9.25902 5.67703 9.25902 4.44703C9.25902 3.90703 8.80902 3.45703 8.26902 3.45703H4.80902C4.26902 3.45703 3.61902 3.69703 3.61902 4.44703C3.61902 13.737 11.349 21.457 20.629 21.457C21.339 21.457 21.619 20.827 21.619 20.277V16.827C21.619 16.287 21.169 15.837 20.629 15.837Z" fill="#F4F1EB"/>
</svg>
