<svg width="330" height="654" viewBox="0 0 330 654" fill="none" xmlns="http://www.w3.org/2000/svg">
<path d="M221.562 341.943C208.072 309.746 166.445 296.63 128.596 312.645C119.082 316.643 110.364 322.333 102.86 329.441C108.643 317.637 111.616 304.645 111.544 291.489C111.544 250.224 83.3604 216.764 48.593 216.764C13.8256 216.764 -14.3342 250.224 -14.3342 291.489C-14.3884 304.156 -11.628 316.676 -6.25436 328.136C-13.4429 321.633 -21.6722 316.395 -30.5957 312.645C-68.4454 296.63 -110.072 309.746 -123.562 341.943C-137.053 374.139 -117.308 413.222 -79.452 429.236C-69.9899 433.264 -59.8836 435.547 -49.6163 435.977C-52.7045 437.726 -55.6864 439.658 -58.5461 441.762C-91.6496 466.195 -101.794 508.82 -81.2116 536.975C-60.6289 565.131 -17.1352 568.144 15.9922 543.717C34.2049 530.27 45.4628 511.321 48.4853 492.3C51.5257 511.291 62.7777 530.186 80.9664 543.626C114.064 568.06 157.576 565.041 178.17 536.891C198.765 508.742 188.602 466.105 155.499 441.678C152.702 439.616 149.786 437.722 146.766 436.007C157.323 435.673 167.727 433.377 177.452 429.236C215.308 413.222 235.058 374.139 221.562 341.943ZM48.2339 469.118H49.018C48.8145 470.056 48.6289 470.994 48.4733 471.938C48.3117 470.994 48.1262 470.056 47.9227 469.124L48.2339 469.118Z" fill="#F7A65C"/>
<path d="M258.434 83.6567C253.121 81.4984 247.773 80.3922 242.868 80.252C243.247 77.8247 243.436 75.372 243.434 72.9158C243.434 56.1486 234.802 42.5562 224.156 42.5562C213.51 42.5562 204.88 56.1486 204.88 72.9158C204.877 75.4283 205.076 77.937 205.474 80.4183C201.036 80.8717 196.687 81.9625 192.566 83.6567C176.92 90.01 167.495 103.09 171.539 112.854C175.582 122.618 191.538 125.374 207.187 119.021C215.306 115.722 221.745 110.612 225.5 105.105C229.255 110.617 235.694 115.722 243.813 119.021C259.458 125.374 275.424 122.618 279.461 112.854C283.499 103.09 274.085 90.0156 258.434 83.6567Z" fill="#BCF7D4"/>
</svg>
