<svg width="664" height="647" viewBox="0 0 664 647" fill="none" xmlns="http://www.w3.org/2000/svg">
<path d="M83.5538 268.183L83.5844 253.698C83.5844 251.75 84.3581 249.882 85.7354 248.505C87.1126 247.128 88.9805 246.354 90.9282 246.354L307.355 246.758C309.301 246.766 311.164 247.542 312.539 248.918C313.915 250.293 314.691 252.156 314.699 254.102V268.587L83.5538 268.183ZM121.497 256.605C121.498 255.979 121.314 255.367 120.967 254.846C120.62 254.325 120.127 253.918 119.549 253.678C118.972 253.437 118.335 253.373 117.722 253.494C117.108 253.615 116.543 253.915 116.1 254.357C115.656 254.799 115.354 255.362 115.231 255.975C115.108 256.589 115.169 257.225 115.407 257.804C115.646 258.382 116.05 258.877 116.57 259.226C117.09 259.575 117.701 259.761 118.327 259.763C118.744 259.766 119.158 259.686 119.545 259.529C119.932 259.371 120.283 259.139 120.58 258.845C120.876 258.55 121.111 258.201 121.272 257.815C121.432 257.43 121.515 257.016 121.515 256.599L121.497 256.605ZM110.958 256.605C110.96 255.979 110.775 255.367 110.429 254.846C110.082 254.325 109.589 253.918 109.011 253.678C108.433 253.437 107.797 253.373 107.183 253.494C106.569 253.615 106.005 253.915 105.562 254.357C105.118 254.799 104.816 255.362 104.692 255.975C104.569 256.589 104.631 257.225 104.869 257.804C105.107 258.382 105.512 258.877 106.032 259.226C106.551 259.575 107.163 259.761 107.788 259.763C108.209 259.765 108.626 259.684 109.016 259.523C109.405 259.363 109.758 259.126 110.055 258.828C110.352 258.529 110.586 258.175 110.744 257.784C110.903 257.394 110.982 256.977 110.977 256.556L110.958 256.605ZM100.42 256.605C100.422 255.979 100.239 255.366 99.8932 254.844C99.5473 254.322 99.0544 253.915 98.4768 253.673C97.8992 253.432 97.263 253.367 96.6486 253.487C96.0342 253.608 95.4693 253.907 95.0254 254.349C94.5814 254.79 94.2784 255.353 94.1546 255.967C94.0309 256.581 94.0919 257.217 94.3301 257.796C94.5683 258.375 94.9728 258.87 95.4926 259.219C96.0124 259.568 96.624 259.755 97.25 259.756C97.6704 259.759 98.0871 259.678 98.4759 259.518C98.8646 259.357 99.2176 259.122 99.5143 258.824C99.8111 258.526 100.046 258.172 100.204 257.783C100.363 257.393 100.442 256.976 100.438 256.556L100.42 256.605Z" fill="#F3F0EA"/>
<path d="M118.351 259.756C120.099 259.756 121.515 258.34 121.515 256.592C121.515 254.845 120.099 253.428 118.351 253.428C116.604 253.428 115.187 254.845 115.187 256.592C115.187 258.34 116.604 259.756 118.351 259.756Z" fill="#ADD591"/>
<path d="M107.813 259.738C109.56 259.738 110.977 258.322 110.977 256.574C110.977 254.827 109.56 253.41 107.813 253.41C106.065 253.41 104.649 254.827 104.649 256.574C104.649 258.322 106.065 259.738 107.813 259.738Z" fill="#FFDC78"/>
<path d="M97.2745 259.72C99.0219 259.72 100.438 258.303 100.438 256.556C100.438 254.808 99.0219 253.392 97.2745 253.392C95.5271 253.392 94.1105 254.808 94.1105 256.556C94.1105 258.303 95.5271 259.72 97.2745 259.72Z" fill="#DD816A"/>
<path d="M83.2845 413.223L83.5538 268.183L314.675 268.612L314.405 413.651C314.405 415.599 313.632 417.467 312.255 418.844C310.877 420.222 309.009 420.995 307.062 420.995L90.61 420.567C88.6655 420.562 86.8023 419.786 85.429 418.409C84.0557 417.033 83.2845 415.168 83.2845 413.223Z" fill="#F7E4C1"/>
<path d="M219.151 262.064C225.521 268.459 226.923 267.382 227.106 267.137C226.473 268.58 225.676 269.945 224.732 271.207C221.917 274.713 225.423 276.825 223.306 281.035C221.189 285.245 223.998 287.363 224.695 289.468C225.24 291.12 222.559 295.135 221.366 296.812C221.036 297.271 220.821 297.552 220.821 297.552C220.821 297.552 217.149 302.02 213.533 305.704C212.4 306.854 211.274 307.932 210.265 308.764C208.043 310.6 205.424 312.65 201.911 313.446C198.759 314.155 194.873 313.868 189.892 311.536C183.282 308.44 178.062 301.463 175.1 296.702C174.105 295.118 173.192 293.483 172.365 291.806C172.365 291.806 169.917 296.371 164.984 294.254C160.052 292.136 157.983 280.894 165.015 278.097C165.015 278.097 168.515 284.425 169.219 284.425C169.923 284.425 165.027 270.35 168.546 266.861C172.065 263.373 176.281 262.663 179.109 254.236C181.936 245.809 191.061 247.939 191.795 232.48C191.795 232.48 197.413 231.091 201.617 238.827C205.822 246.562 206.513 252.902 212.823 257.798C212.835 257.822 217.045 259.94 219.151 262.064Z" fill="#EAB88B"/>
<path d="M131.209 335.465C141.123 323.611 172.34 312.895 172.34 312.895C172.34 312.895 178.98 330.116 189.512 333.665C193.245 334.889 196.979 333.959 200.247 332.203C200.075 343.726 211.58 365.672 216.495 367.086C221.409 368.499 227.743 362.19 234.059 364.307C240.374 366.425 240.386 362.214 241.812 351.676C243.238 341.138 231.329 325.648 233.44 319.333C233.557 318.984 233.661 318.629 233.765 318.256C241.451 322.466 253.44 333.066 253.44 333.066C253.44 332.674 253.489 332.27 253.507 331.872C253.538 332.313 254.45 346.823 253.758 350.275C253.701 350.535 253.701 350.804 253.758 351.064C254.285 353.328 260.588 351.064 265.716 351.707C271.334 352.417 278.366 349.975 278.366 349.975C281.597 365.36 284.486 402.501 273.666 420.212C273.666 420.212 273.531 420.518 273.305 420.977L272.962 420.916L254.695 420.879V420.175C261.714 420.175 260.325 413.162 260.325 413.162C265.937 410.365 263.152 404.043 263.152 404.043C263.941 403.848 264.643 403.399 265.152 402.765C265.66 402.132 265.947 401.349 265.967 400.537C265.741 398.658 263.972 396.577 261.726 394.637C261.628 394.386 259.951 390.292 257.914 388.927C255.876 387.563 250.876 387.52 250.876 387.52C248.483 387.281 245.925 388.578 243.202 390.494C240.478 372.404 238.954 375.556 238.954 375.556C238.244 381.877 224.634 401.705 224.634 401.705C214.653 403.486 197.988 401.43 192.548 400.059C186.44 398.904 180.239 398.308 174.023 398.278H173.631C172.032 401.106 170.941 404.192 170.406 407.397C169.917 410.812 169.409 416.577 168.448 420.744L116.656 420.646C104.924 407.55 111.84 378.218 118.143 366.908C125.193 354.277 123.792 352.869 128.736 339.528C129.319 338.041 130.156 336.666 131.209 335.465Z" fill="#BF99C6"/>
<path d="M254.682 420.175V420.879L168.454 420.72C169.415 416.558 169.923 410.787 170.412 407.372C170.947 404.168 172.038 401.082 173.638 398.254H174.029C180.245 398.284 186.446 398.88 192.554 400.035C197.994 401.406 214.659 403.462 224.64 401.681C224.958 401.626 225.252 401.565 225.564 401.497C232.051 400.12 237.938 394.154 243.208 390.482C245.931 388.566 248.489 387.269 250.882 387.508C250.882 387.508 257.253 390.788 261.72 394.637C263.966 396.577 265.735 398.658 265.961 400.537C265.941 401.348 265.655 402.13 265.148 402.764C264.641 403.397 263.94 403.847 263.152 404.043C263.152 404.043 265.949 410.371 260.325 413.168C260.313 413.162 261.702 420.187 254.682 420.175Z" fill="#E5AE80"/>
<path d="M261.714 394.631C257.246 390.782 250.876 387.501 250.876 387.501C250.876 387.501 255.772 387.501 257.901 388.921C260.031 390.341 261.616 394.38 261.714 394.631Z" fill="#E5AE80"/>
<path d="M233.44 319.333C231.323 325.648 243.232 341.125 241.812 351.658C240.393 362.19 240.38 366.406 234.059 364.289C227.737 362.171 221.409 368.481 216.495 367.067C211.58 365.654 200.075 343.708 200.247 332.184C206.201 328.996 210.601 323.152 210.601 323.152C209.908 320.191 209.812 317.121 210.317 314.123C210.822 311.124 211.92 308.256 213.545 305.686C217.162 302.014 220.834 297.534 220.834 297.534C220.834 297.534 221.048 297.252 221.378 296.793C221.378 296.793 223.288 300 226.794 300.71C230.301 301.42 232.418 300.019 233.82 300.71C234.312 300.91 234.837 301.013 235.368 301.016C235.368 301.016 235.533 311.732 233.759 318.243C233.661 318.629 233.557 318.978 233.44 319.333Z" fill="#303031"/>
<path d="M244.376 295.814C243.543 297.462 242.248 298.832 240.65 299.757C239.051 300.682 237.218 301.121 235.374 301.022C234.843 301.02 234.318 300.916 233.826 300.716C232.424 300.013 230.313 301.408 226.8 300.716C223.288 300.025 221.384 296.8 221.384 296.8C222.578 295.135 225.258 291.12 224.714 289.456C224.016 287.351 221.213 285.239 223.324 281.023C225.436 276.806 221.935 274.701 224.75 271.194C225.694 269.933 226.491 268.567 227.125 267.125C227.89 265.644 228.704 264.579 231.078 264.193C231.44 264.151 231.806 264.169 232.161 264.248C238.624 265.368 262.191 278.752 265.459 285.331C268.96 292.363 273.801 334.522 277.289 345.764C277.632 346.878 277.999 348.298 278.341 349.987C278.341 349.987 271.31 352.435 265.692 351.719C260.563 351.07 254.26 353.341 253.734 351.076C253.676 350.816 253.676 350.547 253.734 350.287C254.425 346.835 253.513 332.325 253.483 331.885C254.138 320.918 254.162 308.421 254.162 306.389C254.162 304.358 252.773 300.068 249.266 299.358C248.245 299.151 247.281 298.728 246.437 298.116C245.594 297.505 244.891 296.72 244.376 295.814Z" fill="#E5AE80"/>
<path d="M232.167 264.236C231.812 264.157 231.446 264.139 231.084 264.181C228.71 264.567 227.896 265.631 227.131 267.112C226.929 267.357 225.527 268.434 219.175 262.039C217.07 259.928 212.859 257.81 212.859 257.81C206.544 252.884 205.852 246.556 201.654 238.839C197.456 231.122 191.832 232.493 191.832 232.493C191.097 247.951 181.973 245.822 179.145 254.249C176.318 262.676 172.101 263.367 168.583 266.874C165.064 270.38 169.953 284.438 169.256 284.438C168.558 284.438 165.051 278.11 165.051 278.11C158.02 280.906 160.107 292.149 165.021 294.266C169.935 296.383 172.401 291.818 172.401 291.818C173.229 293.496 174.142 295.13 175.137 296.714C175.137 296.714 175.89 306.591 172.371 312.907C172.371 312.907 141.16 323.623 131.239 335.477C135.456 325.483 131.239 315.991 131.276 311.071C131.313 306.151 132.702 300.539 139.734 294.933C146.765 289.327 147.488 277.363 150.303 264.028C153.118 250.693 160.192 231.734 176.373 220.522C192.554 209.311 204.469 222.682 204.469 222.682C204.469 222.682 225.601 222.126 232.167 264.236Z" fill="#303031"/>
<path d="M213.545 305.686C211.92 308.256 210.822 311.124 210.317 314.123C209.812 317.121 209.908 320.191 210.601 323.152C210.601 323.152 206.201 328.996 200.246 332.184C199.94 325.885 200.515 319.574 201.954 313.433C205.467 312.638 208.074 310.6 210.307 308.752C211.287 307.913 212.413 306.836 213.545 305.686Z" fill="#303031"/>
<path d="M172.34 312.895C175.859 306.579 175.106 296.702 175.106 296.702C178.068 301.463 183.288 308.439 189.898 311.536C194.879 313.868 198.765 314.155 201.917 313.446C200.488 319.587 199.924 325.899 200.24 332.197C196.972 333.953 193.239 334.914 189.506 333.659C178.98 330.116 172.34 312.895 172.34 312.895Z" fill="#E5AE80"/>
<path d="M140.548 389.888C140.548 389.888 145.505 385.904 148.332 378.181C151.159 370.458 149.752 368.352 153.277 361.333" stroke="#B68AC1" stroke-width="2" stroke-miterlimit="10" stroke-linecap="round"/>
<path d="M252.859 351.248L251.757 355.531C250.655 359.815 251.659 363.989 251.108 366.137" stroke="#B68AC1" stroke-width="2" stroke-miterlimit="10" stroke-linecap="round"/>
<path d="M173.686 398.205C173.686 398.205 161.533 396.981 155.792 394.968C146.865 391.796 137.769 389.122 128.547 386.957" stroke="#B68AC1" stroke-width="2" stroke-miterlimit="10"/>
<path d="M243.091 297.76C243.091 297.76 246.947 297.497 252.149 301.059C252.136 301.059 244.988 288.116 243.091 297.76Z" fill="#E5AE80"/>
<path d="M354.735 247.376H571.162C573.11 247.376 574.978 248.15 576.355 249.527C577.732 250.904 578.506 252.772 578.506 254.72V269.205H347.391V254.72C347.391 252.772 348.165 250.904 349.542 249.527C350.92 248.15 352.787 247.376 354.735 247.376ZM385.334 257.565C385.335 256.939 385.151 256.327 384.804 255.805C384.456 255.284 383.962 254.878 383.384 254.637C382.805 254.397 382.169 254.334 381.554 254.456C380.94 254.578 380.376 254.879 379.933 255.322C379.49 255.765 379.189 256.329 379.067 256.944C378.945 257.558 379.008 258.195 379.248 258.773C379.489 259.351 379.895 259.845 380.416 260.193C380.938 260.54 381.55 260.725 382.176 260.723C383.014 260.72 383.817 260.384 384.408 259.79C384.999 259.196 385.33 258.391 385.328 257.553L385.334 257.565ZM374.796 257.565C374.797 256.939 374.612 256.327 374.265 255.805C373.918 255.284 373.424 254.878 372.846 254.637C372.267 254.397 371.63 254.334 371.016 254.456C370.402 254.578 369.838 254.879 369.395 255.322C368.952 255.765 368.65 256.329 368.528 256.944C368.407 257.558 368.47 258.195 368.71 258.773C368.95 259.351 369.357 259.845 369.878 260.193C370.399 260.54 371.012 260.725 371.638 260.723C372.476 260.72 373.279 260.384 373.87 259.79C374.46 259.196 374.791 258.391 374.79 257.553L374.796 257.565ZM364.258 257.565C364.259 256.939 364.074 256.327 363.727 255.805C363.38 255.284 362.886 254.878 362.307 254.637C361.729 254.397 361.092 254.334 360.478 254.456C359.864 254.578 359.299 254.879 358.856 255.322C358.414 255.765 358.112 256.329 357.99 256.944C357.868 257.558 357.931 258.195 358.172 258.773C358.412 259.351 358.818 259.845 359.34 260.193C359.861 260.54 360.473 260.725 361.1 260.723C361.515 260.723 361.926 260.64 362.309 260.48C362.692 260.32 363.04 260.086 363.333 259.792C363.626 259.497 363.858 259.148 364.015 258.764C364.173 258.38 364.253 257.968 364.251 257.553L364.258 257.565Z" fill="#F3F0EA"/>
<path d="M382.17 260.717C383.918 260.717 385.334 259.301 385.334 257.553C385.334 255.806 383.918 254.389 382.17 254.389C380.423 254.389 379.006 255.806 379.006 257.553C379.006 259.301 380.423 260.717 382.17 260.717Z" fill="#ADD591"/>
<path d="M371.632 260.717C373.379 260.717 374.796 259.301 374.796 257.553C374.796 255.806 373.379 254.389 371.632 254.389C369.885 254.389 368.468 255.806 368.468 257.553C368.468 259.301 369.885 260.717 371.632 260.717Z" fill="#FFDC78"/>
<path d="M361.094 260.717C362.841 260.717 364.258 259.301 364.258 257.553C364.258 255.806 362.841 254.389 361.094 254.389C359.346 254.389 357.93 255.806 357.93 257.553C357.93 259.301 359.346 260.717 361.094 260.717Z" fill="#DD816A"/>
<path d="M571.162 421.583H354.735C352.787 421.583 350.92 420.809 349.542 419.432C348.165 418.054 347.391 416.186 347.391 414.239V269.199H578.512V414.239C578.504 416.185 577.727 418.049 576.35 419.425C574.973 420.801 573.109 421.576 571.162 421.583Z" fill="#FFDC78"/>
<path d="M490.809 234.304C501.684 246.005 499.512 274.083 497.339 281.096C495.246 287.828 481.122 318.317 476.158 316.591C474.322 309.988 473.411 304.517 473.411 304.517C473.411 304.517 487.553 296.328 485.375 284.627C483.196 272.926 474.5 279.952 474.5 279.952C474.5 279.952 452.744 263.569 448.393 244.855C448.393 244.855 441.869 244.855 444.048 256.55C446.226 268.245 457.101 270.588 457.101 270.588C457.101 270.588 437.518 272.926 439.696 244.885C439.696 244.885 433.173 244.885 428.815 249.567C424.458 254.248 419.024 281.145 419.024 281.145C419.024 281.145 419.024 283.293 419.195 286.494C419.195 286.494 416.845 285.827 414.679 278.807C414.679 278.807 410.321 283.489 408.149 283.489C405.976 283.489 403.804 234.353 427.732 222.658C451.661 210.963 462.536 222.658 464.708 222.658C469.626 222.697 474.483 223.752 478.975 225.756C483.466 227.76 487.495 230.67 490.809 234.304Z" fill="#303031"/>
<path d="M485.357 284.609C487.535 296.31 473.392 304.498 473.392 304.498C471.354 313.237 452.254 328.102 444.421 329.993C443.938 330.125 443.441 330.197 442.94 330.208C436.41 330.208 427.714 318.513 423.357 309.156C420.48 302.962 419.507 292.681 419.177 286.42C419.005 283.22 419.005 281.072 419.005 281.072C419.005 281.072 424.446 254.144 428.797 249.493C433.148 244.842 439.678 244.812 439.678 244.812C437.499 272.883 457.083 270.515 457.083 270.515C457.083 270.515 446.196 268.232 444.029 256.556C441.863 244.879 448.374 244.861 448.374 244.861C452.726 263.575 474.482 279.958 474.482 279.958C474.482 279.958 483.178 272.908 485.357 284.609Z" fill="#E5AE80"/>
<path d="M476.122 316.573C477.958 323.213 480.724 330.997 484.408 335.544C455.467 360.384 441.832 340.777 441.832 340.777C442.273 340.777 442.64 340.336 442.946 339.626C444.17 336.86 444.403 330.036 444.403 330.036C452.236 328.121 471.33 313.256 473.374 304.517C473.392 304.498 474.286 309.969 476.122 316.573Z" fill="#E0A379"/>
<path d="M397.262 360.648C414.666 351.291 442.94 339.596 442.94 339.596C442.634 340.305 442.267 340.746 441.826 340.746C441.826 340.746 455.461 360.33 484.402 335.514C485.002 336.269 485.679 336.96 486.421 337.576C486.421 337.576 509.254 345.844 524.487 357.655C539.719 369.466 548.415 421.473 548.415 421.473H377.672C377.672 421.473 379.857 370.005 397.262 360.648Z" fill="#BF99C6"/>
<path d="M412.133 420.775C412.133 420.775 413.106 417.648 414.299 413.401C416.196 406.632 418.663 397.012 418.663 392.703" stroke="#B68AC1" stroke-width="2" stroke-miterlimit="10" stroke-linecap="round"/>
<path d="M510.019 420.775C510.019 420.775 507.841 392.703 503.496 392.703" stroke="#B68AC1" stroke-width="2" stroke-miterlimit="10"/>
<path d="M189.812 258.037C189.812 258.037 189.58 256.727 185.443 256.531C181.306 256.335 178.821 259.273 176.875 261.849C176.875 261.849 180.932 258.998 182.872 258.233C184.812 257.468 189.427 258.881 189.427 258.881L189.812 258.037Z" fill="#303031"/>
<path d="M205.063 258.502C205.063 258.502 205.148 257.18 209.236 256.519C213.325 255.858 216.121 258.496 218.331 260.846C218.331 260.846 213.973 258.465 211.96 257.927C209.946 257.388 205.522 259.304 205.522 259.304L205.063 258.502Z" fill="#303031"/>
<path d="M187.617 269.465C187.62 267.954 186.888 266.728 185.982 266.726C185.076 266.725 184.339 267.948 184.337 269.459C184.334 270.97 185.066 272.196 185.971 272.197C186.877 272.199 187.614 270.976 187.617 269.465Z" fill="#303031"/>
<path d="M209.899 269.821C209.902 268.31 209.17 267.084 208.264 267.082C207.358 267.08 206.622 268.304 206.619 269.814C206.616 271.325 207.348 272.551 208.254 272.553C209.159 272.555 209.896 271.332 209.899 269.821Z" fill="#303031"/>
<path d="M431.765 272.467C431.765 272.467 431.527 271.158 427.39 270.974C423.253 270.79 420.774 273.722 418.822 276.304C418.822 276.304 422.873 273.44 424.813 272.675C426.753 271.91 431.367 273.287 431.367 273.287L431.765 272.467Z" fill="#303031"/>
<path d="M447.01 272.914C447.01 272.914 447.095 271.586 451.183 270.919C455.271 270.252 458.074 272.89 460.284 275.203C460.284 275.203 455.926 272.828 453.913 272.296C451.899 271.764 447.475 273.691 447.475 273.691L447.01 272.914Z" fill="#303031"/>
<path d="M427.096 286.084C428.002 286.084 428.736 284.859 428.736 283.348C428.736 281.838 428.002 280.613 427.096 280.613C426.19 280.613 425.456 281.838 425.456 283.348C425.456 284.859 426.19 286.084 427.096 286.084Z" fill="#303031"/>
<path d="M449.378 286.396C450.284 286.396 451.018 285.171 451.018 283.66C451.018 282.15 450.284 280.925 449.378 280.925C448.472 280.925 447.738 282.15 447.738 283.66C447.738 285.171 448.472 286.396 449.378 286.396Z" fill="#303031"/>
<path d="M199.573 275.802C199.573 275.802 198.16 279.315 199.573 282.124C200.987 284.933 203.074 287.755 199.573 287.748" stroke="#D1976F" stroke-width="1.5" stroke-miterlimit="10" stroke-linecap="round"/>
<path d="M197.493 287.118C197.493 287.118 195.657 287.901 194.231 285.814C192.805 283.728 195.534 290.123 197.493 287.118Z" fill="#E0A070" stroke="#D1976F" stroke-miterlimit="10"/>
<path d="M436.086 289.952C436.086 289.952 437.493 293.464 436.086 296.273C434.678 299.082 432.573 301.898 436.086 301.898" stroke="#D1976F" stroke-width="2" stroke-miterlimit="10" stroke-linecap="round"/>
<path d="M438.179 301.273C438.179 301.273 440.015 302.057 441.441 299.976C442.867 297.895 440.094 304.29 438.179 301.273Z" fill="#D1976F" stroke="#D1976F" stroke-miterlimit="10"/>
<path d="M192.695 296.133C192.695 296.133 196.697 293.526 198.686 296.133C198.686 296.133 202.688 293.526 204.683 296.133C204.683 296.157 198.68 301.377 192.695 296.133Z" fill="#DD816A"/>
<path d="M433.014 310.221C433.014 310.221 440.602 311.83 443.723 309.37C443.723 309.37 438.466 317.944 433.014 310.221Z" fill="white"/>
<path d="M310.985 234.806H234.573C233.9 234.803 233.256 234.534 232.78 234.059C232.305 233.583 232.036 232.939 232.033 232.266V216.392C232.034 215.718 232.303 215.073 232.779 214.597C233.254 214.122 233.899 213.853 234.573 213.852H310.985C311.658 213.853 312.303 214.122 312.779 214.597C313.255 215.073 313.523 215.718 313.524 216.392V232.266C313.521 232.939 313.252 233.583 312.777 234.059C312.301 234.534 311.657 234.803 310.985 234.806Z" fill="#F4F1EB"/>
<path d="M242.161 234.806C242.161 234.806 236.041 236.287 234.573 241.366C239.878 237.563 246.128 235.294 252.638 234.806" fill="#F4F1EB"/>
<path d="M305.642 205.621H427.867C428.944 205.617 429.975 205.188 430.737 204.427C431.498 203.665 431.927 202.634 431.93 201.557V176.166C431.927 175.089 431.498 174.057 430.737 173.296C429.975 172.535 428.944 172.106 427.867 172.102H305.642C304.565 172.106 303.534 172.535 302.772 173.296C302.011 174.057 301.582 175.089 301.578 176.166V201.557C301.582 202.634 302.011 203.665 302.772 204.427C303.534 205.188 304.565 205.617 305.642 205.621Z" fill="#F4F1EB"/>
<path d="M415.725 205.621C415.725 205.621 425.517 207.989 427.867 216.116C427.867 216.116 416.447 206.973 398.963 205.621" fill="#F4F1EB"/>
<path d="M259.682 227.652C261.43 227.652 262.846 226.235 262.846 224.488C262.846 222.741 261.43 221.324 259.682 221.324C257.935 221.324 256.518 222.741 256.518 224.488C256.518 226.235 257.935 227.652 259.682 227.652Z" fill="#303031"/>
<path d="M270.22 227.67C271.968 227.67 273.384 226.254 273.384 224.506C273.384 222.759 271.968 221.342 270.22 221.342C268.473 221.342 267.057 222.759 267.057 224.506C267.057 226.254 268.473 227.67 270.22 227.67Z" fill="#303031"/>
<path d="M280.759 227.695C282.506 227.695 283.923 226.278 283.923 224.531C283.923 222.783 282.506 221.367 280.759 221.367C279.011 221.367 277.595 222.783 277.595 224.531C277.595 226.278 279.011 227.695 280.759 227.695Z" fill="#303031"/>
<path d="M339.062 193.234C340.81 193.234 342.226 191.818 342.226 190.07C342.226 188.323 340.81 186.906 339.062 186.906C337.315 186.906 335.898 188.323 335.898 190.07C335.898 191.818 337.315 193.234 339.062 193.234Z" fill="#303031"/>
<path d="M349.601 193.252C351.348 193.252 352.764 191.836 352.764 190.089C352.764 188.341 351.348 186.925 349.601 186.925C347.853 186.925 346.437 188.341 346.437 190.089C346.437 191.836 347.853 193.252 349.601 193.252Z" fill="#303031"/>
<path d="M360.139 193.271C361.886 193.271 363.303 191.854 363.303 190.107C363.303 188.359 361.886 186.943 360.139 186.943C358.392 186.943 356.975 188.359 356.975 190.107C356.975 191.854 358.392 193.271 360.139 193.271Z" fill="#303031"/>
<path d="M370.273 193.234C372.021 193.234 373.437 191.818 373.437 190.07C373.437 188.323 372.021 186.906 370.273 186.906C368.526 186.906 367.109 188.323 367.109 190.07C367.109 191.818 368.526 193.234 370.273 193.234Z" fill="#303031"/>
<path d="M380.812 193.252C382.559 193.252 383.976 191.836 383.976 190.089C383.976 188.341 382.559 186.925 380.812 186.925C379.064 186.925 377.648 188.341 377.648 190.089C377.648 191.836 379.064 193.252 380.812 193.252Z" fill="#303031"/>
<path d="M391.344 193.271C393.091 193.271 394.508 191.854 394.508 190.107C394.508 188.359 393.091 186.943 391.344 186.943C389.596 186.943 388.18 188.359 388.18 190.107C388.18 191.854 389.596 193.271 391.344 193.271Z" fill="#303031"/>
</svg>
