<svg id="Layer_1" data-name="Layer 1" xmlns="http://www.w3.org/2000/svg" viewBox="0 0 495.23 249.67"><defs><style>.cls-1{fill:#f3f0ea;}.cls-2{fill:#add591;}.cls-3{fill:#ffdc78;}.cls-4{fill:#dd816a;}.cls-5{fill:#f7e4c1;}.cls-6{fill:#eab88b;}.cls-7{fill:#bf99c6;}.cls-8{fill:#e5ae80;}.cls-9{fill:#303031;}.cls-10,.cls-11,.cls-13,.cls-15{fill:none;}.cls-10,.cls-11{stroke:#b68ac1;}.cls-10,.cls-13,.cls-15{stroke-linecap:round;}.cls-10,.cls-11,.cls-13,.cls-14,.cls-15,.cls-16{stroke-miterlimit:10;}.cls-10,.cls-11,.cls-15{stroke-width:2px;}.cls-12{fill:#e0a379;}.cls-13,.cls-14,.cls-15,.cls-16{stroke:#d1976f;}.cls-13{stroke-width:1.5px;}.cls-14{fill:#e0a070;}.cls-16{fill:#d1976f;}.cls-17{fill:#fff;}.cls-18{fill:#f4f1eb;}</style></defs><path class="cls-1" d="M83.55,146.18l0-14.48a7.37,7.37,0,0,1,7.35-7.35l216.43.41a7.37,7.37,0,0,1,7.34,7.34v14.49Zm38-11.57a3.22,3.22,0,0,0-.53-1.76,3.12,3.12,0,0,0-1.42-1.17,3.13,3.13,0,0,0-3.45.68,3.15,3.15,0,0,0-.69,3.44,3.19,3.19,0,0,0,1.16,1.43,3.14,3.14,0,0,0,1.76.53,3,3,0,0,0,1.21-.23,3.29,3.29,0,0,0,1-.68,3.16,3.16,0,0,0,.93-2.25Zm-10.54,0a3.17,3.17,0,0,0-1.95-2.93,3.17,3.17,0,0,0-4.32,2.3,3.15,3.15,0,0,0,.18,1.82,3.19,3.19,0,0,0,1.16,1.43,3.14,3.14,0,0,0,1.76.53,3.07,3.07,0,0,0,1.23-.24,3.26,3.26,0,0,0,1-.69,3.3,3.3,0,0,0,.92-2.27Zm-10.54,0a3.19,3.19,0,0,0-.53-1.77,3.16,3.16,0,0,0-1.41-1.17,3.19,3.19,0,0,0-1.83-.18,3.19,3.19,0,0,0-2.5,2.48,3.17,3.17,0,0,0,1.34,3.25,3.15,3.15,0,0,0,1.76.54,3.25,3.25,0,0,0,1.23-.24,3.14,3.14,0,0,0,1-.7,2.91,2.91,0,0,0,.69-1,3.2,3.2,0,0,0,.24-1.22Z" transform="translate(-83.28 -50.1)"/><path class="cls-2" d="M118.35,137.76a3.17,3.17,0,1,0-3.16-3.17A3.16,3.16,0,0,0,118.35,137.76Z" transform="translate(-83.28 -50.1)"/><path class="cls-3" d="M107.81,137.74a3.17,3.17,0,1,0-3.16-3.17A3.17,3.17,0,0,0,107.81,137.74Z" transform="translate(-83.28 -50.1)"/><path class="cls-4" d="M97.27,137.72a3.17,3.17,0,1,0-3.16-3.16A3.17,3.17,0,0,0,97.27,137.72Z" transform="translate(-83.28 -50.1)"/><path class="cls-5" d="M83.28,291.22l.27-145,231.12.43-.27,145a7.32,7.32,0,0,1-7.34,7.34l-216.45-.42a7.36,7.36,0,0,1-7.33-7.35Z" transform="translate(-83.28 -50.1)"/><path class="cls-6" d="M219.15,140.06c6.37,6.4,7.77,5.32,8,5.08a20.74,20.74,0,0,1-2.38,4.07c-2.81,3.5.69,5.62-1.42,9.83s.69,6.32,1.39,8.43c.54,1.65-2.14,5.67-3.33,7.34-.33.46-.55.74-.55.74s-3.67,4.47-7.29,8.15a44,44,0,0,1-3.27,3.06c-2.22,1.84-4.84,3.89-8.35,4.69-3.15.7-7,.42-12-1.91-6.61-3.1-11.83-10.08-14.79-14.84a52,52,0,0,1-2.73-4.89,5.69,5.69,0,0,1-7.39,2.44c-4.93-2.11-7-13.36,0-16.15,0,0,3.5,6.32,4.21,6.32s-4.19-14.07-.67-17.56,7.73-4.2,10.56-12.62,11.95-6.3,12.68-21.76c0,0,5.62-1.39,9.83,6.35s4.89,14.07,11.2,19A31.1,31.1,0,0,1,219.15,140.06Z" transform="translate(-83.28 -50.1)"/><path class="cls-7" d="M131.21,213.46c9.91-11.85,41.13-22.57,41.13-22.57s6.64,17.23,17.17,20.78c3.73,1.22,7.47.29,10.74-1.47-.18,11.53,11.33,33.47,16.24,34.89s11.25-4.9,17.57-2.78,6.33-2.1,7.75-12.63-10.48-26-8.37-32.35c.12-.35.22-.7.32-1.07,7.69,4.21,19.68,14.81,19.68,14.81,0-.4.05-.8.07-1.2,0,.44.94,14.95.25,18.4a1.76,1.76,0,0,0,0,.79c.53,2.27,6.83,0,12,.65,5.61.71,12.65-1.73,12.65-1.73,3.23,15.38,6.12,52.52-4.7,70.23,0,0-.14.31-.37.77l-.34-.06-18.26,0v-.71c7,0,5.63-7,5.63-7,5.61-2.8,2.82-9.12,2.82-9.12a3.69,3.69,0,0,0,2-1.27,3.73,3.73,0,0,0,.82-2.23c-.23-1.88-2-4-4.24-5.9-.1-.25-1.78-4.35-3.82-5.71s-7-1.41-7-1.41c-2.4-.24-4.95,1.06-7.68,3-2.72-18.09-4.25-14.93-4.25-14.93-.71,6.32-14.32,26.14-14.32,26.14-10,1.79-26.64-.27-32.08-1.64A102,102,0,0,0,174,276.28h-.39a27.67,27.67,0,0,0-3.22,9.12c-.49,3.41-1,9.18-2,13.34l-51.79-.09c-11.74-13.1-4.82-42.43,1.48-53.74,7-12.63,5.65-14,10.6-27.38A13.91,13.91,0,0,1,131.21,213.46Z" transform="translate(-83.28 -50.1)"/><path class="cls-8" d="M254.68,298.17v.71l-86.23-.16c1-4.16,1.47-9.93,2-13.35a28,28,0,0,1,3.23-9.12H174A101.85,101.85,0,0,1,192.55,278c5.44,1.37,22.11,3.42,32.09,1.64.32-.05.61-.11.92-.18,6.49-1.38,12.38-7.35,17.65-11,2.72-1.91,5.28-3.21,7.67-3a65.56,65.56,0,0,1,10.84,7.13c2.25,1.94,4,4,4.24,5.9a3.73,3.73,0,0,1-.81,2.22,3.65,3.65,0,0,1-2,1.28s2.8,6.33-2.82,9.13C260.31,291.16,261.7,298.19,254.68,298.17Z" transform="translate(-83.28 -50.1)"/><path class="cls-8" d="M261.71,272.63a65.23,65.23,0,0,0-10.83-7.13s4.89,0,7,1.42S261.62,272.38,261.71,272.63Z" transform="translate(-83.28 -50.1)"/><path class="cls-9" d="M233.44,197.33c-2.12,6.32,9.79,21.79,8.37,32.33s-1.43,14.75-7.75,12.63-12.65,4.19-17.57,2.78-16.42-23.36-16.24-34.89a36.52,36.52,0,0,0,10.35-9,23,23,0,0,1,2.94-17.46c3.62-3.68,7.29-8.16,7.29-8.16s.22-.28.55-.74a9.08,9.08,0,0,0,5.41,3.92c3.51.71,5.63-.69,7,0a4.33,4.33,0,0,0,1.55.31s.16,10.71-1.61,17.22C233.66,196.63,233.56,197,233.44,197.33Z" transform="translate(-83.28 -50.1)"/><path class="cls-8" d="M244.38,173.81a9.5,9.5,0,0,1-9,5.21,4.06,4.06,0,0,1-1.54-.3c-1.41-.71-3.52.69-7,0a9,9,0,0,1-5.42-3.92c1.2-1.66,3.88-5.68,3.33-7.34-.69-2.11-3.5-4.22-1.39-8.44s-1.39-6.32,1.43-9.83a20.41,20.41,0,0,0,2.37-4.07,4.72,4.72,0,0,1,4-2.93,3.26,3.26,0,0,1,1.08.06c6.46,1.12,30,14.5,33.3,21.08,3.5,7,8.34,49.19,11.83,60.43.34,1.12.71,2.54,1,4.23,0,0-7,2.44-12.65,1.73-5.13-.65-11.43,1.62-12-.64a2.1,2.1,0,0,1,0-.79c.7-3.46-.22-18-.25-18.4.66-11,.68-23.47.68-25.5s-1.39-6.32-4.89-7a7.27,7.27,0,0,1-2.83-1.24A7.13,7.13,0,0,1,244.38,173.81Z" transform="translate(-83.28 -50.1)"/><path class="cls-9" d="M232.17,142.24a3.32,3.32,0,0,0-1.09-.06,4.72,4.72,0,0,0-4,2.93c-.2.25-1.6,1.32-7.95-5.07a30.6,30.6,0,0,0-6.32-4.23c-6.32-4.93-7-11.25-11.21-19s-9.82-6.35-9.82-6.35c-.73,15.46-9.86,13.33-12.68,21.76s-7.05,9.12-10.57,12.62,1.37,17.57.68,17.57-4.21-6.33-4.21-6.33c-7,2.8-4.94,14,0,16.16s7.38-2.45,7.38-2.45a53.15,53.15,0,0,0,2.74,4.89s.75,9.88-2.77,16.2c0,0-31.21,10.71-41.13,22.57,4.22-10,0-19.49,0-24.41s1.42-10.53,8.45-16.14,7.76-17.57,10.57-30.9,9.89-32.3,26.07-43.51,28.1,2.16,28.1,2.16S225.6,100.13,232.17,142.24Z" transform="translate(-83.28 -50.1)"/><path class="cls-9" d="M213.54,183.69a23,23,0,0,0-2.94,17.46,36.52,36.52,0,0,1-10.35,9,67.6,67.6,0,0,1,1.7-18.75c3.52-.79,6.12-2.83,8.36-4.68C211.29,185.91,212.41,184.84,213.54,183.69Z" transform="translate(-83.28 -50.1)"/><path class="cls-8" d="M172.34,190.89c3.52-6.31,2.77-16.19,2.77-16.19,3,4.76,8.18,11.74,14.79,14.84,5,2.33,8.86,2.61,12,1.91a67.55,67.55,0,0,0-1.68,18.75c-3.27,1.75-7,2.71-10.73,1.46C179,208.12,172.34,190.89,172.34,190.89Z" transform="translate(-83.28 -50.1)"/><path class="cls-10" d="M140.55,267.89a28.55,28.55,0,0,0,7.78-11.71c2.83-7.72,1.42-9.83,4.95-16.85" transform="translate(-83.28 -50.1)"/><path class="cls-10" d="M252.86,229.25l-1.1,4.28c-1.11,4.29-.1,8.46-.65,10.61" transform="translate(-83.28 -50.1)"/><path class="cls-11" d="M173.69,276.2S161.53,275,155.79,273a255.25,255.25,0,0,0-27.24-8" transform="translate(-83.28 -50.1)"/><path class="cls-8" d="M243.09,175.76s3.86-.26,9.06,3.3C252.14,179.06,245,166.12,243.09,175.76Z" transform="translate(-83.28 -50.1)"/><path class="cls-1" d="M354.73,125.38H571.16a7.36,7.36,0,0,1,7.35,7.34V147.2H347.39V132.72a7.34,7.34,0,0,1,7.34-7.34Zm30.6,10.19a3.19,3.19,0,0,0-.53-1.77,3.17,3.17,0,0,0-3.25-1.34,3.2,3.2,0,0,0-1.62.86,3.18,3.18,0,0,0-.68,3.45,3.17,3.17,0,0,0,2.93,1.95,3.16,3.16,0,0,0,3.15-3.17Zm-10.53,0a3.28,3.28,0,0,0-.53-1.77,3.21,3.21,0,0,0-1.42-1.16,3.11,3.11,0,0,0-1.83-.18,3.16,3.16,0,0,0-2.31,4.31,3.13,3.13,0,0,0,1.17,1.42,3.06,3.06,0,0,0,1.76.53,3.16,3.16,0,0,0,3.15-3.17Zm-10.54,0a3.28,3.28,0,0,0-.53-1.77,3.16,3.16,0,0,0-1.42-1.16,3.17,3.17,0,0,0-4.32,2.3,3.17,3.17,0,0,0,.18,1.83,3.13,3.13,0,0,0,1.17,1.42,3.06,3.06,0,0,0,1.76.53,3.11,3.11,0,0,0,1.21-.24,3.07,3.07,0,0,0,1-.69,3,3,0,0,0,.69-1,3.29,3.29,0,0,0,.23-1.21Z" transform="translate(-83.28 -50.1)"/><path class="cls-2" d="M382.17,138.72a3.17,3.17,0,1,0-3.16-3.17A3.16,3.16,0,0,0,382.17,138.72Z" transform="translate(-83.28 -50.1)"/><path class="cls-3" d="M371.63,138.72a3.17,3.17,0,1,0-3.16-3.17A3.17,3.17,0,0,0,371.63,138.72Z" transform="translate(-83.28 -50.1)"/><path class="cls-4" d="M361.09,138.72a3.17,3.17,0,1,0-3.16-3.17A3.17,3.17,0,0,0,361.09,138.72Z" transform="translate(-83.28 -50.1)"/><path class="cls-3" d="M571.16,299.58H354.73a7.34,7.34,0,0,1-7.34-7.34v-145H578.51v145a7.37,7.37,0,0,1-7.35,7.34Z" transform="translate(-83.28 -50.1)"/><path class="cls-9" d="M490.81,112.3c10.87,11.71,8.7,39.78,6.53,46.8-2.09,6.73-16.22,37.22-21.18,35.49-1.84-6.6-2.75-12.07-2.75-12.07s14.14-8.19,12-19.89S474.5,158,474.5,158s-21.76-16.38-26.11-35.1c0,0-6.52,0-4.34,11.7a17.87,17.87,0,0,0,13.05,14s-19.58,2.34-17.4-25.71c0,0-6.53,0-10.88,4.69s-9.8,31.57-9.8,31.57,0,2.15.18,5.35c0,0-2.35-.66-4.52-7.68,0,0-4.36,4.68-6.53,4.68s-4.35-49.14,19.58-60.83,34.81,0,37,0a35.74,35.74,0,0,1,26.1,11.64Z" transform="translate(-83.28 -50.1)"/><path class="cls-8" d="M485.36,162.61c2.18,11.7-12,19.89-12,19.89-2,8.74-21.14,23.6-29,25.49a6.16,6.16,0,0,1-1.48.22c-6.53,0-15.23-11.7-19.58-21.05-2.88-6.2-3.85-16.48-4.18-22.74-.17-3.2-.17-5.35-.17-5.35s5.44-26.93,9.79-31.58,10.88-4.68,10.88-4.68c-2.18,28.07,17.4,25.71,17.4,25.71s-10.88-2.29-13.05-14,4.34-11.7,4.34-11.7c4.36,18.72,26.11,35.1,26.11,35.1S483.18,150.91,485.36,162.61Z" transform="translate(-83.28 -50.1)"/><path class="cls-12" d="M476.12,194.57c1.84,6.64,4.6,14.43,8.29,19-28.94,24.84-42.58,5.24-42.58,5.24.44,0,.81-.44,1.12-1.15,1.22-2.77,1.45-9.59,1.45-9.59,7.84-1.92,26.93-16.78,29-25.52C473.39,182.5,474.29,188,476.12,194.57Z" transform="translate(-83.28 -50.1)"/><path class="cls-7" d="M397.26,238.65c17.41-9.36,45.68-21.05,45.68-21.05-.31.7-.67,1.15-1.11,1.15,0,0,13.63,19.58,42.57-5.24a14.12,14.12,0,0,0,2,2.07s22.83,8.26,38.07,20.07,23.92,63.82,23.92,63.82H377.67S379.86,248,397.26,238.65Z" transform="translate(-83.28 -50.1)"/><path class="cls-10" d="M412.13,298.77s1-3.12,2.17-7.37c1.9-6.77,4.36-16.39,4.36-20.7" transform="translate(-83.28 -50.1)"/><path class="cls-11" d="M510,298.77s-2.18-28.07-6.52-28.07" transform="translate(-83.28 -50.1)"/><path class="cls-9" d="M189.81,136s-.23-1.31-4.37-1.51-6.62,2.74-8.56,5.32a45.17,45.17,0,0,1,6-3.62c1.94-.76,6.56.65,6.56.65Z" transform="translate(-83.28 -50.1)"/><path class="cls-9" d="M205.06,136.5s.09-1.32,4.18-2,6.88,2,9.09,4.33a43.87,43.87,0,0,0-6.37-2.92c-2-.54-6.44,1.37-6.44,1.37Z" transform="translate(-83.28 -50.1)"/><path class="cls-9" d="M187.62,147.46c0-1.51-.73-2.73-1.64-2.73s-1.64,1.22-1.64,2.73.73,2.74,1.63,2.74S187.61,149,187.62,147.46Z" transform="translate(-83.28 -50.1)"/><path class="cls-9" d="M209.9,147.82c0-1.51-.73-2.74-1.64-2.74s-1.64,1.22-1.64,2.73.73,2.74,1.63,2.74S209.9,149.33,209.9,147.82Z" transform="translate(-83.28 -50.1)"/><path class="cls-9" d="M431.77,150.47s-.24-1.31-4.38-1.5-6.62,2.75-8.57,5.33a44.92,44.92,0,0,1,6-3.63c1.94-.76,6.56.62,6.56.62Z" transform="translate(-83.28 -50.1)"/><path class="cls-9" d="M447,150.91s.09-1.32,4.17-2,6.89,2,9.1,4.28a43.88,43.88,0,0,0-6.37-2.9c-2-.54-6.43,1.39-6.43,1.39Z" transform="translate(-83.28 -50.1)"/><path class="cls-9" d="M427.1,164.08c.9,0,1.64-1.22,1.64-2.73s-.74-2.74-1.64-2.74-1.64,1.23-1.64,2.74S426.19,164.08,427.1,164.08Z" transform="translate(-83.28 -50.1)"/><path class="cls-9" d="M449.38,164.4c.9,0,1.64-1.23,1.64-2.74s-.74-2.74-1.64-2.74-1.64,1.23-1.64,2.74S448.47,164.4,449.38,164.4Z" transform="translate(-83.28 -50.1)"/><path class="cls-13" d="M199.57,153.8s-1.41,3.52,0,6.32,3.5,5.64,0,5.63" transform="translate(-83.28 -50.1)"/><path class="cls-14" d="M197.49,165.12a2.72,2.72,0,0,1-3.26-1.31C192.8,161.73,195.53,168.12,197.49,165.12Z" transform="translate(-83.28 -50.1)"/><path class="cls-15" d="M436.09,168s1.4,3.51,0,6.32-3.52,5.63,0,5.63" transform="translate(-83.28 -50.1)"/><path class="cls-16" d="M438.18,179.27a2.7,2.7,0,0,0,3.26-1.29C442.87,175.89,440.09,182.29,438.18,179.27Z" transform="translate(-83.28 -50.1)"/><path class="cls-4" d="M192.7,174.13s4-2.6,6,0c0,0,4-2.6,6,0C204.68,174.16,198.68,179.38,192.7,174.13Z" transform="translate(-83.28 -50.1)"/><path class="cls-17" d="M433,188.22s7.59,1.61,10.71-.85C443.72,187.37,438.47,195.94,433,188.22Z" transform="translate(-83.28 -50.1)"/><path class="cls-18" d="M311,112.81H234.57a2.62,2.62,0,0,1-1.79-.75,2.57,2.57,0,0,1-.75-1.79V94.39a2.56,2.56,0,0,1,2.54-2.54H311a2.54,2.54,0,0,1,1.8.75,2.5,2.5,0,0,1,.74,1.79v15.88a2.56,2.56,0,0,1-.74,1.79A2.62,2.62,0,0,1,311,112.81Z" transform="translate(-83.28 -50.1)"/><path class="cls-18" d="M242.16,112.81s-6.12,1.48-7.59,6.56a35.47,35.47,0,0,1,18.07-6.56" transform="translate(-83.28 -50.1)"/><path class="cls-18" d="M305.64,83.62H427.87a4.06,4.06,0,0,0,4.06-4.06V54.17a4.06,4.06,0,0,0-1.19-2.87,4.13,4.13,0,0,0-2.87-1.2H305.64a4.13,4.13,0,0,0-2.87,1.2,4.06,4.06,0,0,0-1.19,2.87V79.56a4.06,4.06,0,0,0,4.06,4.06Z" transform="translate(-83.28 -50.1)"/><path class="cls-18" d="M415.73,83.62s9.79,2.37,12.14,10.5A56.91,56.91,0,0,0,399,83.62" transform="translate(-83.28 -50.1)"/><path class="cls-9" d="M259.68,105.65a3.17,3.17,0,1,0-3.16-3.16A3.16,3.16,0,0,0,259.68,105.65Z" transform="translate(-83.28 -50.1)"/><path class="cls-9" d="M270.22,105.67a3.17,3.17,0,1,0-3.16-3.16A3.16,3.16,0,0,0,270.22,105.67Z" transform="translate(-83.28 -50.1)"/><path class="cls-9" d="M280.76,105.7a3.17,3.17,0,1,0-3.16-3.17A3.16,3.16,0,0,0,280.76,105.7Z" transform="translate(-83.28 -50.1)"/><path class="cls-9" d="M339.06,71.23a3.16,3.16,0,1,0-3.16-3.16A3.16,3.16,0,0,0,339.06,71.23Z" transform="translate(-83.28 -50.1)"/><path class="cls-9" d="M349.6,71.25a3.16,3.16,0,1,0-3.16-3.16A3.15,3.15,0,0,0,349.6,71.25Z" transform="translate(-83.28 -50.1)"/><path class="cls-9" d="M360.14,71.27A3.17,3.17,0,1,0,357,68.11,3.16,3.16,0,0,0,360.14,71.27Z" transform="translate(-83.28 -50.1)"/><path class="cls-9" d="M370.27,71.23a3.16,3.16,0,1,0-3.16-3.16A3.16,3.16,0,0,0,370.27,71.23Z" transform="translate(-83.28 -50.1)"/><path class="cls-9" d="M380.81,71.25a3.16,3.16,0,1,0-3.16-3.16A3.16,3.16,0,0,0,380.81,71.25Z" transform="translate(-83.28 -50.1)"/><path class="cls-9" d="M391.34,71.27a3.17,3.17,0,1,0-3.16-3.16A3.17,3.17,0,0,0,391.34,71.27Z" transform="translate(-83.28 -50.1)"/></svg>