<svg width="326" height="632" viewBox="0 0 326 632" fill="none" xmlns="http://www.w3.org/2000/svg">
<path d="M121.434 550.657C116.121 548.498 110.773 547.392 105.868 547.252C106.247 544.825 106.436 542.372 106.434 539.916C106.434 523.149 97.8024 509.556 87.156 509.556C76.5096 509.556 67.8801 523.149 67.8801 539.916C67.8772 542.428 68.0758 544.937 68.4739 547.418C64.0355 547.872 59.6872 548.963 55.5656 550.657C39.9202 557.01 30.4953 570.09 34.5386 579.854C38.5818 589.618 54.5382 592.374 70.1874 586.021C78.306 582.722 84.7451 577.612 88.5 572.105C92.2549 577.617 98.694 582.722 106.813 586.021C122.458 592.374 138.424 589.618 142.461 579.854C146.499 570.09 137.085 557.016 121.434 550.657Z" fill="#BCF7D4"/>
<path d="M453.562 218.943C440.072 186.746 398.445 173.63 360.596 189.645C351.082 193.643 342.364 199.333 334.86 206.441C340.643 194.637 343.616 181.645 343.544 168.489C343.544 127.224 315.36 93.7639 280.593 93.7639C245.826 93.7639 217.666 127.224 217.666 168.489C217.612 181.156 220.372 193.676 225.746 205.136C218.557 198.633 210.328 193.395 201.404 189.645C163.555 173.63 121.928 186.746 108.438 218.943C94.9475 251.139 114.692 290.222 152.548 306.236C162.01 310.264 172.116 312.547 182.384 312.977C179.296 314.726 176.314 316.658 173.454 318.762C140.35 343.195 130.206 385.82 150.788 413.975C171.371 442.131 214.865 445.144 247.992 420.717C266.205 407.27 277.463 388.321 280.485 369.3C283.526 388.291 294.778 407.186 312.966 420.626C346.064 445.06 389.576 442.041 410.17 413.891C430.765 385.742 420.602 343.105 387.499 318.678C384.702 316.616 381.786 314.722 378.766 313.007C389.323 312.673 399.727 310.377 409.452 306.236C447.308 290.222 467.059 251.139 453.562 218.943ZM280.234 346.118H281.018C280.815 347.056 280.629 347.994 280.473 348.938C280.312 347.994 280.126 347.056 279.923 346.124L280.234 346.118Z" fill="#F7A65C"/>
</svg>
